<svg width="14" height="18" viewBox="0 0 14 18" fill="none" xmlns="http://www.w3.org/2000/svg">
  <path class="fill-theme-color" d="M0 2.00006C0 0.895496 0.895421 6.90012e-05 1.99998 6.063e-05L9.17156 6.27849e-06C9.702 2.25844e-06 10.2107 0.210716 10.5858 0.585793L13.4142 3.41421C13.7893 3.78929 14 4.29799 14 4.82843V16C14 17.1046 13.1046 18 12 18H2C0.89543 18 0 17.1046 0 16V2.00006Z" fill="#FEDA00"/>
  <path d="M11 5H12L9 2V3C9 4.10457 9.89543 5 11 5Z" fill="white"/>
  <path d="M5 8H9" stroke="white" stroke-width="2" stroke-linecap="round"/>
  <path d="M5 12H8" stroke="white" stroke-width="2" stroke-linecap="round"/>
  <path class="stroke-theme-color" d="M1 2.00006C1 1.44778 1.44771 1.00006 1.99999 1.00006L9.17157 1.00001C9.43679 1 9.69115 1.10536 9.87869 1.2929L12.7071 4.12132C12.8946 4.30886 13 4.56321 13 4.82843V16C13 16.5523 12.5523 17 12 17H2C1.44772 17 1 16.5523 1 16V2.00006Z" stroke="#FEDA00" stroke-width="2"/>
</svg>
