<svg width="128" height="160" viewBox="0 0 128 160" fill="none" xmlns="http://www.w3.org/2000/svg">
<g clip-path="url(#clip0)">
<path d="M85.4801 101.15L76.1801 54.8298C76.0619 54.2424 75.7153 53.726 75.2165 53.3941C74.7177 53.0622 74.1075 52.9419 73.5201 53.0598L49.9001 57.7998C49.3127 57.918 48.7963 58.2646 48.4644 58.7634C48.1325 59.2621 48.0123 59.8723 48.1301 60.4598L56.3501 101.38L57.4301 106.77C57.5337 107.28 57.8102 107.738 58.2128 108.068C58.6155 108.398 59.1196 108.579 59.6401 108.58C59.7897 108.595 59.9404 108.595 60.0901 108.58L83.7101 103.84C84.004 103.781 84.2834 103.665 84.532 103.498C84.7806 103.331 84.9934 103.116 85.1581 102.865C85.3228 102.615 85.4361 102.334 85.4914 102.04C85.5467 101.745 85.5428 101.443 85.4801 101.15ZM50.2901 59.7598L73.9101 54.9998C73.9712 54.9986 74.0307 55.019 74.0783 55.0574C74.1258 55.0959 74.1583 55.1498 74.1701 55.2098L82.1701 95.2598L58.1201 99.9998L50.1201 59.9998C50.1209 59.9473 50.1375 59.8963 50.1679 59.8534C50.1982 59.8106 50.2408 59.7779 50.2901 59.7598ZM83.2901 101.84L59.7001 106.59C59.639 106.614 59.5711 106.614 59.5101 106.59C59.482 106.572 59.4578 106.548 59.4389 106.521C59.42 106.493 59.4068 106.462 59.4001 106.43L58.5201 102.03L82.6601 97.2798L83.5301 101.59C83.5312 101.651 83.5108 101.71 83.4724 101.758C83.434 101.806 83.3801 101.838 83.3201 101.85L83.2901 101.84Z" fill="black"/>
<path d="M71.61 99.8698C71.2038 99.7584 70.7737 99.7699 70.3741 99.9029C69.9745 100.036 69.6232 100.284 69.3648 100.617C69.1063 100.949 68.9522 101.351 68.922 101.771C68.8918 102.191 68.9868 102.611 69.195 102.977C69.4032 103.343 69.7152 103.639 70.0917 103.828C70.4682 104.017 70.8922 104.09 71.3101 104.038C71.7281 103.985 72.1212 103.811 72.4397 103.535C72.7583 103.26 72.9881 102.896 73.1 102.49C73.1743 102.22 73.1948 101.938 73.1601 101.66C73.1255 101.383 73.0364 101.114 72.898 100.871C72.7596 100.628 72.5747 100.414 72.3536 100.242C72.1326 100.07 71.8799 99.9439 71.61 99.8698ZM71.01 102.05C70.9768 102.04 70.9488 102.018 70.9319 101.988C70.915 101.958 70.9107 101.923 70.92 101.89C70.9318 101.863 70.9514 101.84 70.9763 101.824C71.0012 101.808 71.0303 101.799 71.06 101.8C71.0906 101.813 71.116 101.835 71.1323 101.864C71.1486 101.893 71.1548 101.927 71.15 101.96C71.1406 101.991 71.1201 102.017 71.0924 102.034C71.0646 102.05 71.0317 102.056 71 102.05H71.01Z" fill="black"/>
<path d="M60.7298 60.1996H60.9298L64.2598 59.5296C64.525 59.4779 64.7588 59.3229 64.9098 59.0988C65.0607 58.8747 65.1165 58.5998 65.0648 58.3346C65.013 58.0694 64.8581 57.8356 64.634 57.6846C64.4099 57.5336 64.135 57.4779 63.8698 57.5296L60.5398 58.1996C60.2745 58.2261 60.0307 58.3569 59.8619 58.5632C59.6932 58.7695 59.6132 59.0344 59.6398 59.2996C59.6663 59.5648 59.7971 59.8086 60.0034 59.9774C60.2097 60.1462 60.4745 60.2261 60.7398 60.1996H60.7298Z" fill="black"/>
<path d="M58.7702 83.3896L60.3802 80.9996L62.7802 82.6096C62.8889 82.6913 63.0131 82.75 63.1452 82.7821C63.2774 82.8142 63.4147 82.819 63.5488 82.7963C63.6828 82.7735 63.8109 82.7236 63.925 82.6497C64.0391 82.5757 64.137 82.4793 64.2126 82.3662C64.2882 82.2532 64.3399 82.1259 64.3646 81.9922C64.3894 81.8585 64.3865 81.7211 64.3564 81.5885C64.3262 81.4559 64.2693 81.3309 64.1891 81.221C64.109 81.1111 64.0073 81.0188 63.8902 80.9496L61.4902 79.3396L63.1002 76.9396C63.2303 76.7195 63.2712 76.458 63.2144 76.2088C63.1577 75.9595 63.0077 75.7415 62.7952 75.5994C62.5827 75.4573 62.3239 75.402 62.0719 75.4448C61.8199 75.4876 61.5938 75.6253 61.4402 75.8296L59.8302 78.2296L57.4302 76.6196C57.3215 76.5378 57.1973 76.4791 57.0652 76.447C56.933 76.4149 56.7957 76.4101 56.6616 76.4329C56.5276 76.4556 56.3995 76.5055 56.2854 76.5795C56.1713 76.6534 56.0734 76.7498 55.9978 76.8629C55.9222 76.9759 55.8705 77.1032 55.8458 77.2369C55.821 77.3707 55.8239 77.508 55.854 77.6406C55.8842 77.7732 55.9411 77.8983 56.0213 78.0081C56.1014 78.118 56.2031 78.2104 56.3202 78.2796L58.7202 79.8896L57.1102 82.2896C56.9801 82.5096 56.9392 82.7711 56.9959 83.0204C57.0527 83.2696 57.2027 83.4877 57.4152 83.6298C57.6277 83.7718 57.8865 83.8272 58.1385 83.7844C58.3905 83.7415 58.6165 83.6039 58.7702 83.3996V83.3896Z" fill="black"/>
<path d="M71.3 77.3899L69.69 79.7899C69.5599 80.0099 69.5191 80.2714 69.5758 80.5207C69.6325 80.7699 69.7825 80.988 69.995 81.13C70.2075 81.2721 70.4663 81.3275 70.7183 81.2846C70.9703 81.2418 71.1964 81.1041 71.35 80.8999L73 78.4999L75.4 80.1099C75.5087 80.1916 75.6329 80.2503 75.7651 80.2824C75.8972 80.3145 76.0345 80.3193 76.1686 80.2966C76.3027 80.2738 76.4307 80.2239 76.5448 80.15C76.659 80.076 76.7568 79.9796 76.8324 79.8665C76.908 79.7535 76.9597 79.6262 76.9845 79.4925C77.0092 79.3588 77.0064 79.2214 76.9762 79.0888C76.946 78.9562 76.8891 78.8311 76.809 78.7213C76.7288 78.6114 76.6271 78.5191 76.51 78.4499L74.11 76.8399L75.72 74.4399C75.7929 74.3269 75.8428 74.2007 75.867 74.0685C75.8911 73.9363 75.8889 73.8006 75.8606 73.6692C75.8323 73.5378 75.7783 73.4133 75.7019 73.3027C75.6254 73.1922 75.528 73.0977 75.415 73.0249C75.3021 72.952 75.1759 72.9021 75.0437 72.8779C74.9114 72.8538 74.7758 72.856 74.6444 72.8843C74.513 72.9126 74.3884 72.9666 74.2779 73.043C74.1673 73.1194 74.0729 73.2169 74 73.3299L72.39 75.7299L70 74.1199C69.8913 74.0381 69.7671 73.9794 69.635 73.9473C69.5028 73.9152 69.3655 73.9104 69.2315 73.9332C69.0974 73.9559 68.9694 74.0058 68.8552 74.0798C68.7411 74.1537 68.6432 74.2501 68.5677 74.3632C68.4921 74.4762 68.4403 74.6035 68.4156 74.7372C68.3909 74.871 68.3937 75.0083 68.4239 75.1409C68.454 75.2735 68.5109 75.3986 68.5911 75.5084C68.6712 75.6183 68.773 75.7107 68.89 75.7799L71.3 77.3899Z" fill="black"/>
<path d="M74.3201 85.3704L61.7401 87.8604C61.4749 87.8856 61.2305 88.0151 61.0608 88.2204C60.8911 88.4258 60.8099 88.6901 60.8351 88.9554C60.8603 89.2206 60.9898 89.4649 61.1951 89.6346C61.4005 89.8044 61.6649 89.8856 61.9301 89.8604H62.1201L74.7001 87.3304C74.9653 87.2786 75.1991 87.1237 75.3501 86.8996C75.501 86.6755 75.5568 86.4006 75.5051 86.1354C75.4534 85.8701 75.2984 85.6363 75.0743 85.4854C74.8502 85.3344 74.5753 85.2786 74.3101 85.3304L74.3201 85.3704Z" fill="black"/>
<path d="M58.0802 128C57.9151 128 57.7527 127.959 57.6073 127.881C57.462 127.803 57.3382 127.69 57.2471 127.552C57.156 127.415 57.1004 127.257 57.0852 127.092C57.0701 126.928 57.0958 126.762 57.1602 126.61C57.6855 125.366 57.799 123.986 57.4841 122.673C57.1692 121.359 56.4425 120.181 55.4102 119.31C54.8512 118.843 54.215 118.478 53.5302 118.23C53.3144 118.152 53.132 118.002 53.0136 117.806C52.8953 117.609 52.8481 117.378 52.8802 117.15C53.0958 115.658 52.8591 114.135 52.2007 112.779C51.5422 111.423 50.4923 110.295 49.1864 109.541C47.8805 108.788 46.3787 108.443 44.8749 108.551C43.3711 108.66 41.9343 109.217 40.7502 110.15C40.5555 110.304 40.3105 110.38 40.0628 110.364C39.8152 110.347 39.5825 110.239 39.4102 110.06C39.2461 109.887 39.0725 109.724 38.8902 109.57C38.092 108.903 37.1406 108.444 36.1214 108.234C35.1022 108.025 34.0469 108.072 33.0502 108.37C32.8442 108.431 32.6241 108.424 32.4224 108.351C32.2207 108.277 32.0481 108.14 31.9302 107.96C31.7227 107.627 31.4665 107.327 31.1702 107.07C30.7333 106.685 30.216 106.402 29.6559 106.241C29.0958 106.081 28.507 106.047 27.9323 106.143C27.3577 106.239 26.8115 106.462 26.3337 106.795C25.8559 107.128 25.4585 107.564 25.1702 108.07C25.1008 108.188 25.0082 108.29 24.8979 108.37C24.7877 108.45 24.6623 108.507 24.5293 108.537C24.3963 108.567 24.2586 108.569 24.1246 108.544C23.9906 108.519 23.8632 108.466 23.7502 108.39C23.4804 108.208 23.1752 108.086 22.8545 108.031C22.5339 107.976 22.2052 107.989 21.8902 108.07C21.6826 108.14 21.4578 108.14 21.2502 108.07L20.9202 107.93C20.7642 107.863 20.628 107.757 20.5244 107.622C20.4208 107.487 20.3534 107.328 20.3283 107.16C20.3033 106.992 20.3216 106.82 20.3814 106.661C20.4412 106.502 20.5406 106.36 20.6702 106.25L20.7702 106.16C20.8988 106.016 20.9699 105.829 20.9699 105.635C20.9699 105.442 20.8988 105.255 20.7702 105.11C20.6756 105.013 20.6019 104.897 20.5534 104.77C20.505 104.643 20.4829 104.508 20.4886 104.372C20.4942 104.237 20.5274 104.104 20.5861 103.981C20.6448 103.859 20.7279 103.75 20.8302 103.66C20.9018 103.602 20.9687 103.539 21.0302 103.47C21.3227 103.121 21.4648 102.67 21.4254 102.217C21.3861 101.763 21.1684 101.344 20.8202 101.05C20.6868 100.945 20.5385 100.861 20.3802 100.8C20.1882 100.717 20.027 100.576 19.9193 100.397C19.8117 100.217 19.763 100.009 19.7802 99.8003C19.8348 99.3443 19.7815 98.8819 19.6245 98.4503C19.4676 98.0187 19.2114 97.6301 18.8766 97.3158C18.5418 97.0014 18.1378 96.7702 17.6973 96.6407C17.2567 96.5112 16.7918 96.4871 16.3402 96.5703C16.1135 96.6092 15.8803 96.5688 15.68 96.4558C15.4796 96.3429 15.3243 96.1643 15.2402 95.9503C15.0406 95.4038 14.7072 94.9161 14.2704 94.5318C13.8337 94.1475 13.3076 93.8788 12.7402 93.7503C12.5508 93.7045 12.379 93.6043 12.2458 93.4622C12.1125 93.3201 12.0237 93.1422 11.9902 92.9503C11.8788 92.2598 11.5241 91.632 10.9902 91.1803C10.5208 90.798 9.94681 90.5668 9.34356 90.5168C8.74032 90.4668 8.13607 90.6005 7.6102 90.9003C7.38299 91.0323 7.11293 91.0696 6.85842 91.0041C6.60392 90.9386 6.38542 90.7756 6.2502 90.5503C6.16025 90.3951 6.03583 90.2627 5.88656 90.1633C5.73729 90.0639 5.56717 90.0001 5.38933 89.9769C5.21149 89.9537 5.0307 89.9717 4.86093 90.0295C4.69115 90.0873 4.53694 90.1834 4.4102 90.3103C4.25357 90.459 4.05299 90.553 3.83849 90.5782C3.62398 90.6035 3.40707 90.5586 3.2202 90.4503C3.05955 90.3586 2.87213 90.3255 2.68981 90.3565C2.50749 90.3875 2.34154 90.4807 2.2202 90.6203C2.13191 90.7274 2.0734 90.8559 2.05058 90.9928C2.02776 91.1297 2.04142 91.2703 2.0902 91.4003C2.09312 91.4469 2.09312 91.4936 2.0902 91.5403C2.09398 91.6002 2.09398 91.6603 2.0902 91.7203C2.12863 91.9663 2.07388 92.2178 1.93666 92.4256C1.79944 92.6334 1.58962 92.7826 1.34826 92.8438C1.10689 92.9051 0.851347 92.8741 0.631617 92.757C0.411888 92.6398 0.243785 92.4448 0.160197 92.2103C0.130349 92.1227 0.110228 92.0322 0.100197 91.9403C-0.0467905 91.462 -0.0619675 90.9529 0.0562669 90.4667C0.174501 89.9805 0.421764 89.5352 0.771971 89.1779C1.12218 88.8205 1.56235 88.5642 2.04604 88.4362C2.52974 88.3081 3.03903 88.313 3.5202 88.4503C4.09018 88.0993 4.75614 87.9365 5.42377 87.9849C6.0914 88.0334 6.72687 88.2906 7.2402 88.7203L7.3402 88.8003C7.96916 88.5651 8.63968 88.4614 9.31029 88.4957C9.98091 88.53 10.6374 88.7014 11.2391 88.9995C11.8408 89.2975 12.375 89.7158 12.8086 90.2285C13.2423 90.7412 13.5661 91.3374 13.7602 91.9803C15.0416 92.4184 16.1121 93.3212 16.7602 94.5103C18.0576 94.4914 19.3101 94.9847 20.2461 95.8833C21.1821 96.7819 21.7261 98.0132 21.7602 99.3103L22.0702 99.5403C22.7865 100.14 23.2511 100.987 23.3715 101.913C23.4919 102.84 23.2594 103.777 22.7202 104.54C22.9419 105.028 23.0182 105.57 22.9402 106.1C23.3027 106.138 23.6589 106.222 24.0002 106.35C24.506 105.745 25.1262 105.245 25.8254 104.88C26.5245 104.514 27.2889 104.29 28.0747 104.221C28.8605 104.151 29.6523 104.237 30.4048 104.474C31.1573 104.711 31.8558 105.093 32.4602 105.6C32.7274 105.826 32.9719 106.077 33.1902 106.35C34.4141 106.095 35.6799 106.121 36.8923 106.426C38.1048 106.731 39.2323 107.307 40.1902 108.11C41.9052 107.007 43.9275 106.479 45.9631 106.603C47.9988 106.727 49.9419 107.497 51.5102 108.8C52.6553 109.753 53.5599 110.962 54.1506 112.329C54.7414 113.696 55.0016 115.184 54.9102 116.67C55.5388 116.968 56.1269 117.344 56.6602 117.79C58.0206 118.94 58.9777 120.495 59.3915 122.228C59.8053 123.96 59.6541 125.78 58.9602 127.42C58.8821 127.589 58.7583 127.733 58.6028 127.836C58.4473 127.938 58.2663 127.995 58.0802 128Z" fill="black"/>
<path d="M89.2002 128C89.039 128 88.8802 127.961 88.7374 127.886C88.5946 127.811 88.4721 127.703 88.3802 127.57C87.8347 126.785 87.5144 125.866 87.4539 124.912C87.3933 123.958 87.5949 123.006 88.0367 122.158C88.4786 121.31 89.1439 120.6 89.9606 120.103C90.7773 119.606 91.7143 119.343 92.6702 119.34C92.9448 119.345 93.2187 119.368 93.4902 119.41C94.154 118.589 94.9913 117.924 95.9422 117.464C96.8931 117.004 97.934 116.76 98.9902 116.75C99.5221 115.092 100.563 113.644 101.965 112.612C103.367 111.58 105.059 111.016 106.8 111C107.719 110.997 108.632 111.149 109.5 111.45C110.011 110.426 110.797 109.564 111.771 108.962C112.744 108.36 113.866 108.041 115.01 108.04C115.505 108.046 115.998 108.106 116.48 108.22C116.566 107.106 117.068 106.065 117.888 105.305C118.707 104.545 119.783 104.122 120.9 104.12C121.517 104.121 122.127 104.251 122.69 104.502C123.254 104.754 123.758 105.121 124.17 105.58C124.618 105.238 125.144 105.012 125.7 104.921C126.256 104.83 126.827 104.878 127.36 105.06C127.607 105.16 127.804 105.353 127.908 105.598C128.012 105.842 128.015 106.118 127.915 106.365C127.816 106.612 127.622 106.809 127.378 106.913C127.133 107.017 126.857 107.02 126.61 106.92C126.33 106.81 125.81 106.77 124.55 107.77C124.435 107.862 124.3 107.927 124.157 107.961C124.013 107.995 123.864 107.997 123.72 107.966C123.575 107.936 123.44 107.874 123.322 107.784C123.205 107.695 123.108 107.581 123.04 107.45C122.752 106.902 122.265 106.484 121.679 106.283C121.093 106.082 120.452 106.112 119.888 106.368C119.323 106.623 118.878 107.084 118.642 107.657C118.407 108.23 118.399 108.872 118.62 109.45C118.697 109.645 118.71 109.859 118.659 110.062C118.607 110.264 118.493 110.446 118.333 110.581C118.173 110.715 117.975 110.796 117.766 110.812C117.557 110.829 117.349 110.779 117.17 110.67C116.521 110.268 115.774 110.054 115.01 110.05C114.11 110.054 113.234 110.348 112.514 110.888C111.793 111.428 111.266 112.187 111.01 113.05C110.968 113.189 110.897 113.318 110.8 113.427C110.704 113.535 110.585 113.622 110.452 113.68C110.318 113.738 110.174 113.766 110.029 113.763C109.883 113.759 109.741 113.724 109.61 113.66C108.748 113.226 107.796 113 106.83 113C105.396 113.012 104.01 113.514 102.902 114.424C101.793 115.334 101.031 116.596 100.74 118C100.689 118.244 100.55 118.46 100.348 118.606C100.146 118.752 99.8976 118.818 99.6502 118.79C99.4602 118.79 99.2602 118.79 99.0702 118.79C98.2142 118.793 97.3723 119.008 96.6201 119.417C95.8678 119.825 95.2287 120.414 94.7602 121.13C94.6423 121.31 94.4697 121.447 94.268 121.52C94.0663 121.594 93.8461 121.601 93.6402 121.54C93.3385 121.432 93.0204 121.378 92.7002 121.38C92.1113 121.378 91.533 121.536 91.0274 121.838C90.5217 122.139 90.1078 122.573 89.8302 123.092C89.5526 123.612 89.4217 124.197 89.4516 124.785C89.4816 125.373 89.6712 125.942 90.0002 126.43C90.1033 126.579 90.1642 126.752 90.1764 126.933C90.1886 127.113 90.1518 127.293 90.0697 127.454C89.9876 127.615 89.8634 127.751 89.7103 127.847C89.5572 127.943 89.3809 127.996 89.2002 128Z" fill="black"/>
<path d="M89.8298 17.3C87.9565 16.6459 86.0466 16.1016 84.1098 15.67C82.8998 6.83 74.1998 0 63.9998 0H63.8998C53.6398 0 45.1198 6.71 43.8998 15.58C33.6398 17.79 27.6698 21.79 27.6998 27C27.6998 29.24 29.6098 31.26 33.3398 33C35.2298 35.51 40.7398 37 45.5098 37.9H45.6898C45.955 37.9239 46.2189 37.8414 46.4233 37.6707C46.6277 37.5001 46.7559 37.2552 46.7798 36.99C46.8037 36.7248 46.7212 36.4609 46.5506 36.2565C46.3799 36.0521 46.135 35.9239 45.8698 35.9C38.1798 34.49 34.6698 32.42 34.6598 31.09C34.6598 29.09 37.3298 27.09 41.9998 25.69C47.3598 24.05 54.9998 23.16 63.9998 23.12C83.1298 23.03 93.3798 27.54 93.3898 30.83C93.3898 32.18 89.8298 34.3 81.9998 35.83C81.7346 35.8791 81.4997 36.0315 81.3469 36.2537C81.194 36.4759 81.1357 36.7498 81.1848 37.015C81.2339 37.2802 81.3863 37.5151 81.6085 37.6679C81.8308 37.8208 82.1046 37.8791 82.3698 37.83C87.2498 36.91 92.8798 35.32 94.7498 32.75H94.8298C98.4798 30.97 100.33 28.95 100.32 26.75C100.29 23 96.5698 19.7 89.8298 17.3ZM88.1198 21.57C88.3973 21.3976 88.726 21.3269 89.0498 21.37C90.3008 21.4229 91.5269 21.7363 92.6498 22.29C95.0898 23.42 96.1898 24.87 96.1398 25.29C95.8698 25.59 94.0498 25.69 91.6098 24.56C89.1698 23.43 88.0498 21.93 88.1198 21.57ZM89.7598 19.41C88.1598 19.26 86.8198 19.62 86.3098 20.73C86.0598 21.27 85.8498 22.41 87.3098 23.93L87.5098 24.12C82.5898 22.44 75.6698 21.37 67.5098 21.12L67.9498 20.98C69.9498 20.19 70.2798 19.06 70.2798 18.45C70.2798 17.84 69.9998 16.76 67.9198 16C67.6314 15.8947 67.3377 15.8046 67.0398 15.73C75.5698 15.93 83.3598 17.15 89.1598 19.21L89.7598 19.41ZM63.5398 17.28C66.4398 17.28 68.0698 18.13 68.2598 18.5C68.0698 18.87 66.4198 19.75 63.4798 19.76H63.4098C60.4098 19.76 58.7998 18.86 58.6698 18.57C58.7898 18.22 60.4498 17.3 63.4598 17.28H63.5398ZM63.8898 2C72.8898 2 80.5798 7.69 82.0098 15.23C76.2153 14.158 70.3325 13.6357 64.4398 13.67H63.9398C57.908 13.6445 51.8854 14.1431 45.9398 15.16C47.3998 7.63 54.8898 2 63.8898 2ZM35.3298 24.79C32.8998 25.94 31.0798 25.85 30.8098 25.56C30.7598 25.17 31.8098 23.7 34.2698 22.56C36.7298 21.42 38.5598 21.5 38.7898 21.78C38.8698 22.15 37.7898 23.64 35.3298 24.79ZM29.7398 27.24C30.3423 27.6008 31.0384 27.7748 31.7398 27.74H32.0598C32.9183 27.6791 33.7653 27.5077 34.5798 27.23C33.6142 28.0349 32.9541 29.1469 32.7098 30.38C30.9998 29.34 29.9198 28.26 29.7398 27.25V27.24ZM41.4198 23.77C40.6498 24.01 39.9598 24.25 39.3098 24.5C40.5098 23.35 41.1398 22.06 40.6098 20.92C40.3598 20.38 39.6098 19.49 37.5398 19.6H37.2198C42.1698 17.6 49.6198 16.07 59.8098 15.72C59.5298 15.8 59.2498 15.88 58.9998 15.98C56.9998 16.77 56.6698 17.9 56.6698 18.51C56.6698 19.8 57.8598 20.67 59.4998 21.18C53.3891 21.2905 47.3158 22.1605 41.4198 23.77ZM95.2898 30.1C95.0074 28.9732 94.3605 27.9712 93.4498 27.25C93.9265 27.36 94.4115 27.4302 94.8998 27.46H95.1698C97.0398 27.46 97.7198 26.62 97.9598 26.1C98.0384 25.9284 98.0922 25.7466 98.1198 25.56C98.2393 25.9044 98.3034 26.2655 98.3098 26.63C98.3098 27.74 97.2398 28.95 95.2898 30.11V30.1Z" fill="black"/>
<path d="M74.1898 34.6898C70.8611 35.5384 67.4345 35.9419 63.9998 35.8898C60.4671 35.9765 56.9397 35.5692 53.5198 34.6798C53.3944 34.6404 53.2624 34.6261 53.1315 34.6377C53.0005 34.6493 52.8731 34.6866 52.7566 34.7474C52.6401 34.8082 52.5367 34.8914 52.4523 34.9922C52.3679 35.093 52.3042 35.2094 52.2648 35.3348C52.2254 35.4602 52.2111 35.5922 52.2227 35.7231C52.2342 35.854 52.2715 35.9814 52.3323 36.098C52.3932 36.2145 52.4763 36.3179 52.5771 36.4023C52.6779 36.4867 52.7943 36.5504 52.9198 36.5898C56.4508 37.5294 60.0966 37.967 63.7498 37.8898H64.0098C67.6206 37.9383 71.222 37.5079 74.7198 36.6098C74.8458 36.5724 74.9633 36.5105 75.0654 36.4277C75.1676 36.3448 75.2524 36.2427 75.3151 36.1271C75.3778 36.0115 75.4171 35.8847 75.4308 35.7539C75.4444 35.6231 75.4322 35.4909 75.3948 35.3648C75.3573 35.2387 75.2954 35.1213 75.2126 35.0191C75.1298 34.917 75.0277 34.8321 74.9121 34.7695C74.7965 34.7068 74.6696 34.6675 74.5388 34.6538C74.408 34.6401 74.2758 34.6524 74.1498 34.6898H74.1898Z" fill="black"/>
<path d="M78.5901 33.21C78.3901 31.9 76.8601 30.9 73.8701 30.21C70.6325 29.5008 67.3242 29.1652 64.0101 29.21C58.8101 29.21 50.1701 30.12 49.5001 33.21L32.8801 102.69C32.8488 102.818 32.8432 102.951 32.8635 103.081C32.8838 103.212 32.9297 103.336 32.9985 103.449C33.0672 103.561 33.1576 103.659 33.2642 103.737C33.3709 103.814 33.4919 103.87 33.6201 103.9H33.8501C34.0799 103.906 34.3048 103.833 34.4869 103.693C34.669 103.552 34.7973 103.354 34.8501 103.13L51.4801 33.63C51.9301 32.79 56.4801 31.27 64.0501 31.24H64.3001C71.6301 31.24 76.1001 32.66 76.6101 33.45L96.3901 114.45C96.4448 114.672 96.5739 114.868 96.7559 115.007C96.9378 115.145 97.1617 115.217 97.3901 115.21H97.6301C97.8872 115.146 98.1086 114.983 98.2454 114.756C98.3823 114.529 98.4235 114.257 98.3601 114L78.5901 33.21Z" fill="black"/>
<path d="M103.83 92.4895C103.314 92.4895 102.809 92.3365 102.38 92.0497C101.951 91.7629 101.616 91.3553 101.419 90.8783C101.221 90.4014 101.17 89.8766 101.27 89.3703C101.371 88.8641 101.62 88.399 101.985 88.034C102.35 87.669 102.815 87.4204 103.321 87.3197C103.827 87.219 104.352 87.2707 104.829 87.4682C105.306 87.6657 105.714 88.0003 106 88.4295C106.287 88.8587 106.44 89.3633 106.44 89.8795C106.438 90.5709 106.162 91.2333 105.673 91.7222C105.184 92.2111 104.522 92.4869 103.83 92.4895ZM103.83 89.2595C103.71 89.2595 103.592 89.2953 103.491 89.3623C103.391 89.4294 103.313 89.5246 103.267 89.6361C103.22 89.7476 103.208 89.8702 103.232 89.9885C103.255 90.1069 103.314 90.2156 103.399 90.3009C103.484 90.3862 103.593 90.4443 103.711 90.4678C103.83 90.4913 103.952 90.4793 104.064 90.4331C104.175 90.3869 104.27 90.3087 104.337 90.2084C104.404 90.1081 104.44 89.9902 104.44 89.8695C104.44 89.7078 104.376 89.5526 104.262 89.4382C104.147 89.3238 103.992 89.2595 103.83 89.2595Z" fill="black"/>
<path d="M16.0499 50.51C15.5337 50.51 15.0291 50.357 14.5999 50.0702C14.1707 49.7834 13.8362 49.3758 13.6386 48.8988C13.4411 48.4219 13.3894 47.8971 13.4901 47.3909C13.5908 46.8846 13.8394 46.4195 14.2044 46.0545C14.5694 45.6895 15.0345 45.4409 15.5408 45.3402C16.047 45.2395 16.5718 45.2912 17.0487 45.4887C17.5257 45.6863 17.9333 46.0208 18.2201 46.45C18.5069 46.8792 18.6599 47.3838 18.6599 47.9C18.6573 48.5914 18.3815 49.2538 17.8926 49.7427C17.4037 50.2316 16.7413 50.5074 16.0499 50.51ZM16.0499 47.28C15.9293 47.28 15.8114 47.3158 15.711 47.3828C15.6107 47.4499 15.5325 47.5451 15.4864 47.6566C15.4402 47.7681 15.4281 47.8907 15.4517 48.009C15.4752 48.1274 15.5333 48.2361 15.6186 48.3214C15.7039 48.4067 15.8126 48.4648 15.9309 48.4883C16.0493 48.5119 16.1719 48.4998 16.2834 48.4536C16.3948 48.4074 16.4901 48.3293 16.5571 48.2289C16.6242 48.1286 16.6599 48.0107 16.6599 47.89C16.6573 47.73 16.5919 47.5774 16.4778 47.4652C16.3637 47.3529 16.21 47.29 16.0499 47.29V47.28Z" fill="black"/>
<path d="M122.2 41.6195C121.956 41.6216 121.719 41.5343 121.535 41.374C121.351 41.2137 121.232 40.9916 121.2 40.7495C120.98 39.1295 120.65 37.1895 120.45 36.4795C119.384 36.1815 118.302 35.9411 117.21 35.7595C116.945 35.7595 116.69 35.6542 116.503 35.4666C116.315 35.2791 116.21 35.0247 116.21 34.7595C116.21 34.4943 116.315 34.24 116.503 34.0524C116.69 33.8649 116.945 33.7595 117.21 33.7595C118.302 33.578 119.384 33.3376 120.45 33.0395C120.65 32.3395 120.98 30.3995 121.2 28.7695C121.2 28.5043 121.305 28.25 121.493 28.0624C121.68 27.8749 121.935 27.7695 122.2 27.7695C122.465 27.7695 122.72 27.8749 122.907 28.0624C123.095 28.25 123.2 28.5043 123.2 28.7695C123.42 30.3995 123.75 32.3295 123.95 33.0395C125.016 33.3374 126.098 33.5777 127.19 33.7595C127.455 33.7595 127.71 33.8649 127.897 34.0524C128.085 34.24 128.19 34.4943 128.19 34.7595C128.19 35.0247 128.085 35.2791 127.897 35.4666C127.71 35.6542 127.455 35.7595 127.19 35.7595C126.098 35.9411 125.016 36.1815 123.95 36.4795C123.75 37.1795 123.42 39.1195 123.2 40.7495C123.168 40.9916 123.049 41.2137 122.865 41.374C122.681 41.5343 122.444 41.6216 122.2 41.6195ZM121.56 34.7895C121.702 34.8513 121.831 34.9395 121.94 35.0495C122.053 35.1595 122.142 35.2925 122.2 35.4395C122.258 35.2924 122.346 35.1593 122.46 35.0495C122.569 34.9395 122.698 34.8513 122.84 34.7895C122.698 34.7278 122.569 34.6395 122.46 34.5295C122.346 34.4197 122.258 34.2867 122.2 34.1395C122.142 34.2867 122.054 34.4197 121.94 34.5295C121.83 34.6359 121.701 34.7208 121.56 34.7795V34.7895Z" fill="black"/>
<path d="M8.09006 17.4598C7.85037 17.4629 7.61754 17.3798 7.434 17.2256C7.25045 17.0715 7.12839 16.8565 7.09006 16.6198C6.82239 14.7223 6.42818 12.8448 5.91006 10.9998C4.24467 10.4431 2.53989 10.0118 0.810059 9.70984C0.544842 9.70984 0.290488 9.60449 0.102952 9.41695C-0.0845845 9.22941 -0.189941 8.97506 -0.189941 8.70984C-0.189941 8.44463 -0.0845845 8.19027 0.102952 8.00274C0.290488 7.8152 0.544842 7.70984 0.810059 7.70984C2.53975 7.41166 4.24456 6.98379 5.91006 6.42984C6.43095 4.59513 6.8285 2.72763 7.10006 0.839844C7.10006 0.574627 7.20542 0.320273 7.39295 0.132737C7.58049 -0.0547994 7.83484 -0.160156 8.10006 -0.160156C8.36528 -0.160156 8.61963 -0.0547994 8.80717 0.132737C8.9947 0.320273 9.10006 0.574627 9.10006 0.839844C9.36968 2.74113 9.76725 4.62207 10.2901 6.46984C11.9556 7.02379 13.6604 7.45166 15.3901 7.74984C15.6553 7.74984 15.9096 7.8552 16.0972 8.04274C16.2847 8.23027 16.3901 8.48463 16.3901 8.74984C16.3901 9.01506 16.2847 9.26941 16.0972 9.45695C15.9096 9.64449 15.6553 9.74984 15.3901 9.74984C13.6545 10.0378 11.943 10.4557 10.2701 10.9998C9.74813 12.8478 9.35057 14.7287 9.08006 16.6298C9.03985 16.8629 8.91833 17.0742 8.73708 17.2262C8.55583 17.3781 8.32658 17.4609 8.09006 17.4598ZM5.46006 8.72984C7.02006 9.18984 7.29006 9.47984 7.40006 9.60984C7.51006 9.73984 7.73006 9.96984 8.09006 11.3098C8.45006 9.96984 8.68006 9.71984 8.78006 9.60984C8.88006 9.49984 9.17006 9.18984 10.7201 8.72984C9.17006 8.26984 8.90006 7.99984 8.78006 7.84984C8.66006 7.69984 8.45006 7.48984 8.09006 6.14984C7.73006 7.48984 7.50006 7.73984 7.40006 7.84984C7.30006 7.95984 7.00006 8.26984 5.46006 8.72984Z" fill="black"/>
<path d="M98.8302 12.4895C98.314 12.4895 97.8094 12.3365 97.3802 12.0497C96.951 11.7629 96.6164 11.3553 96.4189 10.8783C96.2213 10.4014 96.1697 9.87664 96.2704 9.37035C96.3711 8.86406 96.6197 8.399 96.9847 8.03398C97.3497 7.66897 97.8147 7.42039 98.321 7.31968C98.8273 7.21898 99.3521 7.27066 99.829 7.46821C100.306 7.66575 100.714 8.00028 101 8.42949C101.287 8.85871 101.44 9.36332 101.44 9.87953C101.438 10.5709 101.162 11.2333 100.673 11.7222C100.184 12.2111 99.5216 12.4869 98.8302 12.4895ZM98.8302 9.25953C98.7096 9.25953 98.5916 9.29531 98.4913 9.36234C98.391 9.42936 98.3128 9.52463 98.2667 9.6361C98.2205 9.74756 98.2084 9.87021 98.2319 9.98854C98.2555 10.1069 98.3136 10.2156 98.3989 10.3009C98.4842 10.3862 98.5929 10.4443 98.7112 10.4678C98.8295 10.4913 98.9522 10.4793 99.0637 10.4331C99.1751 10.3869 99.2704 10.3087 99.3374 10.2084C99.4044 10.1081 99.4402 9.99018 99.4402 9.86953C99.4402 9.70775 99.376 9.55259 99.2616 9.4382C99.1472 9.3238 98.992 9.25953 98.8302 9.25953Z" fill="black"/>
</g>
<defs>
<clipPath id="clip0">
<rect width="128" height="160" fill="white"/>
</clipPath>
</defs>
</svg>
