<svg width="1920" height="1080" viewBox="0 0 1920 1080" fill="none" xmlns="http://www.w3.org/2000/svg">
<g clip-path="url(#clip0)">
<rect width="1920" height="1080" fill="#020D1C"/>
<circle cx="1586.17" cy="790.172" r="53.7506" fill="white"/>
<path d="M1639.92 792.378C1635.28 791.15 1630.42 790.494 1625.4 790.494C1595.53 790.494 1571 812.438 1568.08 840.796C1573.74 842.82 1579.84 843.923 1586.2 843.923C1615.15 843.923 1638.76 821.041 1639.92 792.378Z" fill="#FEDA00"/>
<path d="M1560.26 837.268C1561.4 836.786 1562.42 836.304 1563.34 835.844C1561.26 835.557 1558.27 835.019 1555 833.958C1556.68 835.158 1558.44 836.264 1560.26 837.268Z" fill="#FEDA00"/>
<path d="M1540.38 818.321C1535.33 810.135 1532.42 800.493 1532.42 790.172C1532.42 760.486 1556.5 736.421 1586.2 736.421C1603.74 736.421 1619.33 744.824 1629.14 757.823C1620.98 765.586 1620.52 777.529 1620.72 783.011C1616.74 778.022 1610.88 768.499 1609.47 754.441C1598.23 764.871 1601.98 780.063 1604.09 786.413C1598.7 782.558 1590.74 775.075 1585.12 761.923C1577.15 774.848 1585.12 788.68 1588.86 794.122C1582.78 791.854 1572.7 786.866 1563.8 775.528C1559.82 790.04 1571.3 801.151 1576.45 805.459C1569.89 805.006 1558.89 802.738 1547.18 794.349C1547.64 809.314 1561.7 817.024 1567.79 819.745C1562.08 820.972 1552.37 821.831 1540.38 818.321Z" fill="#FEDA00"/>
<path d="M1633.98 765.506C1636.29 769.963 1637.99 774.782 1638.98 779.858C1638.35 781.586 1637.9 783.141 1637.58 784.372C1635.94 780.253 1634.08 773.81 1633.98 765.506Z" fill="#FEDA00"/>
<circle cx="1585.5" cy="789.5" r="102.126" stroke="#757575" stroke-opacity="0.9" stroke-width="1.34376"/>
<circle cx="1585.5" cy="789.5" r="240.534" stroke="#757575" stroke-opacity="0.75" stroke-width="1.34376"/>
<circle cx="1585.5" cy="789.5" r="405.817" stroke="#757575" stroke-opacity="0.6" stroke-width="1.34376"/>
<circle cx="1585.5" cy="789.5" r="858.665" stroke="#757575" stroke-opacity="0.55" stroke-width="1.34376"/>
<circle cx="1585.5" cy="789.5" r="1480.83" stroke="#757575" stroke-opacity="0.5" stroke-width="1.34376"/>
<circle cx="1585.5" cy="789.5" r="133.033" stroke="#757575" stroke-opacity="0.85" stroke-width="1.34376"/>
<circle cx="1662.77" cy="722.984" r="8.06259" fill="#8E8E8E"/>
<circle cx="1586.17" cy="655.795" r="10.7501" fill="#8E8E8E"/>
<circle cx="1345.64" cy="818.391" r="14.7814" fill="#686868"/>
<circle cx="1239.48" cy="577.857" r="12.0939" fill="#52565A"/>
<circle cx="739.6" cy="940.673" r="20.1565" fill="#474B51"/>
<circle cx="641.983" cy="642.837" r="1.34376" transform="rotate(28.6273 641.983 642.837)" fill="#C4C4C4" fill-opacity="0.7"/>
<circle cx="578.519" cy="840.909" r="1.34376" transform="rotate(-7.84699 578.519 840.909)" fill="#C4C4C4" fill-opacity="0.7"/>
<circle cx="630.058" cy="828.055" r="0.671882" transform="rotate(-7.84699 630.058 828.055)" fill="#C4C4C4" fill-opacity="0.7"/>
<circle cx="686.607" cy="739.866" r="0.671882" transform="rotate(-7.84699 686.607 739.866)" fill="#C4C4C4" fill-opacity="0.7"/>
<circle cx="674.591" cy="777.155" r="0.671882" transform="rotate(-7.84699 674.591 777.155)" fill="#C4C4C4" fill-opacity="0.7"/>
<circle cx="216.289" cy="682.085" r="0.671882" transform="rotate(-7.84699 216.289 682.085)" fill="#C4C4C4" fill-opacity="0.8"/>
<circle cx="594.118" cy="736.805" r="0.671882" transform="rotate(-7.84699 594.118 736.805)" fill="#C4C4C4" fill-opacity="0.7"/>
<circle cx="562.98" cy="692.835" r="0.671882" transform="rotate(-7.84699 562.98 692.835)" fill="#C4C4C4" fill-opacity="0.7"/>
<circle cx="678.544" cy="835.274" r="0.671882" transform="rotate(-7.84699 678.544 835.274)" fill="#C4C4C4" fill-opacity="0.7"/>
<circle cx="678.544" cy="700.897" r="0.671882" transform="rotate(-7.84699 678.544 700.897)" fill="#C4C4C4" fill-opacity="0.7"/>
<circle cx="631.512" cy="695.043" r="0.671882" transform="rotate(-7.84699 631.512 695.043)" fill="#C4C4C4" fill-opacity="0.7"/>
<circle cx="593.887" cy="663.389" r="0.671882" transform="rotate(-7.84699 593.887 663.389)" fill="#C4C4C4" fill-opacity="0.7"/>
<circle cx="693.976" cy="661.895" r="0.671882" transform="rotate(-7.84699 693.976 661.895)" fill="#C4C4C4" fill-opacity="0.7"/>
<circle cx="673.137" cy="648.49" r="0.671882" transform="rotate(-7.84699 673.137 648.49)" fill="#C4C4C4" fill-opacity="0.7"/>
<circle cx="642.099" cy="785.342" r="0.671882" transform="rotate(-7.84699 642.099 785.342)" fill="#C4C4C4" fill-opacity="0.7"/>
<circle cx="544.167" cy="760.023" r="0.671882" transform="rotate(-7.84699 544.167 760.023)" fill="#C4C4C4" fill-opacity="0.7"/>
<circle cx="592.229" cy="797.649" r="0.671882" transform="rotate(-7.84699 592.229 797.649)" fill="#C4C4C4" fill-opacity="0.7"/>
<circle cx="583.136" cy="628.334" r="0.671882" transform="rotate(-7.84699 583.136 628.334)" fill="#C4C4C4" fill-opacity="0.7"/>
<circle cx="616.144" cy="771.531" r="1.34376" transform="rotate(-7.84699 616.144 771.531)" fill="#C4C4C4" fill-opacity="0.7"/>
<circle cx="514.019" cy="556.528" r="1.34376" transform="rotate(-7.84699 514.019 556.528)" fill="#C4C4C4" fill-opacity="0.7"/>
<circle cx="600.019" cy="694.936" r="1.34376" transform="rotate(-7.84699 600.019 694.936)" fill="#C4C4C4" fill-opacity="0.7"/>
<circle cx="608.198" cy="870.623" r="1.34376" transform="rotate(5.63056 608.198 870.623)" fill="#C4C4C4" fill-opacity="0.7"/>
<circle cx="627.16" cy="1077.75" r="1.34376" transform="rotate(-30.8438 627.16 1077.75)" fill="#C4C4C4" fill-opacity="0.7"/>
<circle cx="669.585" cy="1045.78" r="0.671882" transform="rotate(-30.8438 669.585 1045.78)" fill="#C4C4C4" fill-opacity="0.7"/>
<circle cx="687.185" cy="942.508" r="0.671882" transform="rotate(-30.8438 687.185 942.508)" fill="#C4C4C4" fill-opacity="0.7"/>
<circle cx="690.691" cy="981.527" r="0.671882" transform="rotate(-30.8438 690.691 981.527)" fill="#C4C4C4" fill-opacity="0.7"/>
<circle cx="578.23" cy="1067.58" r="0.671882" transform="rotate(-30.8438 578.23 1067.58)" fill="#C4C4C4" fill-opacity="0.7"/>
<circle cx="600.849" cy="975.822" r="0.671882" transform="rotate(-30.8438 600.849 975.822)" fill="#C4C4C4" fill-opacity="0.7"/>
<circle cx="555.007" cy="947.512" r="0.671882" transform="rotate(-30.8438 555.007 947.512)" fill="#C4C4C4" fill-opacity="0.7"/>
<circle cx="717.037" cy="1033.48" r="0.671882" transform="rotate(-30.8438 717.037 1033.48)" fill="#C4C4C4" fill-opacity="0.7"/>
<circle cx="664.535" cy="909.785" r="0.671882" transform="rotate(-30.8438 664.535 909.785)" fill="#C4C4C4" fill-opacity="0.7"/>
<circle cx="618.957" cy="922.772" r="0.671882" transform="rotate(-30.8438 618.957 922.772)" fill="#C4C4C4" fill-opacity="0.7"/>
<circle cx="536.268" cy="920.094" r="0.671882" transform="rotate(-30.8438 536.268 920.094)" fill="#C4C4C4" fill-opacity="0.7"/>
<circle cx="663.501" cy="867.856" r="0.671882" transform="rotate(-30.8438 663.501 867.856)" fill="#C4C4C4" fill-opacity="0.7"/>
<circle cx="639.082" cy="863.657" r="0.671882" transform="rotate(-30.8438 639.082 863.657)" fill="#C4C4C4" fill-opacity="0.7"/>
<circle cx="563.936" cy="1016.71" r="0.671882" transform="rotate(-30.8438 563.936 1016.71)" fill="#C4C4C4" fill-opacity="0.7"/>
<circle cx="622.879" cy="1032.57" r="0.671882" transform="rotate(-30.8438 622.879 1032.57)" fill="#C4C4C4" fill-opacity="0.7"/>
<circle cx="548.362" cy="880.263" r="0.671882" transform="rotate(-30.8438 548.362 880.263)" fill="#C4C4C4" fill-opacity="0.7"/>
<circle cx="634.692" cy="999.184" r="1.34376" transform="rotate(-30.8438 634.692 999.184)" fill="#C4C4C4" fill-opacity="0.7"/>
<circle cx="660.801" cy="948.509" r="1.34376" transform="rotate(-30.8438 660.801 948.509)" fill="#C4C4C4" fill-opacity="0.7"/>
<circle cx="589.923" cy="934.976" r="1.34376" transform="rotate(-30.8438 589.923 934.976)" fill="#C4C4C4" fill-opacity="0.7"/>
<circle cx="418.727" cy="874.654" r="1.34376" transform="rotate(5.63056 418.727 874.654)" fill="#C4C4C4" fill-opacity="0.7"/>
<circle cx="437.688" cy="1081.78" r="1.34376" transform="rotate(-30.8438 437.688 1081.78)" fill="#C4C4C4" fill-opacity="0.7"/>
<circle cx="512.081" cy="1075.97" r="0.671882" transform="rotate(-30.8438 512.081 1075.97)" fill="#C4C4C4" fill-opacity="0.7"/>
<circle cx="497.714" cy="946.539" r="0.671882" transform="rotate(-30.8438 497.714 946.539)" fill="#C4C4C4" fill-opacity="0.7"/>
<circle cx="529.55" cy="977.876" r="0.671882" transform="rotate(-30.8438 529.55 977.876)" fill="#C4C4C4" fill-opacity="0.7"/>
<circle cx="388.759" cy="1071.61" r="0.671882" transform="rotate(-30.8438 388.759 1071.61)" fill="#C4C4C4" fill-opacity="0.7"/>
<circle cx="375.017" cy="1024.91" r="0.671882" transform="rotate(-30.8438 375.017 1024.91)" fill="#C4C4C4" fill-opacity="0.7"/>
<circle cx="217.797" cy="1038.35" r="0.671882" transform="rotate(-30.8438 217.797 1038.35)" fill="#C4C4C4" fill-opacity="0.8"/>
<circle cx="527.565" cy="1037.51" r="0.671882" transform="rotate(-30.8438 527.565 1037.51)" fill="#C4C4C4" fill-opacity="0.7"/>
<circle cx="495.956" cy="906.657" r="0.671882" transform="rotate(-30.8438 495.956 906.657)" fill="#C4C4C4" fill-opacity="0.7"/>
<circle cx="429.486" cy="926.803" r="0.671882" transform="rotate(-30.8438 429.486 926.803)" fill="#C4C4C4" fill-opacity="0.7"/>
<circle cx="243.328" cy="928.157" r="0.671882" transform="rotate(-30.8438 243.328 928.157)" fill="#C4C4C4" fill-opacity="0.8"/>
<circle cx="474.03" cy="871.887" r="0.671882" transform="rotate(-30.8438 474.03 871.887)" fill="#C4C4C4" fill-opacity="0.7"/>
<circle cx="508.05" cy="850.219" r="0.671882" transform="rotate(-30.8438 508.05 850.219)" fill="#C4C4C4" fill-opacity="0.7"/>
<circle cx="434.143" cy="983.252" r="0.671882" transform="rotate(-30.8438 434.143 983.252)" fill="#C4C4C4" fill-opacity="0.7"/>
<circle cx="319.923" cy="981.907" r="0.671882" transform="rotate(-30.8438 319.923 981.907)" fill="#C4C4C4" fill-opacity="0.8"/>
<circle cx="433.408" cy="1036.6" r="0.671882" transform="rotate(-30.8438 433.408 1036.6)" fill="#C4C4C4" fill-opacity="0.7"/>
<circle cx="358.892" cy="884.294" r="0.671882" transform="rotate(-30.8438 358.892 884.294)" fill="#C4C4C4" fill-opacity="0.7"/>
<circle cx="480.752" cy="1047.33" r="1.34376" transform="rotate(-30.8438 480.752 1047.33)" fill="#C4C4C4" fill-opacity="0.7"/>
<circle cx="471.33" cy="952.54" r="1.34376" transform="rotate(-30.8438 471.33 952.54)" fill="#C4C4C4" fill-opacity="0.7"/>
<circle cx="373.25" cy="939.829" r="1.34376" transform="rotate(-30.8438 373.25 939.829)" fill="#C4C4C4" fill-opacity="0.7"/>
<circle cx="428.134" cy="640.839" r="1.34376" transform="rotate(5.63056 428.134 640.839)" fill="#C4C4C4" fill-opacity="0.7"/>
<circle cx="535.846" cy="828.296" r="1.34376" transform="rotate(-30.8438 535.846 828.296)" fill="#C4C4C4" fill-opacity="0.7"/>
<circle cx="489.521" cy="815.995" r="0.671882" transform="rotate(-30.8438 489.521 815.995)" fill="#C4C4C4" fill-opacity="0.7"/>
<circle cx="507.121" cy="712.725" r="0.671882" transform="rotate(-30.8438 507.121 712.725)" fill="#C4C4C4" fill-opacity="0.7"/>
<circle cx="450.268" cy="796.468" r="0.671882" transform="rotate(-30.8438 450.268 796.468)" fill="#C4C4C4" fill-opacity="0.7"/>
<circle cx="398.165" cy="837.793" r="0.671882" transform="rotate(-30.8438 398.165 837.793)" fill="#C4C4C4" fill-opacity="0.7"/>
<circle cx="420.784" cy="746.039" r="0.671882" transform="rotate(-30.8438 420.784 746.039)" fill="#C4C4C4" fill-opacity="0.7"/>
<circle cx="556.425" cy="449.777" r="0.671882" transform="rotate(-30.8438 556.425 449.777)" fill="#C4C4C4" fill-opacity="0.7"/>
<circle cx="536.973" cy="803.699" r="0.671882" transform="rotate(-30.8438 536.973 803.699)" fill="#C4C4C4" fill-opacity="0.7"/>
<circle cx="484.471" cy="680.002" r="0.671882" transform="rotate(-30.8438 484.471 680.002)" fill="#C4C4C4" fill-opacity="0.7"/>
<circle cx="321.267" cy="692.998" r="0.671882" transform="rotate(-30.8438 321.267 692.998)" fill="#C4C4C4" fill-opacity="0.8"/>
<circle cx="310.516" cy="525.028" r="0.671882" transform="rotate(-30.8438 310.516 525.028)" fill="#C4C4C4" fill-opacity="0.8"/>
<circle cx="483.437" cy="638.072" r="0.671882" transform="rotate(-30.8438 483.437 638.072)" fill="#C4C4C4" fill-opacity="0.7"/>
<circle cx="400.548" cy="549.215" r="0.671882" transform="rotate(-30.8438 400.548 549.215)" fill="#C4C4C4" fill-opacity="0.7"/>
<circle cx="483.919" cy="771.972" r="0.671882" transform="rotate(-30.8438 483.919 771.972)" fill="#C4C4C4" fill-opacity="0.7"/>
<circle cx="260.797" cy="784.374" r="0.671882" transform="rotate(-30.8438 260.797 784.374)" fill="#C4C4C4" fill-opacity="0.8"/>
<circle cx="365.611" cy="784.374" r="0.671882" transform="rotate(-30.8438 365.611 784.374)" fill="#C4C4C4" fill-opacity="0.7"/>
<circle cx="368.298" cy="650.479" r="0.671882" transform="rotate(-30.8438 368.298 650.479)" fill="#C4C4C4" fill-opacity="0.7"/>
<circle cx="454.628" cy="769.4" r="1.34376" transform="rotate(-30.8438 454.628 769.4)" fill="#C4C4C4" fill-opacity="0.7"/>
<circle cx="543.909" cy="638.825" r="1.34376" transform="rotate(-30.8438 543.909 638.825)" fill="#C4C4C4" fill-opacity="0.7"/>
<circle cx="409.858" cy="705.193" r="1.34376" transform="rotate(-30.8438 409.858 705.193)" fill="#C4C4C4" fill-opacity="0.7"/>
<circle cx="707.797" cy="402.201" r="1.34376" transform="rotate(35.2465 707.797 402.201)" fill="#C4C4C4" fill-opacity="0.7"/>
<circle cx="621.923" cy="591.636" r="1.34376" transform="rotate(-1.22779 621.923 591.636)" fill="#C4C4C4" fill-opacity="0.7"/>
<circle cx="674.603" cy="584.808" r="0.671882" transform="rotate(-1.22779 674.603 584.808)" fill="#C4C4C4" fill-opacity="0.7"/>
<circle cx="740.936" cy="503.726" r="0.671882" transform="rotate(-1.22779 740.936 503.726)" fill="#C4C4C4" fill-opacity="0.7"/>
<circle cx="724.701" cy="539.38" r="0.671882" transform="rotate(-1.22779 724.701 539.38)" fill="#C4C4C4" fill-opacity="0.7"/>
<circle cx="584.409" cy="558.613" r="0.671882" transform="rotate(-1.22779 584.409 558.613)" fill="#C4C4C4" fill-opacity="0.7"/>
<circle cx="649.419" cy="490.023" r="0.671882" transform="rotate(-1.22779 649.419 490.023)" fill="#C4C4C4" fill-opacity="0.7"/>
<circle cx="623.557" cy="442.757" r="0.671882" transform="rotate(-1.22779 623.557 442.757)" fill="#C4C4C4" fill-opacity="0.7"/>
<circle cx="721.93" cy="597.567" r="0.671882" transform="rotate(-1.22779 721.93 597.567)" fill="#C4C4C4" fill-opacity="0.7"/>
<circle cx="470.19" cy="497.917" r="0.671882" transform="rotate(-1.22779 470.19 497.917)" fill="#C4C4C4" fill-opacity="0.7"/>
<circle cx="720.129" cy="457.604" r="0.671882" transform="rotate(-1.22779 720.129 457.604)" fill="#C4C4C4" fill-opacity="0.7"/>
<circle cx="657.649" cy="417.071" r="0.671882" transform="rotate(-1.22779 657.649 417.071)" fill="#C4C4C4" fill-opacity="0.7"/>
<circle cx="757.24" cy="427.124" r="0.671882" transform="rotate(-1.22779 757.24 427.124)" fill="#C4C4C4" fill-opacity="0.7"/>
<circle cx="799.411" cy="379.666" r="0.671882" transform="rotate(-1.22779 799.411 379.666)" fill="#C4C4C4" fill-opacity="0.7"/>
<circle cx="691.485" cy="543.768" r="0.671882" transform="rotate(-1.22779 691.485 543.768)" fill="#C4C4C4" fill-opacity="0.7"/>
<circle cx="597.122" cy="507.329" r="0.671882" transform="rotate(-1.22779 597.122 507.329)" fill="#C4C4C4" fill-opacity="0.7"/>
<circle cx="640.526" cy="550.243" r="0.671882" transform="rotate(-1.22779 640.526 550.243)" fill="#C4C4C4" fill-opacity="0.7"/>
<circle cx="651.015" cy="381.01" r="0.671882" transform="rotate(-1.22779 651.015 381.01)" fill="#C4C4C4" fill-opacity="0.7"/>
<circle cx="667.296" cy="527.056" r="1.34376" transform="rotate(-1.22779 667.296 527.056)" fill="#C4C4C4" fill-opacity="0.7"/>
<circle cx="715.036" cy="495.904" r="1.34376" transform="rotate(-1.22779 715.036 495.904)" fill="#C4C4C4" fill-opacity="0.7"/>
<circle cx="660.105" cy="449.114" r="1.34376" transform="rotate(-1.22779 660.105 449.114)" fill="#C4C4C4" fill-opacity="0.7"/>
<circle cx="970.245" cy="62.6475" r="1.34376" transform="rotate(65.4992 970.245 62.6475)" fill="#C4C4C4" fill-opacity="0.7"/>
<circle cx="849.567" cy="203.661" r="0.671882" transform="rotate(29.0249 849.567 203.661)" fill="#C4C4C4" fill-opacity="0.7"/>
<circle cx="947.72" cy="167.041" r="0.671882" transform="rotate(29.0249 947.72 167.041)" fill="#C4C4C4" fill-opacity="0.7"/>
<circle cx="915.731" cy="189.662" r="0.671882" transform="rotate(29.0249 915.731 189.662)" fill="#C4C4C4" fill-opacity="0.7"/>
<circle cx="784.856" cy="135.591" r="0.671882" transform="rotate(29.0249 784.856 135.591)" fill="#C4C4C4" fill-opacity="0.7"/>
<circle cx="875.571" cy="109.096" r="0.671882" transform="rotate(29.0249 875.571 109.096)" fill="#C4C4C4" fill-opacity="0.7"/>
<circle cx="835.919" cy="25.1398" r="0.671882" transform="rotate(29.0249 835.919 25.1398)" fill="#C4C4C4" fill-opacity="0.8"/>
<circle cx="884.022" cy="238.528" r="0.671882" transform="rotate(29.0249 884.022 238.528)" fill="#C4C4C4" fill-opacity="0.7"/>
<circle cx="964.652" cy="131.029" r="0.671882" transform="rotate(29.0249 964.652 131.029)" fill="#C4C4C4" fill-opacity="0.7"/>
<circle cx="666.605" cy="158.172" r="0.671882" transform="rotate(29.0249 666.605 158.172)" fill="#C4C4C4" fill-opacity="0.7"/>
<circle cx="919.438" cy="50.2276" r="0.671882" transform="rotate(29.0249 919.438 50.2276)" fill="#C4C4C4" fill-opacity="0.7"/>
<circle cx="1000.4" cy="109.088" r="0.671882" transform="rotate(29.0249 1000.4 109.088)" fill="#C4C4C4" fill-opacity="0.7"/>
<circle cx="1065.7" cy="50.6713" r="0.671882" transform="rotate(29.0249 1065.7 50.6713)" fill="#C4C4C4" fill-opacity="0.7"/>
<circle cx="822.481" cy="78.8903" r="0.671882" transform="rotate(29.0249 822.481 78.8903)" fill="#C4C4C4" fill-opacity="0.7"/>
<circle cx="749.918" cy="49.3274" r="0.671882" transform="rotate(29.0249 749.918 49.3274)" fill="#C4C4C4" fill-opacity="0.7"/>
<circle cx="805.013" cy="189.079" r="0.671882" transform="rotate(29.0249 805.013 189.079)" fill="#C4C4C4" fill-opacity="0.7"/>
<circle cx="963.576" cy="18.4209" r="0.671882" transform="rotate(29.0249 963.576 18.4209)" fill="#C4C4C4" fill-opacity="0.8"/>
<circle cx="854.301" cy="148.336" r="1.34376" transform="rotate(29.0249 854.301 148.336)" fill="#C4C4C4" fill-opacity="0.7"/>
<circle cx="929.283" cy="147.236" r="1.34376" transform="rotate(29.0249 929.283 147.236)" fill="#C4C4C4" fill-opacity="0.7"/>
<circle cx="934.926" cy="99.9602" r="1.34376" transform="rotate(29.0249 934.926 99.9602)" fill="#C4C4C4" fill-opacity="0.7"/>
<circle cx="1454.83" cy="1061.94" r="1.34376" transform="rotate(-68.6338 1454.83 1061.94)" fill="#C4C4C4" fill-opacity="0.7"/>
<circle cx="1483.57" cy="1039.64" r="0.671882" transform="rotate(-68.6338 1483.57 1039.64)" fill="#C4C4C4" fill-opacity="0.7"/>
<circle cx="1451.45" cy="1028.15" r="0.671882" transform="rotate(-68.6338 1451.45 1028.15)" fill="#C4C4C4" fill-opacity="0.7"/>
<circle cx="1429.58" cy="1039.8" r="0.671882" transform="rotate(-68.6338 1429.58 1039.8)" fill="#C4C4C4" fill-opacity="0.7"/>
<circle cx="1394.55" cy="1059.28" r="0.671882" transform="rotate(-68.6338 1394.55 1059.28)" fill="#C4C4C4" fill-opacity="0.7"/>
<circle cx="1354.18" cy="1066.57" r="0.671882" transform="rotate(-68.6338 1354.18 1066.57)" fill="#C4C4C4" fill-opacity="0.7"/>
<circle cx="1371.86" cy="995.569" r="0.671882" transform="rotate(-68.6338 1371.86 995.569)" fill="#C4C4C4" fill-opacity="0.7"/>
<circle cx="1317.42" cy="776.734" r="1.34376" fill="#C4C4C4" fill-opacity="0.7"/>
<circle cx="1289.2" cy="729.702" r="1.34376" fill="#C4C4C4" fill-opacity="0.7"/>
<circle cx="1268.37" cy="758.594" r="0.671882" fill="#C4C4C4" fill-opacity="0.7"/>
<circle cx="1246.87" cy="723.656" r="0.671882" fill="#C4C4C4" fill-opacity="0.7"/>
<circle cx="1319.44" cy="714.249" r="0.671882" fill="#C4C4C4" fill-opacity="0.7"/>
<circle cx="1300.62" cy="698.124" r="0.671882" fill="#C4C4C4" fill-opacity="0.7"/>
<circle cx="1269.72" cy="672.593" r="0.671882" fill="#C4C4C4" fill-opacity="0.7"/>
<circle cx="1248.22" cy="637.655" r="0.671882" fill="#C4C4C4" fill-opacity="0.7"/>
<circle cx="1320.78" cy="628.249" r="0.671882" fill="#C4C4C4" fill-opacity="0.7"/>
<circle cx="1301.97" cy="612.123" r="0.671882" fill="#C4C4C4" fill-opacity="0.7"/>
<circle cx="1303.31" cy="647.061" r="0.671882" fill="#C4C4C4" fill-opacity="0.7"/>
<circle cx="1281.81" cy="612.123" r="0.671882" fill="#C4C4C4" fill-opacity="0.7"/>
<circle cx="1354.37" cy="602.717" r="0.671882" fill="#C4C4C4" fill-opacity="0.7"/>
<circle cx="1330.19" cy="594.654" r="0.671882" fill="#C4C4C4" fill-opacity="0.7"/>
<circle cx="1257.62" cy="733.062" r="0.671882" fill="#C4C4C4" fill-opacity="0.7"/>
<circle cx="1236.12" cy="698.124" r="0.671882" fill="#C4C4C4" fill-opacity="0.7"/>
<circle cx="1323.47" cy="673.936" r="0.671882" fill="#C4C4C4" fill-opacity="0.7"/>
<circle cx="1289.87" cy="672.593" r="0.671882" fill="#C4C4C4" fill-opacity="0.7"/>
<circle cx="1353.7" cy="657.139" r="1.34376" fill="#C4C4C4" fill-opacity="0.7"/>
<circle cx="1278.45" cy="639.67" r="1.34376" fill="#C4C4C4" fill-opacity="0.7"/>
<circle cx="1331.39" cy="985.421" r="1.34376" transform="rotate(-36.4743 1331.39 985.421)" fill="#C4C4C4" fill-opacity="0.7"/>
<circle cx="1321.38" cy="917.624" r="1.34376" transform="rotate(-36.4743 1321.38 917.624)" fill="#C4C4C4" fill-opacity="0.7"/>
<circle cx="1321.8" cy="953.238" r="0.671882" transform="rotate(-36.4743 1321.8 953.238)" fill="#C4C4C4" fill-opacity="0.7"/>
<circle cx="1283.75" cy="937.925" r="0.671882" transform="rotate(-36.4743 1283.75 937.925)" fill="#C4C4C4" fill-opacity="0.7"/>
<circle cx="1336.51" cy="887.225" r="0.671882" transform="rotate(-36.4743 1336.51 887.225)" fill="#C4C4C4" fill-opacity="0.7"/>
<circle cx="1355.98" cy="924.145" r="0.671882" transform="rotate(-36.4743 1355.98 924.145)" fill="#C4C4C4" fill-opacity="0.7"/>
<circle cx="1271.76" cy="883.284" r="0.671882" transform="rotate(-36.4743 1271.76 883.284)" fill="#C4C4C4" fill-opacity="0.7"/>
<circle cx="1233.7" cy="867.97" r="0.671882" transform="rotate(-36.4743 1233.7 867.97)" fill="#C4C4C4" fill-opacity="0.7"/>
<circle cx="1286.46" cy="817.271" r="0.671882" transform="rotate(-36.4743 1286.46 817.271)" fill="#C4C4C4" fill-opacity="0.7"/>
<circle cx="1233.7" cy="785.737" r="0.671882" transform="rotate(-36.4743 1233.7 785.737)" fill="#C4C4C4" fill-opacity="0.7"/>
<circle cx="1283.59" cy="842.782" r="0.671882" transform="rotate(-36.4743 1283.59 842.782)" fill="#C4C4C4" fill-opacity="0.7"/>
<circle cx="1245.54" cy="827.47" r="0.671882" transform="rotate(-36.4743 1245.54 827.47)" fill="#C4C4C4" fill-opacity="0.7"/>
<circle cx="1298.3" cy="776.77" r="0.671882" transform="rotate(-36.4743 1298.3 776.77)" fill="#C4C4C4" fill-opacity="0.7"/>
<circle cx="1273.59" cy="774.987" r="0.671882" transform="rotate(-36.4743 1273.59 774.987)" fill="#C4C4C4" fill-opacity="0.7"/>
<circle cx="1286.11" cy="984.614" r="0.671882" transform="rotate(-36.4743 1286.11 984.614)" fill="#C4C4C4" fill-opacity="0.7"/>
<circle cx="1259.93" cy="923.785" r="0.671882" transform="rotate(-36.4743 1259.93 923.785)" fill="#C4C4C4" fill-opacity="0.7"/>
<circle cx="1312.68" cy="873.084" r="0.671882" transform="rotate(-36.4743 1312.68 873.084)" fill="#C4C4C4" fill-opacity="0.7"/>
<circle cx="1287.97" cy="871.302" r="0.671882" transform="rotate(-36.4743 1287.97 871.302)" fill="#C4C4C4" fill-opacity="0.7"/>
<circle cx="1312.58" cy="847.145" r="1.34376" transform="rotate(-36.4743 1312.58 847.145)" fill="#C4C4C4" fill-opacity="0.7"/>
<circle cx="1259.21" cy="851.618" r="1.34376" transform="rotate(-36.4743 1259.21 851.618)" fill="#C4C4C4" fill-opacity="0.7"/>
<circle cx="1349.98" cy="1007.21" r="0.671882" transform="rotate(-68.6338 1349.98 1007.21)" fill="#C4C4C4" fill-opacity="0.7"/>
<circle cx="1383.01" cy="1018.69" r="0.671882" transform="rotate(-68.6338 1383.01 1018.69)" fill="#C4C4C4" fill-opacity="0.7"/>
<circle cx="1342.64" cy="1025.99" r="0.671882" transform="rotate(-68.6338 1342.64 1025.99)" fill="#C4C4C4" fill-opacity="0.7"/>
<circle cx="1360.32" cy="954.982" r="0.671882" transform="rotate(-68.6338 1360.32 954.982)" fill="#C4C4C4" fill-opacity="0.7"/>
<circle cx="1338.45" cy="966.628" r="0.671882" transform="rotate(-68.6338 1338.45 966.628)" fill="#C4C4C4" fill-opacity="0.7"/>
<circle cx="1409.67" cy="987.233" r="0.671882" transform="rotate(-68.6338 1409.67 987.233)" fill="#C4C4C4" fill-opacity="0.7"/>
<circle cx="1401.89" cy="1040.51" r="0.671882" transform="rotate(-68.6338 1401.89 1040.51)" fill="#C4C4C4" fill-opacity="0.7"/>
<circle cx="1407.6" cy="1020.38" r="1.34376" transform="rotate(-68.6338 1407.6 1020.38)" fill="#C4C4C4" fill-opacity="0.7"/>
<circle cx="1367.07" cy="1039.15" r="1.34376" transform="rotate(-68.6338 1367.07 1039.15)" fill="#C4C4C4" fill-opacity="0.7"/>
<circle cx="1719.48" cy="1056.4" r="1.34376" transform="rotate(-118.784 1719.48 1056.4)" fill="#C4C4C4" fill-opacity="0.7"/>
<circle cx="1686.3" cy="1061.59" r="0.671882" transform="rotate(-118.784 1686.3 1061.59)" fill="#C4C4C4" fill-opacity="0.7"/>
<circle cx="1622.85" cy="1038.19" r="0.671882" transform="rotate(-118.784 1622.85 1038.19)" fill="#C4C4C4" fill-opacity="0.7"/>
<circle cx="1617.77" cy="1062.45" r="0.671882" transform="rotate(-118.784 1617.77 1062.45)" fill="#C4C4C4" fill-opacity="0.7"/>
<circle cx="1546.83" cy="1078.42" r="0.671882" transform="rotate(-118.784 1546.83 1078.42)" fill="#C4C4C4" fill-opacity="0.7"/>
<circle cx="1508.27" cy="1061.28" r="0.671882" transform="rotate(-118.784 1508.27 1061.28)" fill="#C4C4C4" fill-opacity="0.7"/>
<circle cx="1742.96" cy="1012.81" r="0.671882" transform="rotate(-118.784 1742.96 1012.81)" fill="#C4C4C4" fill-opacity="0.7"/>
<circle cx="1557.52" cy="1043.71" r="0.671882" transform="rotate(-118.784 1557.52 1043.71)" fill="#C4C4C4" fill-opacity="0.7"/>
<circle cx="1588.78" cy="1066.88" r="1.34376" transform="rotate(-118.784 1588.78 1066.88)" fill="#C4C4C4" fill-opacity="0.7"/>
<circle cx="1893.03" cy="941.188" r="1.34376" transform="rotate(-147.083 1893.03 941.188)" fill="#C4C4C4" fill-opacity="0.7"/>
<circle cx="1833.1" cy="974.425" r="1.34376" transform="rotate(-147.083 1833.1 974.425)" fill="#C4C4C4" fill-opacity="0.7"/>
<circle cx="1866.28" cy="961.49" r="0.671882" transform="rotate(-147.083 1866.28 961.49)" fill="#C4C4C4" fill-opacity="0.7"/>
<circle cx="1900.2" cy="1000.73" r="0.671882" transform="rotate(-147.083 1900.2 1000.73)" fill="#C4C4C4" fill-opacity="0.7"/>
<circle cx="1799.32" cy="970.967" r="0.671882" transform="rotate(-147.083 1799.32 970.967)" fill="#C4C4C4" fill-opacity="0.7"/>
<circle cx="1806.35" cy="994.726" r="0.671882" transform="rotate(-147.083 1806.35 994.726)" fill="#C4C4C4" fill-opacity="0.7"/>
<circle cx="1818.42" cy="1032.96" r="0.671882" transform="rotate(-147.083 1818.42 1032.96)" fill="#C4C4C4" fill-opacity="0.7"/>
<circle cx="1817.48" cy="1073.97" r="0.671882" transform="rotate(-147.083 1817.48 1073.97)" fill="#C4C4C4" fill-opacity="0.7"/>
<circle cx="1751.46" cy="1042.43" r="0.671882" transform="rotate(-147.083 1751.46 1042.43)" fill="#C4C4C4" fill-opacity="0.7"/>
<circle cx="1758.49" cy="1066.19" r="0.671882" transform="rotate(-147.083 1758.49 1066.19)" fill="#C4C4C4" fill-opacity="0.7"/>
<circle cx="1776.35" cy="1036.13" r="0.671882" transform="rotate(-147.083 1776.35 1036.13)" fill="#C4C4C4" fill-opacity="0.7"/>
<circle cx="1775.41" cy="1077.14" r="0.671882" transform="rotate(-147.083 1775.41 1077.14)" fill="#C4C4C4" fill-opacity="0.7"/>
<circle cx="1701.32" cy="1026.26" r="0.671882" transform="rotate(-147.083 1701.32 1026.26)" fill="#C4C4C4" fill-opacity="0.7"/>
<circle cx="1861.43" cy="988.764" r="0.671882" transform="rotate(-147.083 1861.43 988.764)" fill="#C4C4C4" fill-opacity="0.7"/>
<circle cx="1860.49" cy="1029.78" r="0.671882" transform="rotate(-147.083 1860.49 1029.78)" fill="#C4C4C4" fill-opacity="0.7"/>
<circle cx="1767.17" cy="987.29" r="0.671882" transform="rotate(-147.083 1767.17 987.29)" fill="#C4C4C4" fill-opacity="0.7"/>
<circle cx="1801.5" cy="1022" r="0.671882" transform="rotate(-147.083 1801.5 1022)" fill="#C4C4C4" fill-opacity="0.7"/>
<circle cx="1824.67" cy="1012.18" r="1.34376" transform="rotate(-147.083 1824.67 1012.18)" fill="#C4C4C4" fill-opacity="0.7"/>
<circle cx="1793.2" cy="1055.84" r="1.34376" transform="rotate(-147.083 1793.2 1055.84)" fill="#C4C4C4" fill-opacity="0.7"/>
<circle cx="1896" cy="727.244" r="1.34376" transform="rotate(169.165 1896 727.244)" fill="#C4C4C4" fill-opacity="0.7"/>
<circle cx="1875.69" cy="792.697" r="1.34376" transform="rotate(169.165 1875.69 792.697)" fill="#C4C4C4" fill-opacity="0.7"/>
<circle cx="1890.72" cy="760.406" r="0.671882" transform="rotate(169.165 1890.72 760.406)" fill="#C4C4C4" fill-opacity="0.7"/>
<circle cx="1848.9" cy="813.56" r="0.671882" transform="rotate(169.165 1848.9 813.56)" fill="#C4C4C4" fill-opacity="0.7"/>
<circle cx="1870.41" cy="825.861" r="0.671882" transform="rotate(169.165 1870.41 825.861)" fill="#C4C4C4" fill-opacity="0.7"/>
<circle cx="1905.57" cy="845.127" r="0.671882" transform="rotate(169.165 1905.57 845.127)" fill="#C4C4C4" fill-opacity="0.7"/>
<circle cx="1863.75" cy="898.28" r="0.671882" transform="rotate(169.165 1863.75 898.28)" fill="#C4C4C4" fill-opacity="0.7"/>
<circle cx="1885.26" cy="910.581" r="0.671882" transform="rotate(169.165 1885.26 910.581)" fill="#C4C4C4" fill-opacity="0.7"/>
<circle cx="1877.37" cy="876.519" r="0.671882" transform="rotate(169.165 1877.37 876.519)" fill="#C4C4C4" fill-opacity="0.7"/>
<circle cx="1905.05" cy="906.791" r="0.671882" transform="rotate(169.165 1905.05 906.791)" fill="#C4C4C4" fill-opacity="0.7"/>
<circle cx="1835.56" cy="929.671" r="0.671882" transform="rotate(169.165 1835.56 929.671)" fill="#C4C4C4" fill-opacity="0.7"/>
<circle cx="1857.06" cy="941.972" r="0.671882" transform="rotate(169.165 1857.06 941.972)" fill="#C4C4C4" fill-opacity="0.7"/>
<circle cx="1906.08" cy="783.461" r="0.671882" transform="rotate(169.165 1906.08 783.461)" fill="#C4C4C4" fill-opacity="0.7"/>
<circle cx="1836.9" cy="871.584" r="0.671882" transform="rotate(169.165 1836.9 871.584)" fill="#C4C4C4" fill-opacity="0.7"/>
<circle cx="1885.77" cy="848.916" r="0.671882" transform="rotate(169.165 1885.77 848.916)" fill="#C4C4C4" fill-opacity="0.7"/>
<circle cx="1895.71" cy="825.806" r="1.34376" transform="rotate(169.165 1895.71 825.806)" fill="#C4C4C4" fill-opacity="0.7"/>
<circle cx="1903.18" cy="879.104" r="1.34376" transform="rotate(169.165 1903.18 879.104)" fill="#C4C4C4" fill-opacity="0.7"/>
<circle cx="1793.66" cy="548.846" r="1.34376" transform="rotate(130.81 1793.66 548.846)" fill="#C4C4C4" fill-opacity="0.7"/>
<circle cx="1818.35" cy="612.776" r="1.34376" transform="rotate(130.81 1818.35 612.776)" fill="#C4C4C4" fill-opacity="0.7"/>
<circle cx="1759.12" cy="578.805" r="0.671882" transform="rotate(130.81 1759.12 578.805)" fill="#C4C4C4" fill-opacity="0.7"/>
<circle cx="1850.6" cy="584.69" r="0.671882" transform="rotate(130.81 1850.6 584.69)" fill="#C4C4C4" fill-opacity="0.7"/>
<circle cx="1810.29" cy="645.759" r="0.671882" transform="rotate(130.81 1810.29 645.759)" fill="#C4C4C4" fill-opacity="0.7"/>
<circle cx="1788.68" cy="615.086" r="0.671882" transform="rotate(130.81 1788.68 615.086)" fill="#C4C4C4" fill-opacity="0.7"/>
<circle cx="1874.31" cy="635.353" r="0.671882" transform="rotate(130.81 1874.31 635.353)" fill="#C4C4C4" fill-opacity="0.7"/>
<circle cx="1914.81" cy="641.913" r="0.671882" transform="rotate(130.81 1914.81 641.913)" fill="#C4C4C4" fill-opacity="0.7"/>
<circle cx="1874.51" cy="702.982" r="0.671882" transform="rotate(130.81 1874.51 702.982)" fill="#C4C4C4" fill-opacity="0.7"/>
<circle cx="1899" cy="699.283" r="0.671882" transform="rotate(130.81 1899 699.283)" fill="#C4C4C4" fill-opacity="0.7"/>
<circle cx="1871.68" cy="677.465" r="0.671882" transform="rotate(130.81 1871.68 677.465)" fill="#C4C4C4" fill-opacity="0.7"/>
<circle cx="1912.18" cy="684.026" r="0.671882" transform="rotate(130.81 1912.18 684.026)" fill="#C4C4C4" fill-opacity="0.7"/>
<circle cx="1854.53" cy="741.4" r="0.671882" transform="rotate(130.81 1854.53 741.4)" fill="#C4C4C4" fill-opacity="0.7"/>
<circle cx="1835.71" cy="555.961" r="0.671882" transform="rotate(130.81 1835.71 555.961)" fill="#C4C4C4" fill-opacity="0.7"/>
<circle cx="1876.95" cy="593.24" r="0.671882" transform="rotate(130.81 1876.95 593.24)" fill="#C4C4C4" fill-opacity="0.7"/>
<circle cx="1836.64" cy="654.309" r="0.671882" transform="rotate(130.81 1836.64 654.309)" fill="#C4C4C4" fill-opacity="0.7"/>
<circle cx="1861.14" cy="650.608" r="0.671882" transform="rotate(130.81 1861.14 650.608)" fill="#C4C4C4" fill-opacity="0.7"/>
<circle cx="1839.35" cy="685.909" r="1.34376" transform="rotate(130.81 1839.35 685.909)" fill="#C4C4C4" fill-opacity="0.7"/>
<circle cx="1893.52" cy="663.48" r="1.34376" transform="rotate(130.81 1893.52 663.48)" fill="#C4C4C4" fill-opacity="0.7"/>
<circle cx="1614.57" cy="463.616" r="1.34376" transform="rotate(98.326 1614.57 463.616)" fill="#C4C4C4" fill-opacity="0.7"/>
<circle cx="1669.74" cy="504.283" r="1.34376" transform="rotate(98.326 1669.74 504.283)" fill="#C4C4C4" fill-opacity="0.7"/>
<circle cx="1651.43" cy="441.555" r="0.671882" transform="rotate(98.326 1651.43 441.555)" fill="#C4C4C4" fill-opacity="0.7"/>
<circle cx="1687.71" cy="473.805" r="0.671882" transform="rotate(98.326 1687.71 473.805)" fill="#C4C4C4" fill-opacity="0.7"/>
<circle cx="1680.64" cy="536.437" r="0.671882" transform="rotate(98.326 1680.64 536.437)" fill="#C4C4C4" fill-opacity="0.7"/>
<circle cx="1724" cy="563.838" r="0.671882" transform="rotate(98.326 1724 563.838)" fill="#C4C4C4" fill-opacity="0.7"/>
<circle cx="1729.06" cy="493.274" r="0.671882" transform="rotate(98.326 1729.06 493.274)" fill="#C4C4C4" fill-opacity="0.7"/>
<circle cx="1766.74" cy="477.06" r="0.671882" transform="rotate(98.326 1766.74 477.06)" fill="#C4C4C4" fill-opacity="0.7"/>
<circle cx="1765.55" cy="550.22" r="0.671882" transform="rotate(98.326 1765.55 550.22)" fill="#C4C4C4" fill-opacity="0.7"/>
<circle cx="1784.22" cy="533.94" r="0.671882" transform="rotate(98.326 1784.22 533.94)" fill="#C4C4C4" fill-opacity="0.7"/>
<circle cx="1749.46" cy="530.211" r="0.671882" transform="rotate(98.326 1749.46 530.211)" fill="#C4C4C4" fill-opacity="0.7"/>
<circle cx="1787.14" cy="513.996" r="0.671882" transform="rotate(98.326 1787.14 513.996)" fill="#C4C4C4" fill-opacity="0.7"/>
<circle cx="1785.95" cy="587.157" r="0.671882" transform="rotate(98.326 1785.95 587.157)" fill="#C4C4C4" fill-opacity="0.7"/>
<circle cx="1804.62" cy="570.878" r="0.671882" transform="rotate(98.326 1804.62 570.878)" fill="#C4C4C4" fill-opacity="0.7"/>
<circle cx="1650.09" cy="468.43" r="0.671882" transform="rotate(98.326 1650.09 468.43)" fill="#C4C4C4" fill-opacity="0.7"/>
<circle cx="1708.66" cy="456.336" r="0.671882" transform="rotate(98.326 1708.66 456.336)" fill="#C4C4C4" fill-opacity="0.7"/>
<circle cx="1707.47" cy="529.497" r="0.671882" transform="rotate(98.326 1707.47 529.497)" fill="#C4C4C4" fill-opacity="0.7"/>
<circle cx="1726.14" cy="513.218" r="0.671882" transform="rotate(98.326 1726.14 513.218)" fill="#C4C4C4" fill-opacity="0.7"/>
<circle cx="1725.12" cy="534.119" r="1.34376" transform="rotate(98.326 1725.12 534.119)" fill="#C4C4C4" fill-opacity="0.7"/>
<circle cx="1760.37" cy="506.683" r="1.34376" transform="rotate(98.326 1760.37 506.683)" fill="#C4C4C4" fill-opacity="0.7"/>
<circle cx="1435.17" cy="509.939" r="1.34376" transform="rotate(64.2286 1435.17 509.939)" fill="#C4C4C4" fill-opacity="0.7"/>
<circle cx="1493.9" cy="539.339" r="1.34376" transform="rotate(64.2286 1493.9 539.339)" fill="#C4C4C4" fill-opacity="0.7"/>
<circle cx="1468.57" cy="506.495" r="0.671882" transform="rotate(64.2286 1468.57 506.495)" fill="#C4C4C4" fill-opacity="0.7"/>
<circle cx="1490.68" cy="471.942" r="0.671882" transform="rotate(64.2286 1490.68 471.942)" fill="#C4C4C4" fill-opacity="0.7"/>
<circle cx="1530.7" cy="533.197" r="0.671882" transform="rotate(64.2286 1530.7 533.197)" fill="#C4C4C4" fill-opacity="0.7"/>
<circle cx="1515.85" cy="503.504" r="0.671882" transform="rotate(64.2286 1515.85 503.504)" fill="#C4C4C4" fill-opacity="0.7"/>
<circle cx="1546.6" cy="470.312" r="0.671882" transform="rotate(64.2286 1546.6 470.312)" fill="#C4C4C4" fill-opacity="0.7"/>
<circle cx="1568.71" cy="435.76" r="0.671882" transform="rotate(64.2286 1568.71 435.76)" fill="#C4C4C4" fill-opacity="0.7"/>
<circle cx="1608.73" cy="497.017" r="0.671882" transform="rotate(64.2286 1608.73 497.017)" fill="#C4C4C4" fill-opacity="0.7"/>
<circle cx="1615.08" cy="473.064" r="0.671882" transform="rotate(64.2286 1615.08 473.064)" fill="#C4C4C4" fill-opacity="0.7"/>
<circle cx="1584.19" cy="489.465" r="0.671882" transform="rotate(64.2286 1584.19 489.465)" fill="#C4C4C4" fill-opacity="0.7"/>
<circle cx="1606.31" cy="454.913" r="0.671882" transform="rotate(64.2286 1606.31 454.913)" fill="#C4C4C4" fill-opacity="0.7"/>
<circle cx="1646.33" cy="516.168" r="0.671882" transform="rotate(64.2286 1646.33 516.168)" fill="#C4C4C4" fill-opacity="0.7"/>
<circle cx="1652.67" cy="492.216" r="0.671882" transform="rotate(64.2286 1652.67 492.216)" fill="#C4C4C4" fill-opacity="0.7"/>
<circle cx="1486.89" cy="485.713" r="0.671882" transform="rotate(64.2286 1486.89 485.713)" fill="#C4C4C4" fill-opacity="0.7"/>
<circle cx="1509" cy="451.16" r="0.671882" transform="rotate(64.2286 1509 451.16)" fill="#C4C4C4" fill-opacity="0.7"/>
<circle cx="1596.48" cy="522.316" r="0.671882" transform="rotate(64.2286 1596.48 522.316)" fill="#C4C4C4" fill-opacity="0.7"/>
<circle cx="1555.36" cy="488.464" r="0.671882" transform="rotate(64.2286 1555.36 488.464)" fill="#C4C4C4" fill-opacity="0.7"/>
<circle cx="1530.47" cy="484.814" r="1.34376" transform="rotate(64.2286 1530.47 484.814)" fill="#C4C4C4" fill-opacity="0.7"/>
<circle cx="1566.23" cy="506.344" r="1.34376" transform="rotate(64.2286 1566.23 506.344)" fill="#C4C4C4" fill-opacity="0.7"/>
<circle cx="1342.53" cy="625.807" r="0.671882" transform="rotate(29.946 1342.53 625.807)" fill="#C4C4C4" fill-opacity="0.7"/>
<circle cx="1332.98" cy="565.257" r="0.671882" transform="rotate(29.946 1332.98 565.257)" fill="#C4C4C4" fill-opacity="0.7"/>
<circle cx="1400.55" cy="593.329" r="0.671882" transform="rotate(29.946 1400.55 593.329)" fill="#C4C4C4" fill-opacity="0.7"/>
<circle cx="1392.29" cy="569.965" r="0.671882" transform="rotate(29.946 1392.29 569.965)" fill="#C4C4C4" fill-opacity="0.7"/>
<circle cx="1378.26" cy="532.415" r="0.671882" transform="rotate(29.946 1378.26 532.415)" fill="#C4C4C4" fill-opacity="0.7"/>
<circle cx="1377.07" cy="491.409" r="0.671882" transform="rotate(29.946 1377.07 491.409)" fill="#C4C4C4" fill-opacity="0.7"/>
<circle cx="1444.64" cy="519.48" r="0.671882" transform="rotate(29.946 1444.64 519.48)" fill="#C4C4C4" fill-opacity="0.7"/>
<circle cx="1436.39" cy="496.116" r="0.671882" transform="rotate(29.946 1436.39 496.116)" fill="#C4C4C4" fill-opacity="0.7"/>
<circle cx="1420.11" cy="527.061" r="0.671882" transform="rotate(29.946 1420.11 527.061)" fill="#C4C4C4" fill-opacity="0.7"/>
<circle cx="1418.93" cy="486.055" r="0.671882" transform="rotate(29.946 1418.93 486.055)" fill="#C4C4C4" fill-opacity="0.7"/>
<circle cx="1486.5" cy="514.127" r="0.671882" transform="rotate(29.946 1486.5 514.127)" fill="#C4C4C4" fill-opacity="0.7"/>
<circle cx="1460.78" cy="461.867" r="0.671882" transform="rotate(29.946 1460.78 461.867)" fill="#C4C4C4" fill-opacity="0.7"/>
<circle cx="1291.46" cy="566.681" r="0.671882" transform="rotate(29.946 1291.46 566.681)" fill="#C4C4C4" fill-opacity="0.7"/>
<circle cx="1336.41" cy="537.768" r="0.671882" transform="rotate(29.946 1336.41 537.768)" fill="#C4C4C4" fill-opacity="0.7"/>
<circle cx="1421.81" cy="554.587" r="0.671882" transform="rotate(29.946 1421.81 554.587)" fill="#C4C4C4" fill-opacity="0.7"/>
<circle cx="1395.72" cy="542.476" r="0.671882" transform="rotate(29.946 1395.72 542.476)" fill="#C4C4C4" fill-opacity="0.7"/>
<circle cx="1373.1" cy="553.481" r="1.34376" transform="rotate(29.946 1373.1 553.481)" fill="#C4C4C4" fill-opacity="0.7"/>
</g>
<defs>
<clipPath id="clip0">
<rect width="1920" height="1080" fill="white"/>
</clipPath>
</defs>
</svg>
