<svg width="20" height="20" viewBox="0 0 20 20" fill="none" xmlns="http://www.w3.org/2000/svg">
<g clip-path="url(#clip0)">
<path d="M20.0002 10C20.0002 4.47715 15.5231 -7.36331e-07 10.0002 -4.74353e-07C4.4774 -2.12375e-07 0.000243462 4.47715 0.000243704 10C0.000243945 15.5228 4.4774 20 10.0002 20C15.5231 20 20.0002 15.5228 20.0002 10Z" fill="#FEDA00"/>
<mask id="mask0" mask-type="alpha" maskUnits="userSpaceOnUse" x="0" y="0" width="21" height="20">
<path d="M20.0002 10C20.0002 4.47715 15.5231 1.84954e-06 10.0002 1.87011e-06C4.4774 1.89068e-06 0.000244141 4.47715 0.000244141 10C0.000244141 15.5228 4.4774 20 10.0002 20C15.5231 20 20.0002 15.5228 20.0002 10Z" fill="#FEDA00"/>
</mask>
<g mask="url(#mask0)">
<path d="M18.1233 4.15386C16.9803 5.67315 16.8815 7.65809 16.9145 8.62235C15.6849 6.93689 14.9517 4.94093 14.7978 2.86035C12.5918 4.92056 13.2738 8.03439 13.6689 9.25264C12.0292 7.97017 10.7784 6.2569 10.0565 4.30438C8.4949 6.8914 10.0001 9.67126 10.7244 10.7531C8.79014 9.97971 7.11389 8.67524 5.88907 6.99017C5.09885 9.90645 7.30017 12.1642 8.29734 12.9968C6.23024 12.793 4.26249 12.0105 2.62002 10.739C2.65764 13.7635 5.39988 15.311 6.5805 15.8378C4.96847 16.1419 3.3083 16.0744 1.72632 15.6402C2.89604 17.3492 4.56509 18.6552 6.50525 19.3796C6.77231 17.8895 7.33785 16.4687 8.16789 15.2026C8.99793 13.9366 10.0753 12.8514 11.3354 12.0122C12.5954 11.1731 14.0121 10.5973 15.5003 10.3195C16.9885 10.0417 18.5174 10.0676 19.9954 10.3956C19.9954 10.2639 20.0189 10.1322 20.0189 10.0005C20.0187 7.90061 19.3553 5.8544 18.1233 4.15386Z" fill="white"/>
</g>
</g>
<defs>
<clipPath id="clip0">
<rect width="20" height="20" fill="white"/>
</clipPath>
</defs>
</svg>
