<svg width="79" height="13" viewBox="0 0 79 13" fill="none" xmlns="http://www.w3.org/2000/svg">
<path d="M8.08 12L7.52 10.24H3.36L2.8 12H0L3.808 0.799999H7.072L10.88 12H8.08ZM4.128 7.84H6.752L5.44 3.728L4.128 7.84ZM18.075 0.799999H20.635V12H18.715L14.395 5.92V12H11.835V0.799999H13.755L18.075 6.88V0.799999ZM27.0338 0.799999C28.5804 0.799999 29.8711 1.33867 30.9058 2.416C31.9511 3.48267 32.4738 4.81067 32.4738 6.4C32.4738 7.98933 31.9511 9.32267 30.9058 10.4C29.8711 11.4667 28.5804 12 27.0338 12H22.5538V0.799999H27.0338ZM27.0338 9.536C27.9191 9.536 28.6338 9.25333 29.1778 8.688C29.7324 8.112 30.0098 7.34933 30.0098 6.4C30.0098 5.45067 29.7324 4.69333 29.1778 4.128C28.6338 3.552 27.9191 3.264 27.0338 3.264H25.1138V9.536H27.0338ZM36.4731 9.536H40.9531V12H33.9131V0.799999H40.8731V3.264H36.4731V5.12H40.4731V7.552H36.4731V9.536ZM48.2855 12L46.1735 8.32H44.9575V12H42.3975V0.799999H46.8775C47.9442 0.799999 48.8508 1.17333 49.5975 1.92C50.3442 2.66667 50.7175 3.57333 50.7175 4.64C50.7175 5.32267 50.5255 5.95733 50.1415 6.544C49.7682 7.12 49.2722 7.568 48.6535 7.888L51.0375 12H48.2855ZM44.9575 3.2V6.08H46.8775C47.2295 6.08 47.5282 5.94133 47.7735 5.664C48.0295 5.38667 48.1575 5.04533 48.1575 4.64C48.1575 4.23467 48.0295 3.89333 47.7735 3.616C47.5282 3.33867 47.2295 3.2 46.8775 3.2H44.9575ZM56.005 12.224C54.8637 12.224 53.909 11.9787 53.141 11.488C52.3837 10.9867 51.845 10.3093 51.525 9.456L53.733 8.176C54.181 9.21067 54.965 9.728 56.085 9.728C57.0983 9.728 57.605 9.424 57.605 8.816C57.605 8.48533 57.4397 8.22933 57.109 8.048C56.789 7.856 56.181 7.63733 55.285 7.392C54.8157 7.264 54.405 7.12 54.053 6.96C53.701 6.8 53.3543 6.592 53.013 6.336C52.6823 6.06933 52.4263 5.73867 52.245 5.344C52.0743 4.94933 51.989 4.496 51.989 3.984C51.989 2.94933 52.357 2.12267 53.093 1.504C53.8397 0.885333 54.725 0.575999 55.749 0.575999C56.6663 0.575999 57.477 0.794666 58.181 1.232C58.885 1.65867 59.4397 2.28267 59.845 3.104L57.685 4.368C57.4823 3.94133 57.2317 3.62133 56.933 3.408C56.6343 3.184 56.2397 3.072 55.749 3.072C55.365 3.072 55.0663 3.15733 54.853 3.328C54.6503 3.488 54.549 3.68533 54.549 3.92C54.549 4.19733 54.677 4.43733 54.933 4.64C55.1997 4.84267 55.7437 5.06667 56.565 5.312C57.013 5.45067 57.3597 5.56267 57.605 5.648C57.8503 5.73333 58.1597 5.87733 58.533 6.08C58.917 6.272 59.205 6.48 59.397 6.704C59.5997 6.91733 59.7757 7.20533 59.925 7.568C60.085 7.92 60.165 8.32533 60.165 8.784C60.165 9.85067 59.781 10.6933 59.013 11.312C58.245 11.92 57.2423 12.224 56.005 12.224ZM63.9263 9.536H68.4062V12H61.3663V0.799999H68.3263V3.264H63.9263V5.12H67.9263V7.552H63.9263V9.536ZM76.0906 0.799999H78.6506V12H76.7306L72.4106 5.92V12H69.8506V0.799999H71.7706L76.0906 6.88V0.799999Z" fill="#020303"/>
</svg>
