<svg width="18" height="12" viewBox="0 0 18 12" fill="none" xmlns="http://www.w3.org/2000/svg">
<path fill-rule="evenodd" clip-rule="evenodd" d="M17.9993 5.92798C17.9837 5.78573 17.9171 5.65461 17.8127 5.56024C17.7082 5.46588 17.5733 5.41507 17.4344 5.41775H1.91691L6.26181 0.990804C6.31596 0.937994 6.35929 0.87454 6.38924 0.804185C6.41919 0.733831 6.43515 0.658 6.43618 0.581181C6.43738 0.46657 6.40531 0.3542 6.34409 0.258505C6.28287 0.162811 6.19529 0.0881545 6.0926 0.0441204C5.9899 8.62069e-05 5.87678 -0.0113087 5.76775 0.0113845C5.65872 0.0340777 5.55877 0.0898244 5.48071 0.17148L0.166407 5.58305C0.113702 5.63655 0.0718483 5.70032 0.0432802 5.77064C0.0147121 5.84096 0 5.91643 0 5.99266C0 6.0689 0.0147121 6.14438 0.0432802 6.2147C0.0718483 6.28502 0.113702 6.34879 0.166407 6.40229L5.48071 11.8138C5.53189 11.8712 5.5939 11.9174 5.66294 11.9494C5.73198 11.9814 5.80662 11.9986 5.88231 11.9999C5.958 12.0012 6.03317 11.9867 6.10323 11.9571C6.17329 11.9276 6.23678 11.8836 6.28984 11.828C6.3429 11.7723 6.38441 11.7062 6.41186 11.6335C6.4393 11.5607 6.4521 11.4831 6.44948 11.4051C6.44686 11.3271 6.42887 11.2505 6.3966 11.18C6.36434 11.1094 6.31848 11.0463 6.26181 10.9946L1.91691 6.56759H17.4344C17.5089 6.56854 17.5827 6.55413 17.6517 6.52521C17.7206 6.4963 17.7833 6.45345 17.8359 6.3992C17.8886 6.34495 17.9301 6.2804 17.9582 6.20934C17.9863 6.13828 18.0002 6.06215 17.9993 5.98544C18.0002 5.9663 18.0002 5.94712 17.9993 5.92798Z" fill="currentColor"/>
</svg>
