<svg width="24" height="24" viewBox="0 0 24 24" fill="none" xmlns="http://www.w3.org/2000/svg">
<path d="M9.07031 9.07031H6.72656V11.4141H9.07031C9.71637 11.4141 10.2422 10.8882 10.2422 10.2422C10.2422 9.59613 9.71637 9.07031 9.07031 9.07031Z" fill="currentColor"/>
<path d="M9.07031 12.5859H6.72656V14.9297H9.07031C9.71637 14.9297 10.2422 14.4039 10.2422 13.7578C10.2422 13.1118 9.71637 12.5859 9.07031 12.5859Z" fill="currentColor"/>
<path d="M15.5156 11.4141C14.7518 11.4141 14.1001 11.9039 13.8579 12.5859H17.1733C16.9312 11.9039 16.2795 11.4141 15.5156 11.4141Z" fill="currentColor"/>
<path d="M19.0312 2H4.92969C3.31439 2 2 3.31439 2 4.92969V19.0703C2 20.6856 3.31439 22 4.92969 22H19.0312C20.6465 22 22 20.6856 22 19.0703V4.92969C22 3.31439 20.6465 2 19.0312 2ZM13.1719 7.89844H17.8594V9.07031H13.1719V7.89844ZM11.4141 13.7578C11.4141 15.0504 10.3629 16.1016 9.07031 16.1016H5.55469V7.89844H9.07031C10.3629 7.89844 11.4141 8.94962 11.4141 10.2422C11.4141 10.9456 11.0964 11.5702 10.6043 12C11.0964 12.4298 11.4141 13.0544 11.4141 13.7578ZM18.4453 13.7578H13.8579C14.0999 14.4399 14.7518 14.9297 15.5156 14.9297C16.1411 14.9297 16.7247 14.5926 17.0388 14.0502L18.0527 14.6373C17.5304 15.5402 16.5581 16.1016 15.5156 16.1016C13.9003 16.1016 12.5859 14.7872 12.5859 13.1719C12.5859 11.5566 13.9003 10.2422 15.5156 10.2422C17.1309 10.2422 18.4453 11.5566 18.4453 13.1719V13.7578Z" fill="currentColor"/>
</svg>
