<svg width="24" height="24" viewBox="0 0 24 24" fill="none" xmlns="http://www.w3.org/2000/svg">
<g opacity="0.8">
<path fill-rule="evenodd" clip-rule="evenodd" d="M9.36185 5.19871C9.44804 5.07416 9.58875 5 9.73887 5H14.2602C14.4103 5 14.551 5.07416 14.6372 5.19871L16.0068 7.17766H18.7814C19.8458 7.17766 20.749 8.01457 20.749 9.09607V17.0808C20.749 18.1623 19.8458 18.9992 18.7814 18.9992H5.21759C4.15318 18.9992 3.25 18.1623 3.25 17.0808V9.09607C3.25 8.01457 4.15318 7.17766 5.21759 7.17766H7.99227L9.36185 5.19871ZM9.97838 5.93328L8.60881 7.91223C8.52261 8.03678 8.38191 8.11094 8.23178 8.11094H5.21759C4.61732 8.11094 4.171 8.57398 4.171 9.09607V17.0808C4.171 17.6029 4.61732 18.0659 5.21759 18.0659H18.7814C19.3817 18.0659 19.828 17.6029 19.828 17.0808V9.09607C19.828 8.57398 19.3817 8.11094 18.7814 8.11094H15.7672C15.6171 8.11094 15.4764 8.03678 15.3902 7.91223L14.0206 5.93328H9.97838Z" fill="#020303"/>
<path fill-rule="evenodd" clip-rule="evenodd" d="M16 13C16 15.2091 14.2091 17 12 17C9.79086 17 8 15.2091 8 13C8 10.7909 9.79086 9 12 9C14.2091 9 16 10.7909 16 13ZM15 13C15 14.6569 13.6569 16 12 16C10.3431 16 9 14.6569 9 13C9 11.3431 10.3431 10 12 10C13.6569 10 15 11.3431 15 13Z" fill="#020303"/>
</g>
</svg>
