<svg width="70" height="60" viewBox="0 0 70 60" fill="none" xmlns="http://www.w3.org/2000/svg">
<path class="fill-theme-color" d="M35.8214 40.3331H34.096L34.0028 24.4409H35.9302L35.8214 40.3331ZM33.7852 45.3986C33.7852 45.0558 33.8991 44.7685 34.1271 44.5367C34.3551 44.2947 34.666 44.1738 35.0597 44.1738C35.4535 44.1738 35.7644 44.2947 35.9924 44.5367C36.2307 44.7685 36.3499 45.0558 36.3499 45.3986C36.3499 45.7312 36.2307 46.0135 35.9924 46.2454C35.7644 46.4671 35.4535 46.578 35.0597 46.578C34.666 46.578 34.3551 46.4671 34.1271 46.2454C33.8991 46.0135 33.7852 45.7312 33.7852 45.3986Z" fill="#FEDA00"/>
<path class="fill-theme-color stroke-theme-color" d="M68.1679 54.9061L37.153 2.64804C36.1935 1.0313 33.8065 1.0313 32.847 2.64804L1.83212 54.9061C0.856175 56.5505 2.09039 58.5645 3.98514 58.5645H66.0149C67.9096 58.5645 69.1438 56.5505 68.1679 54.9061ZM31.9839 2.19067C33.3218 -0.063558 36.6783 -0.0635564 38.0161 2.19067L69.031 54.4487C70.3524 56.6753 68.7149 59.5 66.0149 59.5H3.98514C1.2851 59.5 -0.352425 56.6753 0.969025 54.4487L31.9839 2.19067Z" fill="#FEDA00" stroke="#FEDA00"/>
</svg>
