<svg width="23" height="25" viewBox="0 0 23 25" fill="none" xmlns="http://www.w3.org/2000/svg">
<path d="M22.0156 20.3453C22.3736 19.9917 22.6868 19.5941 23 19.1522C20.0914 16.015 16.5117 14.1591 12.7082 13.8057C15.9747 13.2313 18.4806 10.4033 18.4806 6.95676C18.4806 3.11255 15.3483 0.0195312 11.5 0.0195312C7.65171 0.0195312 4.51944 3.11255 4.51944 6.95676C4.51944 10.3592 7.02527 13.2313 10.2918 13.8057C6.44354 14.115 2.90855 15.9708 0 19.1522C0.313218 19.5499 0.626436 19.9476 0.984449 20.3453C3.75879 23.2616 7.47279 24.8964 11.5 24.8964C15.5272 24.8964 19.2412 23.2616 22.0156 20.3453Z" fill="#B5B8BB"/>
</svg>
