<svg width="14" height="14" viewBox="0 0 22 22" fill="currentColor" xmlns="http://www.w3.org/2000/svg" class="close-icon">
<path class="close-icon-path" d="M12.6831 11.0075L21.4585 2.22959C21.9141 1.77391 21.9141 1.03043 21.4585 0.550764C21.003 0.0710987 20.2597 0.095082 19.7802 0.550764L11.0047 9.32865L2.22927 0.550764C1.77372 0.095082 1.03044 0.095082 0.550911 0.550764C0.0713786 1.00645 0.0953552 1.74993 0.550911 2.22959L9.32636 11.0075L0.550911 19.7854C0.0953552 20.241 0.0953552 20.9845 0.550911 21.4642C0.790677 21.704 1.0784 21.8 1.39009 21.8C1.70179 21.8 1.98951 21.68 2.22927 21.4642L11.0047 12.6863L19.7802 21.4642C20.0199 21.704 20.3077 21.8 20.6193 21.8C20.931 21.8 21.2188 21.68 21.4585 21.4642C21.9141 21.0085 21.9141 20.265 21.4585 19.7854L12.6831 11.0075Z" fill="currentColor"/>
</svg>
