<svg width="20" height="20" viewBox="0 0 20 20" fill="none" xmlns="http://www.w3.org/2000/svg">
<path d="M10.0002 13.405C9.92997 13.4054 9.86039 13.3913 9.79541 13.3634C9.73043 13.3355 9.67133 13.2945 9.6215 13.2426L6.4215 9.88256C6.32107 9.77711 6.26465 9.63409 6.26465 9.48496C6.26465 9.33583 6.32107 9.19281 6.4215 9.08736C6.52193 8.98191 6.65814 8.92267 6.80016 8.92267C6.94219 8.92267 7.0784 8.98191 7.17883 9.08736L10.0002 12.0554L12.8215 9.08736C12.9219 8.98191 13.0581 8.92267 13.2002 8.92267C13.3422 8.92267 13.4784 8.98191 13.5788 9.08736C13.6793 9.19281 13.7357 9.33583 13.7357 9.48496C13.7357 9.63409 13.6793 9.77711 13.5788 9.88256L10.3788 13.2426C10.329 13.2945 10.2699 13.3355 10.2049 13.3634C10.1399 13.3913 10.0704 13.4054 10.0002 13.405Z" fill="#B5B8BB"/>
<path d="M10.0001 13.405C9.85868 13.405 9.72303 13.346 9.62301 13.2409C9.52299 13.1359 9.4668 12.9935 9.4668 12.845V2.76496C9.4668 2.61643 9.52299 2.474 9.62301 2.36898C9.72303 2.26396 9.85868 2.20496 10.0001 2.20496C10.1416 2.20496 10.2772 2.26396 10.3773 2.36898C10.4773 2.474 10.5335 2.61643 10.5335 2.76496V12.845C10.5335 12.9935 10.4773 13.1359 10.3773 13.2409C10.2772 13.346 10.1416 13.405 10.0001 13.405Z" fill="#B5B8BB"/>
<path d="M17.4667 17.325H2.53333C2.39188 17.325 2.25623 17.266 2.15621 17.1609C2.05619 17.0559 2 16.9135 2 16.765C2 16.6164 2.05619 16.474 2.15621 16.369C2.25623 16.264 2.39188 16.205 2.53333 16.205H17.4667C17.6081 16.205 17.7438 16.264 17.8438 16.369C17.9438 16.474 18 16.6164 18 16.765C18 16.9135 17.9438 17.0559 17.8438 17.1609C17.7438 17.266 17.6081 17.325 17.4667 17.325Z" fill="#B5B8BB"/>
<path d="M17.4667 17.325H2.53333C2.39188 17.325 2.25623 17.266 2.15621 17.1609C2.05619 17.0559 2 16.9135 2 16.765C2 16.6164 2.05619 16.474 2.15621 16.369C2.25623 16.264 2.39188 16.205 2.53333 16.205H17.4667C17.6081 16.205 17.7438 16.264 17.8438 16.369C17.9438 16.474 18 16.6164 18 16.765C18 16.9135 17.9438 17.0559 17.8438 17.1609C17.7438 17.266 17.6081 17.325 17.4667 17.325Z" fill="#B5B8BB"/>
</svg>
