<svg width="20" height="20" viewBox="0 0 24 24" xmlns="http://www.w3.org/2000/svg">
  <path
    d="M18.6641 5.31473C17.4773 4.12804 16.4212 4 16.0219 4C15.8936 4 15.8117 4.01205 15.7823 4.01715C15.6792 4.03533 15.5842 4.08495 15.5103 4.15888L13.3325 6.33642C13.3322 6.33662 13.332 6.33662 13.3318 6.33683C13.3316 6.33703 13.3316 6.33723 13.3314 6.33723L5.72677 13.941C5.72657 13.9412 5.72616 13.9416 5.72575 13.9418C5.72534 13.942 5.72514 13.9426 5.72473 13.9428L5.06402 14.6036C4.99294 14.6747 4.94454 14.765 4.92452 14.8634L4.01014 19.3884C3.97623 19.556 4.02852 19.7294 4.14963 19.8505C4.24644 19.9471 4.37654 20 4.51073 20C4.54443 20 4.57833 19.9967 4.61183 19.9898L9.13676 19.0751C9.2352 19.0553 9.32568 19.0069 9.39655 18.9356L10.0581 18.2742C10.0581 18.274 10.0583 18.274 10.0585 18.2738C10.0587 18.2736 10.0587 18.2734 10.0589 18.2734L19.8428 8.49068C19.9198 8.41389 19.97 8.31424 19.9866 8.20682C20.0078 8.06754 20.1516 6.80203 18.6641 5.31473ZM9.6976 17.191L6.80904 14.303L13.6929 7.41978L16.5815 10.3078L9.6976 17.191ZM5.16328 18.8366L5.89486 15.2169L6.08685 15.0249L8.97541 17.9129L8.78342 18.1049L5.16328 18.8366ZM17.3035 9.58588L14.4149 6.69788L16.0899 5.02311C16.3693 5.04027 17.0817 5.17648 17.9419 6.03663C18.81 6.90475 18.956 7.62174 18.9762 7.91316L17.3035 9.58588Z"/>
</svg>
