<svg width="66" height="50" viewBox="0 0 66 50" fill="none" xmlns="http://www.w3.org/2000/svg">
<mask id="path-1-inside-1" fill="white">
<path fill-rule="evenodd" clip-rule="evenodd" d="M56.3844 8.84262H3.17659C2.2994 8.84262 1.58829 9.53664 1.58829 10.3928V46.0459C1.58829 46.902 2.2994 47.596 3.17659 47.596H56.3844C57.2616 47.596 57.9727 46.902 57.9727 46.0459V10.3928C57.9727 9.53664 57.2616 8.84262 56.3844 8.84262ZM3.17659 7.29248C1.42221 7.29248 0 8.68052 0 10.3928V46.0459C0 47.7581 1.42221 49.1461 3.17659 49.1461H56.3844C58.1388 49.1461 59.561 47.7581 59.561 46.0459V10.3928C59.561 8.68052 58.1388 7.29248 56.3844 7.29248H3.17659Z"/>
</mask>
<path fill-rule="evenodd" clip-rule="evenodd" d="M56.3844 8.84262H3.17659C2.2994 8.84262 1.58829 9.53664 1.58829 10.3928V46.0459C1.58829 46.902 2.2994 47.596 3.17659 47.596H56.3844C57.2616 47.596 57.9727 46.902 57.9727 46.0459V10.3928C57.9727 9.53664 57.2616 8.84262 56.3844 8.84262ZM3.17659 7.29248C1.42221 7.29248 0 8.68052 0 10.3928V46.0459C0 47.7581 1.42221 49.1461 3.17659 49.1461H56.3844C58.1388 49.1461 59.561 47.7581 59.561 46.0459V10.3928C59.561 8.68052 58.1388 7.29248 56.3844 7.29248H3.17659Z" fill="#ADADAD"/>
<path d="M3.17659 10.8426H56.3844V6.84262H3.17659V10.8426ZM3.58829 10.3928C3.58829 10.6868 3.35784 10.8426 3.17659 10.8426V6.84262C1.24095 6.84262 -0.411707 8.3865 -0.411707 10.3928H3.58829ZM3.58829 46.0459V10.3928H-0.411707V46.0459H3.58829ZM3.17659 45.596C3.35784 45.596 3.58829 45.7518 3.58829 46.0459H-0.411707C-0.411707 48.0521 1.24095 49.596 3.17659 49.596V45.596ZM56.3844 45.596H3.17659V49.596H56.3844V45.596ZM55.9727 46.0459C55.9727 45.7518 56.2031 45.596 56.3844 45.596V49.596C58.32 49.596 59.9727 48.0521 59.9727 46.0459H55.9727ZM55.9727 10.3928V46.0459H59.9727V10.3928H55.9727ZM56.3844 10.8426C56.2031 10.8426 55.9727 10.6868 55.9727 10.3928H59.9727C59.9727 8.3865 58.32 6.84262 56.3844 6.84262V10.8426ZM2 10.3928C2 9.83066 2.48065 9.29248 3.17659 9.29248V5.29248C0.363762 5.29248 -2 7.53038 -2 10.3928H2ZM2 46.0459V10.3928H-2V46.0459H2ZM3.17659 47.1461C2.48065 47.1461 2 46.608 2 46.0459H-2C-2 48.9082 0.363764 51.1461 3.17659 51.1461V47.1461ZM56.3844 47.1461H3.17659V51.1461H56.3844V47.1461ZM57.561 46.0459C57.561 46.608 57.0803 47.1461 56.3844 47.1461V51.1461C59.1972 51.1461 61.561 48.9082 61.561 46.0459H57.561ZM57.561 10.3928V46.0459H61.561V10.3928H57.561ZM56.3844 9.29248C57.0803 9.29248 57.561 9.83066 57.561 10.3928H61.561C61.561 7.53038 59.1972 5.29248 56.3844 5.29248V9.29248ZM3.17659 9.29248H56.3844V5.29248H3.17659V9.29248Z" fill="#ADADAD" mask="url(#path-1-inside-1)"/>
<mask id="path-3-inside-2" fill="white">
<path fill-rule="evenodd" clip-rule="evenodd" d="M26.9202 35.98L0.358398 9.06261L1.50241 7.9873L28.0642 34.9047C29.0013 35.8543 30.5591 35.8543 31.4963 34.9047L58.0581 7.9873L59.2021 9.06261L32.6403 35.98C31.0784 37.5627 28.4821 37.5627 26.9202 35.98Z"/>
</mask>
<path fill-rule="evenodd" clip-rule="evenodd" d="M26.9202 35.98L0.358398 9.06261L1.50241 7.9873L28.0642 34.9047C29.0013 35.8543 30.5591 35.8543 31.4963 34.9047L58.0581 7.9873L59.2021 9.06261L32.6403 35.98C31.0784 37.5627 28.4821 37.5627 26.9202 35.98Z" fill="#ADADAD"/>
<path d="M0.358398 9.06261L-1.01138 7.60532L-2.50452 9.00879L-1.06519 10.4674L0.358398 9.06261ZM26.9202 35.98L28.3438 34.5752L28.3438 34.5752L26.9202 35.98ZM1.50241 7.9873L2.92599 6.58252L1.55494 5.19312L0.132628 6.53001L1.50241 7.9873ZM28.0642 34.9047L29.4878 33.4999V33.4999L28.0642 34.9047ZM31.4963 34.9047L32.9198 36.3095L32.9198 36.3095L31.4963 34.9047ZM58.0581 7.9873L59.4279 6.53001L58.0056 5.19312L56.6345 6.58252L58.0581 7.9873ZM59.2021 9.06261L60.6257 10.4674L62.065 9.00879L60.5719 7.60532L59.2021 9.06261ZM32.6403 35.98L34.0639 37.3848V37.3848L32.6403 35.98ZM-1.06519 10.4674L25.4966 37.3848L28.3438 34.5752L1.78198 7.65783L-1.06519 10.4674ZM0.132628 6.53001L-1.01138 7.60532L1.72818 10.5199L2.87219 9.4446L0.132628 6.53001ZM29.4878 33.4999L2.92599 6.58252L0.0788239 9.39209L26.6406 36.3095L29.4878 33.4999ZM30.0727 33.4999C30.0009 33.5726 29.8995 33.6169 29.7802 33.6169C29.6609 33.6169 29.5596 33.5726 29.4878 33.4999L26.6406 36.3094C28.3609 38.0527 31.1996 38.0527 32.9198 36.3095L30.0727 33.4999ZM56.6345 6.58252L30.0727 33.4999L32.9198 36.3095L59.4817 9.39209L56.6345 6.58252ZM60.5719 7.60532L59.4279 6.53001L56.6883 9.4446L57.8323 10.5199L60.5719 7.60532ZM34.0639 37.3848L60.6257 10.4674L57.7785 7.65783L31.2167 34.5752L34.0639 37.3848ZM25.4966 37.3848C27.8416 39.7611 31.7189 39.7611 34.0639 37.3848L31.2167 34.5752C30.438 35.3643 29.1225 35.3643 28.3438 34.5752L25.4966 37.3848Z" fill="#ADADAD" mask="url(#path-3-inside-2)"/>
<mask id="path-5-inside-3" fill="white">
<path fill-rule="evenodd" clip-rule="evenodd" d="M39.6537 27.6764L52.7688 40.6868L51.6366 41.7739L38.5215 28.7635L39.6537 27.6764ZM7.41463 40.6868L20.5291 27.6764L21.6613 28.7635L8.54686 41.7739L7.41463 40.6868Z"/>
</mask>
<path fill-rule="evenodd" clip-rule="evenodd" d="M39.6537 27.6764L52.7688 40.6868L51.6366 41.7739L38.5215 28.7635L39.6537 27.6764ZM7.41463 40.6868L20.5291 27.6764L21.6613 28.7635L8.54686 41.7739L7.41463 40.6868Z" fill="#ADADAD"/>
<path d="M52.7688 40.6868L54.154 42.1294L55.6321 40.7101L54.1773 39.2669L52.7688 40.6868ZM39.6537 27.6764L41.0622 26.2565L39.6764 24.8818L38.2684 26.2337L39.6537 27.6764ZM51.6366 41.7739L50.2281 43.1938L51.6138 44.5685L53.0218 43.2166L51.6366 41.7739ZM38.5215 28.7635L37.1362 27.3209L35.6581 28.7402L37.1129 30.1834L38.5215 28.7635ZM20.5291 27.6764L21.9143 26.2337L20.5062 24.8818L19.1205 26.2565L20.5291 27.6764ZM7.41463 40.6868L6.00606 39.267L4.55128 40.7102L6.02945 42.1295L7.41463 40.6868ZM21.6613 28.7635L23.0699 30.1833L24.5247 28.7401L23.0465 27.3208L21.6613 28.7635ZM8.54686 41.7739L7.16169 43.2166L8.56971 44.5685L9.95544 43.1937L8.54686 41.7739ZM54.1773 39.2669L41.0622 26.2565L38.2451 29.0962L51.3603 42.1067L54.1773 39.2669ZM53.0218 43.2166L54.154 42.1294L51.3836 39.2442L50.2514 40.3313L53.0218 43.2166ZM37.1129 30.1834L50.2281 43.1938L53.0451 40.3541L39.93 27.3436L37.1129 30.1834ZM38.2684 26.2337L37.1362 27.3209L39.9067 30.2061L41.0389 29.119L38.2684 26.2337ZM19.1205 26.2565L6.00606 39.267L8.8232 42.1066L21.9376 29.0962L19.1205 26.2565ZM23.0465 27.3208L21.9143 26.2337L19.1439 29.119L20.2761 30.2062L23.0465 27.3208ZM9.95544 43.1937L23.0699 30.1833L20.2527 27.3436L7.13829 40.3541L9.95544 43.1937ZM6.02945 42.1295L7.16169 43.2166L9.93204 40.3312L8.7998 39.2441L6.02945 42.1295Z" fill="#ADADAD" mask="url(#path-5-inside-3)"/>
<circle class="fill-theme-color" cx="57.9511" cy="8.9023" r="8.04878" fill="#FEDA00"/>
<path d="M53.6169 8.88572L56.75 11.9973L62.2849 5.80591" stroke="white" stroke-width="2"/>
</svg>
