<svg width="39" height="28" viewBox="0 0 39 28" fill="none" xmlns="http://www.w3.org/2000/svg">
  <path class="stroke-theme-color" d="M32.3902 6.83264C32.3902 10.0443 29.7668 12.6551 26.5215 12.6551C23.2762 12.6551 20.6527 10.0443 20.6527 6.83264C20.6527 3.62103 23.2762 1.01016 26.5215 1.01016C29.7668 1.01016 32.3902 3.62103 32.3902 6.83264Z" stroke="#FEDA00" stroke-width="1.2"/>
  <path class="stroke-theme-color" d="M38 27.3904C38 21.0846 32.8513 15.9727 26.5 15.9727C20.1487 15.9727 15 21.0846 15 27.3904" stroke="#FEDA00" stroke-width="1.2"/>
  <path class="stroke-theme-color" d="M13.4 8.44509C13.4 10.3349 11.8753 11.8625 10 11.8625C8.12468 11.8625 6.6 10.3349 6.6 8.44509C6.6 6.55529 8.12468 5.02773 10 5.02773C11.8753 5.02773 13.4 6.55529 13.4 8.44509Z" stroke="#FEDA00" stroke-width="1.2"/>
  <path class="stroke-theme-color" d="M1 23.9327C1 19.2617 4.80558 15.4751 9.5 15.4751C11.1526 15.4751 12.695 15.9443 14 16.7562" stroke="#FEDA00" stroke-width="1.2"/>
</svg>
