<svg width="20" height="15" viewBox="0 0 20 15" fill="none" xmlns="http://www.w3.org/2000/svg">
<path d="M17.3483 7.47859C17.9273 6.9286 18.29 6.15732 18.29 5.30235C18.29 3.63739 16.921 2.28282 15.2383 2.28282C13.5556 2.28282 12.1867 3.63739 12.1867 5.30235C12.1867 6.16419 12.5555 6.94088 13.1427 7.49149C12.4957 7.81 11.9268 8.27193 11.4827 8.84524C10.9685 8.39704 10.3853 8.02441 9.74743 7.74317C10.7268 6.94025 11.3518 5.72827 11.3518 4.37432C11.3518 1.96244 9.36873 0 6.93098 0C4.49323 0 2.51012 1.96223 2.51012 4.37432C2.51012 5.72911 3.13603 6.94171 4.11643 7.74484C1.65722 8.83108 0 11.2852 0 13.9894C0 14.2192 0.188507 14.4057 0.420774 14.4057C0.653041 14.4057 0.841547 14.2192 0.841547 13.9894C0.841547 11.4237 2.53979 9.11357 4.99164 8.29899C5.5782 8.58398 6.23502 8.74864 6.9314 8.74864C7.62841 8.74864 8.28587 8.58377 8.87306 8.29816C11.3159 9.104 13.0091 11.4166 13.0091 13.9894C13.0091 14.2192 13.1976 14.4057 13.4298 14.4057C13.6621 14.4057 13.8506 14.2192 13.8506 13.9894C13.8506 12.2776 13.1908 10.667 12.0886 9.43915C12.562 8.79257 13.2209 8.30711 13.9773 8.04835C14.3623 8.22218 14.7885 8.32168 15.2385 8.32168C15.6951 8.32168 16.1268 8.21926 16.516 8.04065C18.0773 8.56192 19.1585 10.0433 19.1585 11.691C19.1585 11.9208 19.347 12.1073 19.5792 12.1073C19.8115 12.1073 20 11.9208 20 11.691C20 9.89213 18.9403 8.25361 17.3483 7.47859ZM5.34972 7.54645C5.2906 7.48733 5.21528 7.44736 5.13281 7.43133C4.06972 6.8166 3.35209 5.6781 3.35209 4.37411C3.35209 2.42125 4.95776 0.832481 6.9314 0.832481C8.90504 0.832481 10.5107 2.42125 10.5107 4.37411C10.5107 5.68581 9.78467 6.83055 8.71106 7.44278C8.65279 7.45943 8.59914 7.48837 8.55327 7.52751C8.06581 7.77398 7.51565 7.91596 6.93161 7.91596C6.36315 7.91596 5.8275 7.78085 5.34972 7.54645ZM14.2163 7.23919C14.2045 7.23253 14.1925 7.22691 14.1801 7.22129C13.4944 6.84949 13.0282 6.1288 13.0282 5.30215C13.0282 4.0962 14.0195 3.1153 15.2383 3.1153C16.4571 3.1153 17.4484 4.0962 17.4484 5.30215C17.4484 6.50788 16.4571 7.489 15.2383 7.489C14.8697 7.489 14.5224 7.39802 14.2163 7.23919Z" fill="#E0E0E0"/>
</svg>
