<svg width="88" height="80" viewBox="0 0 88 80" xmlns="http://www.w3.org/2000/svg">
  <path d="M83.1601 0H36.541C33.8732 0 31.7026 2.17597 31.7026 4.85047V15.705C22.859 18.2421 16.3672 26.42 16.3672 36.0895C16.3672 45.7591 22.8588 53.937 31.7026 56.4741V75.1495C31.7026 77.824 33.8732 80 36.541 80H74.6378C75.0898 80 75.5231 79.8201 75.8429 79.4997L87.4993 67.8141C87.8188 67.4938 87.9983 67.0592 87.9983 66.6061V4.85047C87.9983 2.17597 85.8279 0 83.1601 0ZM36.541 3.41674H83.1601C83.9485 3.41674 84.5901 4.0599 84.5901 4.85047V10.0063H35.1109V4.85047C35.1109 4.0599 35.7524 3.41674 36.541 3.41674ZM19.7755 36.0894C19.7755 26.2845 27.7325 18.3077 37.513 18.3077C47.2936 18.3077 55.2506 26.2845 55.2506 36.0894C55.2506 45.8943 47.2936 53.8712 37.513 53.8712C27.7325 53.8712 19.7755 45.8943 19.7755 36.0894ZM35.1109 75.1494V57.1503C35.8996 57.2401 36.7009 57.288 37.5132 57.288C43.8647 57.288 49.5707 54.4656 53.4501 50.0067H63.8917C64.8329 50.0067 65.5958 49.2419 65.5958 48.2984C65.5958 47.3549 64.8329 46.59 63.8917 46.59H55.8772C57.3595 43.9949 58.3091 41.0573 58.5785 37.9274H63.8915C64.8327 37.9274 65.5957 37.1626 65.5957 36.2191C65.5957 35.2755 64.8327 34.5107 63.8915 34.5107H58.6001C58.3697 31.3878 57.4608 28.4513 56.0219 25.8483H63.8914C64.8325 25.8483 65.5955 25.0834 65.5955 24.1399C65.5955 23.1964 64.8325 22.4315 63.8914 22.4315H53.6708C49.789 17.8233 43.9865 14.8908 37.5127 14.8908C36.7004 14.8908 35.8991 14.9386 35.1104 15.0284V13.4231H84.5896V64.8974H77.7716C75.1036 64.8974 72.9333 67.0733 72.9333 69.7477V76.5829H36.541C35.7524 76.5829 35.1109 75.9399 35.1109 75.1494ZM76.3421 74.1668V69.7478C76.3421 68.9573 76.9837 68.3143 77.7721 68.3143H82.1801L76.3421 74.1668Z"/>
  <path d="M70.5869 25.8494H76.2463C77.1874 25.8494 77.9504 25.0845 77.9504 24.141C77.9504 23.1975 77.1874 22.4326 76.2463 22.4326H70.5869C69.6458 22.4326 68.8828 23.1975 68.8828 24.141C68.8828 25.0845 69.6458 25.8494 70.5869 25.8494Z"/>
  <path d="M70.5869 37.9275H76.2463C77.1874 37.9275 77.9504 37.1626 77.9504 36.2191C77.9504 35.2756 77.1874 34.5107 76.2463 34.5107H70.5869C69.6458 34.5107 68.8828 35.2756 68.8828 36.2191C68.8828 37.1626 69.6458 37.9275 70.5869 37.9275Z"/>
  <path d="M70.5869 50.0076H76.2463C77.1874 50.0076 77.9504 49.2427 77.9504 48.2992C77.9504 47.3557 77.1874 46.5908 76.2463 46.5908H70.5869C69.6458 46.5908 68.8828 47.3557 68.8828 48.2992C68.8828 49.2427 69.6458 50.0076 70.5869 50.0076Z"/>
  <path d="M76.2474 62.0867C77.1886 62.0867 77.9516 61.3218 77.9516 60.3783C77.9516 59.4348 77.1886 58.6699 76.2474 58.6699H60.3057C59.3645 58.6699 58.6016 59.4348 58.6016 60.3783C58.6016 61.3218 59.3645 62.0867 60.3057 62.0867H76.2474Z"/>
  <rect width="4.99495" height="26.6278" rx="2.49747" transform="matrix(-0.639316 -0.768944 -0.76738 0.641192 23.6289 47.1758)"/>
</svg>
