<svg width="66" height="50" viewBox="0 0 66 50" fill="none" xmlns="http://www.w3.org/2000/svg">
<mask id="path-1-inside-1" fill="white">
<path fill-rule="evenodd" clip-rule="evenodd" d="M56.3844 8.8431H3.17659C2.2994 8.8431 1.58829 9.53712 1.58829 10.3932V46.0464C1.58829 46.9025 2.2994 47.5965 3.17659 47.5965H56.3844C57.2616 47.5965 57.9727 46.9025 57.9727 46.0464V10.3932C57.9727 9.53712 57.2616 8.8431 56.3844 8.8431ZM3.17659 7.29297C1.42221 7.29297 0 8.68101 0 10.3932V46.0464C0 47.7586 1.42221 49.1466 3.17659 49.1466H56.3844C58.1388 49.1466 59.561 47.7586 59.561 46.0464V10.3932C59.561 8.68101 58.1388 7.29297 56.3844 7.29297H3.17659Z"/>
</mask>
<path fill-rule="evenodd" clip-rule="evenodd" d="M56.3844 8.8431H3.17659C2.2994 8.8431 1.58829 9.53712 1.58829 10.3932V46.0464C1.58829 46.9025 2.2994 47.5965 3.17659 47.5965H56.3844C57.2616 47.5965 57.9727 46.9025 57.9727 46.0464V10.3932C57.9727 9.53712 57.2616 8.8431 56.3844 8.8431ZM3.17659 7.29297C1.42221 7.29297 0 8.68101 0 10.3932V46.0464C0 47.7586 1.42221 49.1466 3.17659 49.1466H56.3844C58.1388 49.1466 59.561 47.7586 59.561 46.0464V10.3932C59.561 8.68101 58.1388 7.29297 56.3844 7.29297H3.17659Z" fill="#ADADAD"/>
<path d="M3.17659 10.8431H56.3844V6.8431H3.17659V10.8431ZM3.58829 10.3932C3.58829 10.6873 3.35784 10.8431 3.17659 10.8431V6.8431C1.24095 6.8431 -0.411707 8.38699 -0.411707 10.3932H3.58829ZM3.58829 46.0464V10.3932H-0.411707V46.0464H3.58829ZM3.17659 45.5965C3.35784 45.5965 3.58829 45.7523 3.58829 46.0464H-0.411707C-0.411707 48.0526 1.24095 49.5965 3.17659 49.5965V45.5965ZM56.3844 45.5965H3.17659V49.5965H56.3844V45.5965ZM55.9727 46.0464C55.9727 45.7523 56.2031 45.5965 56.3844 45.5965V49.5965C58.32 49.5965 59.9727 48.0526 59.9727 46.0464H55.9727ZM55.9727 10.3932V46.0464H59.9727V10.3932H55.9727ZM56.3844 10.8431C56.2031 10.8431 55.9727 10.6873 55.9727 10.3932H59.9727C59.9727 8.38699 58.32 6.8431 56.3844 6.8431V10.8431ZM2 10.3932C2 9.83115 2.48065 9.29297 3.17659 9.29297V5.29297C0.363762 5.29297 -2 7.53087 -2 10.3932H2ZM2 46.0464V10.3932H-2V46.0464H2ZM3.17659 47.1466C2.48065 47.1466 2 46.6085 2 46.0464H-2C-2 48.9087 0.363764 51.1466 3.17659 51.1466V47.1466ZM56.3844 47.1466H3.17659V51.1466H56.3844V47.1466ZM57.561 46.0464C57.561 46.6084 57.0803 47.1466 56.3844 47.1466V51.1466C59.1972 51.1466 61.561 48.9087 61.561 46.0464H57.561ZM57.561 10.3932V46.0464H61.561V10.3932H57.561ZM56.3844 9.29297C57.0803 9.29297 57.561 9.83115 57.561 10.3932H61.561C61.561 7.53087 59.1972 5.29297 56.3844 5.29297V9.29297ZM3.17659 9.29297H56.3844V5.29297H3.17659V9.29297Z" fill="#ADADAD" mask="url(#path-1-inside-1)"/>
<mask id="path-3-inside-2" fill="white">
<path fill-rule="evenodd" clip-rule="evenodd" d="M26.9202 35.981L0.358398 9.06359L1.50241 7.98828L28.0642 34.9056C29.0013 35.8553 30.5591 35.8553 31.4963 34.9056L58.0581 7.98828L59.2021 9.06359L32.6403 35.981C31.0784 37.5637 28.4821 37.5637 26.9202 35.981Z"/>
</mask>
<path fill-rule="evenodd" clip-rule="evenodd" d="M26.9202 35.981L0.358398 9.06359L1.50241 7.98828L28.0642 34.9056C29.0013 35.8553 30.5591 35.8553 31.4963 34.9056L58.0581 7.98828L59.2021 9.06359L32.6403 35.981C31.0784 37.5637 28.4821 37.5637 26.9202 35.981Z" fill="#ADADAD"/>
<path d="M0.358398 9.06359L-1.01138 7.6063L-2.50452 9.00977L-1.06519 10.4684L0.358398 9.06359ZM26.9202 35.981L28.3438 34.5762L28.3438 34.5762L26.9202 35.981ZM1.50241 7.98828L2.92599 6.5835L1.55494 5.19409L0.132628 6.53099L1.50241 7.98828ZM28.0642 34.9056L29.4878 33.5009V33.5009L28.0642 34.9056ZM31.4963 34.9056L32.9198 36.3104L32.9198 36.3104L31.4963 34.9056ZM58.0581 7.98828L59.4279 6.53099L58.0056 5.19409L56.6345 6.5835L58.0581 7.98828ZM59.2021 9.06359L60.6257 10.4684L62.065 9.00977L60.5719 7.6063L59.2021 9.06359ZM32.6403 35.981L34.0639 37.3857V37.3857L32.6403 35.981ZM-1.06519 10.4684L25.4966 37.3857L28.3438 34.5762L1.78198 7.65881L-1.06519 10.4684ZM0.132628 6.53099L-1.01138 7.6063L1.72818 10.5209L2.87219 9.44557L0.132628 6.53099ZM29.4878 33.5009L2.92599 6.5835L0.0788239 9.39306L26.6406 36.3104L29.4878 33.5009ZM30.0727 33.5009C30.0009 33.5736 29.8995 33.6179 29.7802 33.6179C29.6609 33.6179 29.5596 33.5736 29.4878 33.5009L26.6406 36.3104C28.3609 38.0537 31.1996 38.0537 32.9198 36.3104L30.0727 33.5009ZM56.6345 6.5835L30.0727 33.5009L32.9198 36.3104L59.4817 9.39306L56.6345 6.5835ZM60.5719 7.6063L59.4279 6.53099L56.6883 9.44557L57.8323 10.5209L60.5719 7.6063ZM34.0639 37.3857L60.6257 10.4684L57.7785 7.65881L31.2167 34.5762L34.0639 37.3857ZM25.4966 37.3857C27.8416 39.7621 31.7189 39.7621 34.0639 37.3857L31.2167 34.5762C30.438 35.3653 29.1225 35.3653 28.3438 34.5762L25.4966 37.3857Z" fill="#ADADAD" mask="url(#path-3-inside-2)"/>
<mask id="path-5-inside-3" fill="white">
<path fill-rule="evenodd" clip-rule="evenodd" d="M39.6539 27.6778L52.769 40.6882L51.6368 41.7754L38.5217 28.765L39.6539 27.6778ZM7.41487 40.6883L20.5293 27.6778L21.6616 28.7649L8.54711 41.7754L7.41487 40.6883Z"/>
</mask>
<path fill-rule="evenodd" clip-rule="evenodd" d="M39.6539 27.6778L52.769 40.6882L51.6368 41.7754L38.5217 28.765L39.6539 27.6778ZM7.41487 40.6883L20.5293 27.6778L21.6616 28.7649L8.54711 41.7754L7.41487 40.6883Z" fill="#ADADAD"/>
<path d="M52.769 40.6882L54.1543 42.1309L55.6324 40.7116L54.1776 39.2684L52.769 40.6882ZM39.6539 27.6778L41.0624 26.258L39.6767 24.8833L38.2687 26.2352L39.6539 27.6778ZM51.6368 41.7754L50.2283 43.1953L51.6141 44.57L53.022 43.218L51.6368 41.7754ZM38.5217 28.765L37.1365 27.3223L35.6583 28.7416L37.1132 30.1848L38.5217 28.765ZM20.5293 27.6778L21.9145 26.2352L20.5065 24.8833L19.1208 26.258L20.5293 27.6778ZM7.41487 40.6883L6.0063 39.2684L4.55152 40.7117L6.0297 42.1309L7.41487 40.6883ZM21.6616 28.7649L23.0701 30.1848L24.5249 28.7415L23.0467 27.3223L21.6616 28.7649ZM8.54711 41.7754L7.16193 43.218L8.56995 44.5699L9.95568 43.1952L8.54711 41.7754ZM54.1776 39.2684L41.0624 26.258L38.2454 29.0977L51.3605 42.1081L54.1776 39.2684ZM53.022 43.218L54.1543 42.1309L51.3838 39.2456L50.2516 40.3328L53.022 43.218ZM37.1132 30.1848L50.2283 43.1953L53.0454 40.3555L39.9302 27.3451L37.1132 30.1848ZM38.2687 26.2352L37.1365 27.3223L39.9069 30.2076L41.0391 29.1205L38.2687 26.2352ZM19.1208 26.258L6.0063 39.2684L8.82344 42.1081L21.9379 29.0977L19.1208 26.258ZM23.0467 27.3223L21.9145 26.2352L19.1442 29.1205L20.2764 30.2076L23.0467 27.3223ZM9.95568 43.1952L23.0701 30.1848L20.253 27.3451L7.13854 40.3555L9.95568 43.1952ZM6.0297 42.1309L7.16193 43.218L9.93228 40.3327L8.80005 39.2456L6.0297 42.1309Z" fill="#ADADAD" mask="url(#path-5-inside-3)"/>
<circle class="fill-theme-color" cx="57.9511" cy="8.9023" r="8.04878" fill="#FEDA00"/>
<path d="M53.6172 8.88645L56.7503 11.998L62.2851 5.80664" stroke="white" stroke-width="2"/>
</svg>
