<svg width="24" height="24" viewBox="0 0 24 24" fill="none" xmlns="http://www.w3.org/2000/svg">
<mask id="path-1-inside-1" fill="white">
<path fill-rule="evenodd" clip-rule="evenodd" d="M9.05682 11.1031L15.3273 4.97662L18.9819 8.54723L12.7083 14.6766L9.05682 11.1031ZM7.60886 12.5178L5.02311 15.0441L8.67767 18.6147L11.2604 16.0913L7.60886 12.5178ZM3.59255 16.4418C2.80248 15.6699 2.80248 14.4183 3.59255 13.6464L13.8968 3.57894C14.6868 2.80702 15.9678 2.80702 16.7579 3.57894L20.4124 7.14954C21.2025 7.92146 21.2025 9.17299 20.4124 9.94491L9.39295 20.7112C8.99791 21.0972 8.35743 21.0972 7.9624 20.7112L3.59255 16.4418Z"/>
</mask>
<path fill-rule="evenodd" clip-rule="evenodd" d="M9.05682 11.1031L15.3273 4.97662L18.9819 8.54723L12.7083 14.6766L9.05682 11.1031ZM7.60886 12.5178L5.02311 15.0441L8.67767 18.6147L11.2604 16.0913L7.60886 12.5178ZM3.59255 16.4418C2.80248 15.6699 2.80248 14.4183 3.59255 13.6464L13.8968 3.57894C14.6868 2.80702 15.9678 2.80702 16.7579 3.57894L20.4124 7.14954C21.2025 7.92146 21.2025 9.17299 20.4124 9.94491L9.39295 20.7112C8.99791 21.0972 8.35743 21.0972 7.9624 20.7112L3.59255 16.4418Z" fill="#B5B8BB"/>
<path d="M15.3273 4.97662L16.0262 4.26135L15.3273 3.57856L14.6285 4.26135L15.3273 4.97662ZM9.05682 11.1031L8.35798 10.3878L7.62649 11.1025L8.35738 11.8178L9.05682 11.1031ZM18.9819 8.54723L19.6807 9.2625L20.4128 8.54723L19.6807 7.83195L18.9819 8.54723ZM12.7083 14.6766L12.0089 15.3913L12.7078 16.0753L13.4072 15.3919L12.7083 14.6766ZM7.60886 12.5178L8.3083 11.8031L7.60945 11.1191L6.91002 11.8025L7.60886 12.5178ZM5.02311 15.0441L4.32426 14.3288L3.59217 15.0441L4.32426 15.7594L5.02311 15.0441ZM8.67767 18.6147L7.97883 19.33L8.67767 20.0128L9.37651 19.33L8.67767 18.6147ZM11.2604 16.0913L11.9592 16.8066L12.6907 16.0919L11.9598 15.3766L11.2604 16.0913ZM3.59255 13.6464L4.2914 14.3617L4.2914 14.3617L3.59255 13.6464ZM3.59255 16.4418L4.2914 15.7265H4.2914L3.59255 16.4418ZM13.8968 3.57894L14.5956 4.29421V4.29421L13.8968 3.57894ZM16.7579 3.57894L16.059 4.29422V4.29422L16.7579 3.57894ZM20.4124 7.14954L21.1113 6.43427V6.43427L20.4124 7.14954ZM20.4124 9.94491L19.7136 9.22964L20.4124 9.94491ZM9.39295 20.7112L10.0918 21.4265L9.39295 20.7112ZM7.9624 20.7112L7.26356 21.4265L7.9624 20.7112ZM14.6285 4.26135L8.35798 10.3878L9.75566 11.8183L16.0262 5.6919L14.6285 4.26135ZM19.6807 7.83195L16.0262 4.26135L14.6285 5.6919L18.283 9.2625L19.6807 7.83195ZM13.4072 15.3919L19.6807 9.2625L18.283 7.83195L12.0095 13.9614L13.4072 15.3919ZM8.35738 11.8178L12.0089 15.3913L13.4078 13.9619L9.75626 10.3884L8.35738 11.8178ZM6.91002 11.8025L4.32426 14.3288L5.72195 15.7594L8.30771 13.233L6.91002 11.8025ZM4.32426 15.7594L7.97883 19.33L9.37651 17.8994L5.72195 14.3288L4.32426 15.7594ZM9.37651 19.33L11.9592 16.8066L10.5615 15.3761L7.97883 17.8994L9.37651 19.33ZM11.9598 15.3766L8.3083 11.8031L6.90943 13.2324L10.5609 16.806L11.9598 15.3766ZM2.89371 12.9311C1.7021 14.0954 1.7021 15.9928 2.89371 17.1571L4.2914 15.7265C3.90287 15.3469 3.90287 14.7413 4.2914 14.3617L2.89371 12.9311ZM13.1979 2.86366L2.89371 12.9311L4.2914 14.3617L14.5956 4.29421L13.1979 2.86366ZM17.4567 2.86366C16.2781 1.71211 14.3766 1.71211 13.1979 2.86366L14.5956 4.29421C14.9971 3.90193 15.6575 3.90193 16.059 4.29422L17.4567 2.86366ZM21.1113 6.43427L17.4567 2.86366L16.059 4.29422L19.7136 7.86482L21.1113 6.43427ZM21.1113 10.6602C22.3029 9.49595 22.3029 7.59851 21.1113 6.43427L19.7136 7.86482C20.1021 8.24442 20.1021 8.85004 19.7136 9.22964L21.1113 10.6602ZM10.0918 21.4265L21.1113 10.6602L19.7136 9.22964L8.69411 19.996L10.0918 21.4265ZM7.26356 21.4265C8.04715 22.1921 9.3082 22.1921 10.0918 21.4265L8.69411 19.996C8.6927 19.9973 8.69174 19.9979 8.68998 19.9986C8.68754 19.9996 8.68326 20.0007 8.67767 20.0007C8.67209 20.0007 8.6678 19.9996 8.66537 19.9986C8.6636 19.9979 8.66264 19.9973 8.66124 19.996L7.26356 21.4265ZM2.89371 17.1571L7.26356 21.4265L8.66124 19.996L4.2914 15.7265L2.89371 17.1571Z" fill="#B5B8BB" mask="url(#path-1-inside-1)"/>
<path d="M8.43555 19.6924C8.43555 19.6924 8.94705 20.1924 9.45855 20.1924C12.0161 20.1924 16.6196 20.1924 16.6196 20.1924" stroke="#B5B8BB" stroke-width="2" stroke-linecap="round"/>
</svg>
