<svg width="24" height="24" viewBox="0 0 24 24" fill="none" xmlns="http://www.w3.org/2000/svg">
<path class="fill-theme-color" d="M12 24C18.6274 24 24 18.6274 24 12C24 5.37258 18.6274 0 12 0C5.37258 0 0 5.37258 0 12C0 18.6274 5.37258 24 12 24Z" fill="#FEDA00"/>
<path d="M11.8774 7.35671C11.5607 7.35671 11.2922 7.26033 11.0719 7.06756C10.8653 6.86102 10.762 6.60628 10.762 6.30336C10.762 6.00043 10.8653 5.75258 11.0719 5.55981C11.2922 5.35327 11.5607 5.25 11.8774 5.25C12.1941 5.25 12.4557 5.35327 12.6622 5.55981C12.8825 5.75258 12.9927 6.00043 12.9927 6.30336C12.9927 6.60628 12.8825 6.86102 12.6622 7.06756C12.4557 7.26033 12.1941 7.35671 11.8774 7.35671ZM9.75 16.1553H11.3197V10.2276H9.77065V9.13296H12.8275V16.1553H14.2939V17.25H9.75V16.1553Z" fill="#020303"/>
</svg>
