<svg width="593" height="700" viewBox="0 0 593 700" fill="none" xmlns="http://www.w3.org/2000/svg">
<path class="stroke-theme-color" d="M0.654297 0.490234C0.654297 0.490234 10.4722 15.234 69.3795 43.0833C94.7423 55.0421 206.83 123.355 218.284 139.737C229.738 156.119 275.555 203.626 296.827 252.772C313.19 249.496 390.261 228.199 409.733 224.923C429.368 221.646 435.914 210.179 403.187 198.712C371.443 187.572 239.556 139.737 234.484 137.935C232.193 137.116 215.993 128.433 206.83 154.48C197.012 182.33 167.558 262.601 167.558 262.601C167.558 262.601 154.468 287.174 183.921 297.003C213.375 306.832 350.825 355.978 350.825 355.978C350.825 355.978 375.37 372.36 388.461 337.958C401.551 303.556 419.551 259.325 421.187 259.325C422.823 259.325 481.73 260.963 512.82 292.089C543.91 323.214 566.819 354.34 534.092 424.782C501.039 495.88 481.73 511.607 481.73 511.607L351.316 474.583C350.171 474.256 336.917 471.635 355.734 460.823C377.661 448.208 522.638 395.295 534.092 392.018C545.219 388.906 554.874 380.551 563.546 419.868C573.364 464.099 589.727 514.883 589.727 514.883C589.727 514.883 601.181 536.179 575 547.647C548.819 559.114 416.278 601.707 416.278 601.707C416.278 601.707 393.37 613.175 381.915 580.411C370.461 547.647 355.734 518.159 355.734 518.159C355.734 518.159 345.589 489.163 273.919 544.37C252.647 560.752 255.919 559.114 224.829 593.516C194.394 627.099 179.012 673.788 177.376 686.893C175.74 699.999 175.74 699.999 175.74 699.999" stroke="#FEDA00" stroke-width="2" stroke-miterlimit="10"/>
</svg>
