<svg width="26" height="34" viewBox="0 0 26 34" fill="none" xmlns="http://www.w3.org/2000/svg">
  <path class="stroke-theme-color" d="M1 3.58051C1.00922 2.88691 1.28926 2.22542 1.77853 1.74154C2.26779 1.25766 2.92622 0.991009 3.609 1.00023H18L21.5 4.46228L25 7.92432V30.4195C24.9908 31.1131 24.7107 31.7746 24.2215 32.2585C23.7322 32.7423 23.0738 33.009 22.391 32.9998H3.609C2.92622 33.009 2.26779 32.7423 1.77853 32.2585C1.28926 31.7746 1.00922 31.1131 1 30.4195V3.58051Z" stroke="#FEDA00"/>
  <path class="fill-theme-color" d="M20 8H25L18 1V6C18 6.53043 18.2107 7.03914 18.5858 7.41421C18.9609 7.78929 19.4696 8 20 8Z" fill="#FEDA00"/>
</svg>
