<svg width="26" height="26" viewBox="0 0 26 26" fill="none" xmlns="http://www.w3.org/2000/svg">
<path d="M22.5188 14.2472C22.5668 13.8472 22.5988 13.4312 22.5988 12.9992C22.5988 12.5672 22.5668 12.1512 22.5028 11.7512L25.2068 9.63922C25.4468 9.44722 25.5108 9.09522 25.3668 8.82322L22.8068 4.39122C22.6468 4.10322 22.3108 4.00722 22.0228 4.10322L18.8388 5.38322C18.1668 4.87122 17.4628 4.45522 16.6788 4.13522L16.1988 0.743219C16.1508 0.423219 15.8788 0.199219 15.5588 0.199219H10.4388C10.1188 0.199219 9.86284 0.423219 9.81484 0.743219L9.33484 4.13522C8.55084 4.45522 7.83084 4.88722 7.17484 5.38322L3.99084 4.10322C3.70284 3.99122 3.36684 4.10322 3.20684 4.39122L0.64684 8.82322C0.48684 9.11122 0.55084 9.44722 0.80684 9.63922L3.51084 11.7512C3.44684 12.1512 3.39884 12.5832 3.39884 12.9992C3.39884 13.4152 3.43084 13.8472 3.49484 14.2472L0.79084 16.3592C0.55084 16.5512 0.48684 16.9032 0.63084 17.1752L3.19084 21.6072C3.35084 21.8952 3.68684 21.9912 3.97484 21.8952L7.15884 20.6152C7.83084 21.1272 8.53484 21.5432 9.31884 21.8632L9.79884 25.2552C9.86284 25.5752 10.1188 25.7992 10.4388 25.7992H15.5588C15.8788 25.7992 16.1508 25.5752 16.1828 25.2552L16.6628 21.8632C17.4468 21.5432 18.1668 21.1112 18.8228 20.6152L22.0068 21.8952C22.2948 22.0072 22.6308 21.8952 22.7908 21.6072L25.3508 17.1752C25.5108 16.8872 25.4468 16.5512 25.1908 16.3592L22.5188 14.2472ZM12.9988 17.7992C10.3588 17.7992 8.19884 15.6392 8.19884 12.9992C8.19884 10.3592 10.3588 8.19922 12.9988 8.19922C15.6388 8.19922 17.7988 10.3592 17.7988 12.9992C17.7988 15.6392 15.6388 17.7992 12.9988 17.7992Z" fill="#A6A6A6"/>
</svg>
