<svg width="32" height="32" viewBox="0 0 32 32" fill="none" xmlns="http://www.w3.org/2000/svg">
<path class="stroke-theme-color" d="M28.6827 16.0001C28.6827 23.0049 23.0042 28.6834 15.9993 28.6834C8.99454 28.6834 3.31602 23.0049 3.31602 16.0001C3.31602 8.99527 8.99454 3.31675 15.9993 3.31675C23.0042 3.31675 28.6827 8.99527 28.6827 16.0001Z" stroke="#FEDA00" stroke-width="1.3"/>
<path class="fill-theme-color" d="M15.8637 10.8408C15.5119 10.8408 15.2135 10.7337 14.9687 10.5195C14.7392 10.29 14.6245 10.007 14.6245 9.6704C14.6245 9.33381 14.7392 9.05842 14.9687 8.84423C15.2135 8.61474 15.5119 8.5 15.8637 8.5C16.2156 8.5 16.5063 8.61474 16.7358 8.84423C16.9806 9.05842 17.103 9.33381 17.103 9.6704C17.103 10.007 16.9806 10.29 16.7358 10.5195C16.5063 10.7337 16.2156 10.8408 15.8637 10.8408ZM13.5 20.617H15.2441V14.0307H13.5229V12.8144H16.9194V20.617H18.5488V21.8333H13.5V20.617Z" fill="#FEDA00"/>
</svg>
