<svg width="20" height="20" viewBox="0 0 20 20" fill="none" xmlns="http://www.w3.org/2000/svg">
  <path d="M10.5 1.99982C6.36628 1.99982 3 5.3661 3 9.49982C3 13.6335 6.36628 16.9998 10.5 16.9998C14.6337 16.9998 18 13.6335 18 9.49982C18 5.3661 14.6337 1.99982 10.5 1.99982ZM10.5 15.9533C6.94186 15.9533 4.04651 13.058 4.04651 9.49982C4.04651 5.94168 6.94186 3.04633 10.5 3.04633C14.0581 3.04633 16.9535 5.94168 16.9535 9.49982C16.9535 13.058 14.0581 15.9533 10.5 15.9533Z" fill="#C3C6C8"/>
  <path d="M10.4998 7.93048C10.2033 7.93048 9.97656 8.15723 9.97656 8.45374V12.4654C9.97656 12.7619 10.2033 12.9886 10.4998 12.9886C10.7963 12.9886 11.0231 12.7619 11.0231 12.4654V8.45374C11.0231 8.15723 10.7963 7.93048 10.4998 7.93048Z" fill="#C3C6C8"/>
  <path d="M10.4999 6.01172C10.1162 6.01172 9.80225 6.32567 9.80225 6.70939C9.80225 7.09311 10.1162 7.40707 10.4999 7.40707C10.8836 7.40707 11.1976 7.09311 11.1976 6.70939C11.1976 6.32567 10.8836 6.01172 10.4999 6.01172Z" fill="#C3C6C8"/>
</svg>
