<svg width="140" height="140" viewBox="0 0 140 140" fill="none" xmlns="http://www.w3.org/2000/svg">
  <circle cx="70" cy="70" r="70" fill="white"/>
  <g clip-path="url(#clip1)">
    <path
      d="M72.2736 86.2148C71.3205 87.168 71.3205 88.7108 72.2736 89.6615C73.2268 90.6146 74.7696 90.6146 75.7202 89.6615L92.5365 72.8428C93.0436 72.3357 93.2606 71.6606 93.2263 70.9975C93.2606 70.332 93.0435 69.6593 92.5365 69.1523L75.7202 52.3361C74.7696 51.383 73.2242 51.383 72.2736 52.3361C71.3205 53.2892 71.3205 54.8321 72.2736 55.7826L85.0533 68.5624H32.4375C31.092 68.5625 30 69.6545 30 71C30 72.3455 31.092 73.4375 32.4375 73.4375H85.0533L72.2736 86.2148ZM98.25 36.875H49.5C44.1156 36.875 39.75 41.2406 39.75 46.625V56.375H44.625V46.625C44.625 43.934 46.8066 41.75 49.5 41.75H98.25C100.943 41.75 103.125 43.934 103.125 46.625V95.375C103.125 98.066 100.943 100.25 98.25 100.25H49.5C46.8066 100.25 44.625 98.0684 44.625 95.375V85.625H39.75V95.375C39.75 100.759 44.1156 105.125 49.5 105.125H98.25C103.634 105.125 108 100.759 108 95.375V46.625C108 41.2406 103.634 36.875 98.25 36.875Z"
      fill="#EFEFFE"/>
  </g>
  <defs>
    <clipPath id="clip1">
      <rect width="78" height="78" fill="white" transform="translate(30 32)"/>
    </clipPath>
  </defs>
</svg>
