<svg width="16" height="11" viewBox="0 0 16 11" fill="none" xmlns="http://www.w3.org/2000/svg">
<path d="M2.36585 0.317261C1.61509 0.317261 1 0.932351 1 1.68311V8.51236C1 9.26312 1.61509 9.87821 2.36585 9.87821H13.6341C14.3849 9.87821 15 9.26312 15 8.51236V1.68311C15 0.932351 14.3849 0.317261 13.6341 0.317261H2.36585ZM2.36585 1.00019H13.6341C13.7328 1.00019 13.8224 1.0231 13.9062 1.05889L8.42681 5.95139C8.16798 6.18253 7.84311 6.18256 7.58383 5.95139L2.09374 1.05889C2.17752 1.0231 2.26718 1.00019 2.36585 1.00019ZM1.68825 1.61376L5.61507 5.11375L1.75762 8.82181C1.71251 8.72993 1.68293 8.62387 1.68293 8.51236V1.68311C1.68293 1.65921 1.686 1.63695 1.68822 1.61376H1.68825ZM14.3117 1.61376C14.3139 1.63695 14.317 1.65921 14.317 1.68311V8.51236C14.317 8.62387 14.2874 8.72993 14.2423 8.82181L10.3955 5.10841L14.3117 1.61376H14.3117ZM9.88335 5.56725L13.6501 9.19529C13.6447 9.19541 13.6395 9.19529 13.6341 9.19529H2.36582C2.36035 9.19529 2.35523 9.19541 2.34977 9.19529L6.1272 5.57257L7.13024 6.46359C7.6298 6.90897 8.3808 6.90962 8.88024 6.46359L9.88329 5.56725H9.88335Z" fill="#C3C6C8" stroke="#C3C6C8" stroke-width="0.25"/>
</svg>
