<svg width="16" height="14" viewBox="0 0 16 14" fill="none" xmlns="http://www.w3.org/2000/svg">
<path d="M0 5.49929H2.90909V14H0V5.49929Z" fill="#C4C4C4"/>
<path d="M4.36364 5.27667C4.36364 4.99405 4.47923 4.72307 4.68485 4.52367L9.18984 0.154791C9.40009 -0.0491091 9.7391 -0.0519225 9.95289 0.148459L10.3183 0.490968C10.5995 0.754477 10.7147 1.14417 10.6206 1.51298L9.77273 4.83517H14.9091C15.5116 4.83517 16 5.31091 16 5.89776V7.57883C16 7.87174 15.9378 8.16149 15.8174 8.42988L13.604 13.3629C13.4304 13.7499 13.038 14 12.6044 14H5.45455C4.85205 14 4.36364 13.5243 4.36364 12.9374V5.27667Z" fill="#C4C4C4"/>
</svg>
