<svg width="30" height="27" viewBox="0 0 30 27" fill="none" xmlns="http://www.w3.org/2000/svg">
<path d="M0 10.6058H5.45455V27H0V10.6058Z" fill="#E3E3E3"/>
<path d="M8.18182 10.1764C8.18182 9.63138 8.39855 9.10878 8.78409 8.72421L17.2309 0.298526C17.6252 -0.0947104 18.2608 -0.100136 18.6617 0.286313L19.3468 0.946867C19.874 1.45506 20.0901 2.20662 19.9136 2.9179L18.3239 9.32497H27.9545C29.0842 9.32497 30 10.2425 30 11.3742V14.6163C30 15.1812 29.8834 15.74 29.6576 16.2576L25.5075 25.7714C25.182 26.5177 24.4462 27 23.6333 27H10.2273C9.0976 27 8.18182 26.0825 8.18182 24.9507V10.1764Z" fill="#E3E3E3"/>
</svg>
