<svg width="20" height="18" viewBox="0 0 20 18" fill="none" xmlns="http://www.w3.org/2000/svg">
<path d="M0 7.07052H3.63636V18H0V7.07052Z" fill="white"/>
<path d="M5.45455 6.7843C5.45455 6.42092 5.59903 6.07252 5.85606 5.81614L11.4873 0.199018C11.7501 -0.0631403 12.1739 -0.0667576 12.4411 0.190876L12.8979 0.631245C13.2493 0.970042 13.3934 1.47108 13.2757 1.94527L12.2159 6.21665H18.6364C19.3895 6.21665 20 6.82831 20 7.58284V9.74421C20 10.1208 19.9223 10.4933 19.7718 10.8384L17.005 17.1809C16.788 17.6785 16.2975 18 15.7555 18H6.81818C6.06507 18 5.45455 17.3883 5.45455 16.6338V6.7843Z" fill="white"/>
</svg>
