<svg width="17" height="25" viewBox="0 0 17 25" fill="none" xmlns="http://www.w3.org/2000/svg">
<path d="M8.5 0C3.81307 0 0 3.91827 0 8.73446C0 14.7115 7.60667 23.4861 7.93053 23.8568C8.23472 24.2049 8.76583 24.2043 9.06947 23.8568C9.39333 23.4861 17 14.7115 17 8.73446C16.9999 3.91827 13.1869 0 8.5 0ZM8.5 13.129C6.14189 13.129 4.22348 11.1576 4.22348 8.73446C4.22348 6.3113 6.14194 4.33996 8.5 4.33996C10.8581 4.33996 12.7765 6.31134 12.7765 8.73451C12.7765 11.1577 10.8581 13.129 8.5 13.129Z" fill="#E0E0E0"/>
</svg>
