<svg width="20" height="20" viewBox="0 0 20 20" fill="none" xmlns="http://www.w3.org/2000/svg">
<path d="M11.7898 7.73858C11.9612 7.73858 12.1256 7.67051 12.2467 7.54933C12.3679 7.42815 12.436 7.2638 12.436 7.09243V4.93858C12.436 4.42447 12.2318 3.93142 11.8682 3.56788C11.5047 3.20435 11.0116 3.00012 10.4975 3.00012H4.93846C4.42435 3.00012 3.93129 3.20435 3.56776 3.56788C3.20423 3.93142 3 4.42447 3 4.93858V15.0617C3 15.5758 3.20423 16.0688 3.56776 16.4324C3.93129 16.7959 4.42435 17.0001 4.93846 17.0001H10.4954C11.0095 17.0001 11.5026 16.7959 11.8661 16.4324C12.2296 16.0688 12.4338 15.5758 12.4338 15.0617V13.1232C12.4338 12.9518 12.3658 12.7875 12.2446 12.6663C12.1234 12.5451 11.9591 12.477 11.7877 12.477C11.6163 12.477 11.452 12.5451 11.3308 12.6663C11.2096 12.7875 11.1415 12.9518 11.1415 13.1232V15.0617C11.1415 15.233 11.0735 15.3974 10.9523 15.5186C10.8311 15.6397 10.6668 15.7078 10.4954 15.7078H4.93846C4.76709 15.7078 4.60274 15.6397 4.48156 15.5186C4.36038 15.3974 4.29231 15.233 4.29231 15.0617V4.93858C4.29231 4.76721 4.36038 4.60286 4.48156 4.48168C4.60274 4.36051 4.76709 4.29243 4.93846 4.29243H10.4954C10.6668 4.29243 10.8311 4.36051 10.9523 4.48168C11.0735 4.60286 11.1415 4.76721 11.1415 4.93858V7.09243C11.1415 7.17747 11.1583 7.26166 11.1909 7.3402C11.2235 7.41874 11.2713 7.49006 11.3316 7.55009C11.3918 7.61012 11.4633 7.65767 11.5419 7.69002C11.6206 7.72236 11.7048 7.73887 11.7898 7.73858Z" fill="currentColor"/>
<path d="M7.15869 10.1077C7.15869 10.279 7.22677 10.4434 7.34795 10.5646C7.46912 10.6857 7.63347 10.7538 7.80485 10.7538H16.6808L14.2858 13.1231C14.1706 13.2447 14.1072 13.4063 14.1089 13.5738C14.1106 13.7413 14.1773 13.9016 14.2949 14.0209C14.4125 14.1402 14.5719 14.2091 14.7393 14.2132C14.9068 14.2173 15.0693 14.1562 15.1925 14.0427L18.7055 10.5686C18.7663 10.5085 18.8147 10.4369 18.8477 10.3579C18.8807 10.279 18.8977 10.1943 18.8977 10.1087C18.8977 10.0232 18.8807 9.93848 18.8477 9.85954C18.8147 9.7806 18.7663 9.709 18.7055 9.6489L15.1925 6.17905C15.0693 6.06564 14.9068 6.00453 14.7393 6.00861C14.5719 6.01269 14.4125 6.08164 14.2949 6.20092C14.1773 6.3202 14.1106 6.48049 14.1089 6.64798C14.1072 6.81548 14.1706 6.97709 14.2858 7.09874L16.6808 9.46797H7.80485C7.63459 9.46797 7.47121 9.53516 7.35022 9.65494C7.22922 9.77472 7.16039 9.93742 7.15869 10.1077Z" fill="currentColor"/>
</svg>
