<svg xmlns="http://www.w3.org/2000/svg" width="114" height="36" viewBox="0 0 114 36" fill="none">
  <path d="M20.9416 34.8941L22.8139 31.5709H29.3321L30.0949 34.8941H33.2847L29.8175 19.178H26.4891L17.5438 34.8941H20.9416ZM24.4088 28.6631L27.5292 23.0551L28.7774 28.6631H24.4088Z" fill="white"/>
  <path d="M36.1971 23.0551L33.7701 34.9634H36.5439L37.792 28.94C38.0694 27.6938 38.4161 26.7245 38.9709 26.1707C39.5256 25.5475 40.219 25.2706 41.1205 25.2706C41.7446 25.2706 42.23 25.4091 42.5074 25.7553C42.8541 26.1014 42.9928 26.5861 42.9928 27.2092C42.9928 27.4169 42.9928 27.6938 42.9234 27.9015C42.9234 28.1092 42.8541 28.3862 42.7847 28.6631L41.5366 34.9634H44.449L45.4891 29.5631C45.6278 28.94 45.6971 28.3169 45.7665 27.8323C45.8358 27.3476 45.9052 27.0015 45.9052 26.7245C45.9052 25.4091 45.5585 24.4398 44.7957 23.8167C44.0329 23.1936 42.9928 22.8474 41.5366 22.8474C40.9818 22.8474 40.4271 22.9859 39.8723 23.1936C39.3869 23.4013 38.8322 23.7475 38.4161 24.2321L38.6935 23.1244C38.6242 23.0551 36.1971 23.0551 36.1971 23.0551Z" fill="white"/>
  <path d="M58.1096 34.8942L61.1607 19.178H58.3176L57.2774 24.5782C56.792 23.9551 56.168 23.5397 55.4745 23.2628C54.7811 22.9859 54.0877 22.7782 53.2555 22.7782C52.2154 22.7782 51.2446 22.9859 50.3431 23.4705C49.4417 23.8859 48.6789 24.5782 48.1242 25.4091C47.6388 26.0322 47.3614 26.6553 47.084 27.3476C46.876 28.04 46.7373 28.7323 46.7373 29.4246C46.7373 31.1555 47.2227 32.6094 48.2629 33.6479C49.303 34.6864 50.6205 35.2403 52.2848 35.2403C52.9088 35.2403 53.4636 35.1711 53.949 34.9634C54.4344 34.7557 54.9198 34.4787 55.3358 34.1326L55.1972 34.9634L58.1096 34.8942ZM55.6826 26.1706C56.2373 26.7937 56.584 27.5553 56.584 28.4554C56.584 29.6323 56.2373 30.6016 55.4745 31.3632C54.7118 32.1248 53.8103 32.5402 52.7702 32.5402C51.7993 32.5402 51.0366 32.2632 50.4818 31.6401C49.9271 31.017 49.6497 30.2555 49.6497 29.2862C49.6497 28.1784 50.0658 27.2091 50.7592 26.3783C51.522 25.6168 52.4234 25.2014 53.4636 25.2014C54.365 25.2706 55.0585 25.5475 55.6826 26.1706Z" fill="white"/>
  <path d="M64.7664 25.9629C65.3212 25.5475 66.0146 25.3398 66.7774 25.3398C67.6095 25.3398 68.3029 25.5475 68.8577 25.9629C69.4124 26.3783 69.8285 26.9322 69.9672 27.6937H63.4489C63.7263 26.9322 64.2117 26.3783 64.7664 25.9629ZM69.2044 31.1555C68.7883 31.6401 68.3723 31.9863 67.8869 32.2632C67.4015 32.4709 66.8467 32.6094 66.2226 32.6094C65.3905 32.6094 64.6971 32.4017 64.2117 31.917C63.7263 31.4324 63.3102 30.8093 63.1715 29.9092H72.6715C72.7409 29.6323 72.7409 29.2861 72.8102 29.0784C72.8102 28.8015 72.8796 28.5938 72.8796 28.3861C72.8796 26.7245 72.3248 25.3398 71.2153 24.232C70.1059 23.1243 68.719 22.6396 67.0548 22.6396C66.2226 22.6396 65.4599 22.7781 64.6971 23.0551C63.9343 23.332 63.3102 23.7474 62.7555 24.232C61.9927 24.9244 61.438 25.686 61.0219 26.586C60.6059 27.486 60.3978 28.4553 60.3978 29.4246C60.3978 31.0862 60.9526 32.4709 62.0621 33.5787C63.1716 34.6864 64.5584 35.171 66.2226 35.171C67.6789 35.171 68.927 34.8249 69.9672 34.1325C71.0073 33.4402 71.8394 32.4709 72.3248 31.1555H69.2044Z" fill="white"/>
  <path d="M75.792 34.8941L76.9709 28.8707C77.2483 27.5553 77.6643 26.6552 78.2884 26.1706C78.9125 25.686 79.8139 25.409 81.1315 25.409L81.6862 22.6396H81.6169C80.7154 22.6396 79.9526 22.7781 79.2592 23.1243C78.5658 23.4705 78.011 23.8859 77.5256 24.5782L77.8723 22.9858H75.3066L72.8796 34.8941H75.792Z" fill="white"/>
  <path d="M80.5073 31.2247C80.5073 31.2939 80.5073 31.3631 80.5073 31.4324C80.5073 32.6093 80.854 33.5094 81.6168 34.2017C82.3796 34.8941 83.4197 35.2402 84.7372 35.2402C85.9161 35.2402 86.9562 34.8248 87.719 34.1325C88.4818 33.3709 88.8978 32.4016 88.8978 31.2939C88.8978 30.6015 88.6898 30.0477 88.3431 29.563C87.9964 29.0784 87.3029 28.5245 86.3321 27.9014C86.2628 27.8322 86.1241 27.7629 85.9854 27.6937C85.0146 27.1398 84.5986 26.586 84.5986 26.2398C84.5986 25.9629 84.7373 25.7551 84.9453 25.5474C85.1533 25.3397 85.4307 25.2705 85.7081 25.2705C86.0548 25.2705 86.2628 25.409 86.4708 25.6167C86.6095 25.8244 86.7482 26.1706 86.7482 26.6552H89.5913V26.309C89.5913 25.2705 89.2445 24.3705 88.5511 23.7474C87.8577 23.055 86.9562 22.7781 85.8467 22.7781C84.6679 22.7781 83.6971 23.1242 82.9343 23.8858C82.1716 24.5782 81.7555 25.4782 81.7555 26.5167C81.7555 26.9321 81.8248 27.2783 81.9635 27.6245C82.1022 27.9706 82.3102 28.3168 82.5876 28.663C82.7263 28.8015 83.1424 29.1476 83.9051 29.563C84.3212 29.7707 84.5986 29.9784 84.8066 30.1169C85.2227 30.3938 85.5694 30.6015 85.7081 30.8785C85.8467 31.0862 85.9854 31.3631 85.9854 31.6401C85.9854 31.9862 85.8467 32.2632 85.6387 32.4709C85.4307 32.6786 85.1533 32.817 84.8066 32.817C84.3905 32.817 84.0438 32.6786 83.7664 32.4016C83.5584 32.1247 83.4197 31.7093 83.4197 31.2247V31.1554H80.5073C80.5073 31.0862 80.5073 31.1554 80.5073 31.2247Z" fill="white"/>
  <path d="M94.3066 25.9629C94.8613 25.5475 95.5548 25.3398 96.3176 25.3398C97.1497 25.3398 97.8431 25.5475 98.3978 25.9629C98.9526 26.3783 99.3686 26.9322 99.5073 27.6937H92.9891C93.2665 26.9322 93.6825 26.3783 94.3066 25.9629ZM98.7446 31.1555C98.3285 31.6401 97.9124 31.9863 97.427 32.2632C96.9416 32.4709 96.3869 32.6094 95.7628 32.6094C94.9307 32.6094 94.2373 32.4017 93.7519 31.917C93.2665 31.4324 92.8504 30.8093 92.7117 29.9092H102.212C102.281 29.6323 102.281 29.2861 102.35 29.0784C102.35 28.8015 102.42 28.5938 102.42 28.3861C102.42 26.7245 101.865 25.3398 100.756 24.232C99.646 23.1243 98.2592 22.6396 96.5949 22.6396C95.7628 22.6396 95 22.7781 94.2373 23.0551C93.4745 23.332 92.8504 23.7474 92.2957 24.232C91.5329 24.9244 90.9781 25.686 90.5621 26.586C90.146 27.486 89.938 28.4553 89.938 29.4246C89.938 31.0862 90.4927 32.4709 91.6022 33.5787C92.7117 34.6864 94.0986 35.171 95.7628 35.171C97.219 35.171 98.4672 34.8249 99.5073 34.1325C100.547 33.4402 101.38 32.4709 101.865 31.1555H98.7446Z" fill="white"/>
  <path d="M104.292 23.0551L101.865 34.9634H104.639L105.887 28.94C106.164 27.6938 106.511 26.7245 107.066 26.1707C107.62 25.5475 108.314 25.2706 109.215 25.2706C109.839 25.2706 110.325 25.4091 110.602 25.7553C110.949 26.1014 111.088 26.5861 111.088 27.2092C111.088 27.4169 111.088 27.6938 111.018 27.9015C111.018 28.1092 110.949 28.3862 110.88 28.6631L109.631 34.9634H112.544L113.584 29.5631C113.723 28.94 113.792 28.3169 113.861 27.8323C113.931 27.3476 114 27.0015 114 26.7245C114 25.4091 113.653 24.4398 112.891 23.8167C112.128 23.1936 111.088 22.8474 109.631 22.8474C109.077 22.8474 108.522 22.9859 107.967 23.1936C107.482 23.4013 106.927 23.7475 106.511 24.2321L106.788 23.1244C106.788 23.0551 104.292 23.0551 104.292 23.0551Z" fill="white"/>
  <path d="M39.8723 14.1238C40.219 12.1852 41.2591 9.00045 44.1022 5.81568C39.5255 5.4695 36.8212 9.41586 35.8504 11.1467C35.6423 9.20815 35.7117 5.88491 37.6533 1.93856C33.146 2.8386 31.6204 7.40806 31.135 9.34662C30.4416 7.54653 29.6095 4.29252 30.3723 0C26.281 2.07703 26.073 6.92342 26.1423 8.93122C24.9635 7.40806 23.2299 4.50023 22.8139 0.207703C19.4854 3.39248 20.5949 8.03117 21.219 9.96973C19.6241 8.79275 17.2664 6.50802 15.6022 2.49243C13.2445 6.43878 15.6022 10.6621 16.7117 12.3237C14.9088 11.6314 11.927 10.1082 9.29197 6.64649C8.11314 11.0775 11.511 14.47 13.0365 15.7854C11.0949 15.6469 7.83577 14.9546 4.36861 12.3929C4.5073 16.9624 8.66788 19.3164 10.4708 20.1472C8.59854 20.5626 5.27007 20.8395 1.17883 19.3164C2.56569 23.7473 7.21168 24.7859 9.15329 25.0628C7.41971 25.9628 4.29927 27.1398 -1.0333e-09 26.7937C2.49635 30.6015 7.28102 30.3938 9.29197 30.0477C7.90511 31.4323 5.20073 33.3709 0.970803 34.271C5.40876 38.0788 11.5803 34.4094 11.5803 34.4094C11.5803 34.4787 11.6496 34.4787 11.6496 34.5479C10.8869 32.6093 10.4708 30.4631 10.4708 28.3168C10.4708 18.8317 18.0985 11.2159 27.5292 11.2159C33.7007 11.2159 39.1095 14.6777 42.0912 19.7318L42.2299 19.9395C42.2299 19.9395 43.4781 15.0238 49.3029 11.4236C45.0037 9.69279 41.2591 12.7391 39.8723 14.1238Z" fill="#FEDA00"/>
</svg>
