<?xml version="1.0" encoding="utf-8"?>
<!-- Generator: Adobe Illustrator 23.0.0, SVG Export Plug-In . SVG Version: 6.00 Build 0)  -->
<svg version="1.1" id="Logo" xmlns="http://www.w3.org/2000/svg" xmlns:xlink="http://www.w3.org/1999/xlink" x="0px" y="0px"
	 viewBox="0 0 1440 900" style="enable-background:new 0 0 1440 900;" xml:space="preserve">
<style type="text/css">
	.st0{fill:#FFFFFF;}
	.st1{fill:#FEDA00;}
</style>
<g>
	<g>
		<g>
			<circle class="st0" cx="1169" cy="668" r="40"/>
			<path class="st1" d="M1209,669.6c-3.4-0.9-7.1-1.4-10.8-1.4c-22.2,0-40.5,16.3-42.7,37.4c4.2,1.5,8.8,2.3,13.5,2.3
				C1190.6,708,1208.1,691,1209,669.6z"/>
			<path class="st1" d="M1149.7,703c0.8-0.4,1.6-0.7,2.3-1.1c-1.6-0.2-3.8-0.6-6.2-1.4C1147.1,701.5,1148.4,702.3,1149.7,703z"/>
			<path class="st1" d="M1134.9,688.9c-3.8-6.1-5.9-13.3-5.9-20.9c0-22.1,17.9-40,40-40c13.1,0,24.7,6.3,32,15.9
				c-6.1,5.8-6.4,14.7-6.3,18.7c-3-3.7-7.3-10.8-8.4-21.3c-8.4,7.8-5.6,19.1-4,23.8c-4-2.9-9.9-8.4-14.1-18.2
				c-5.9,9.6,0,19.9,2.8,24c-4.5-1.7-12-5.4-18.7-13.8c-3,10.8,5.6,19.1,9.4,22.3c-4.9-0.3-13.1-2-21.8-8.3
				c0.3,11.1,10.8,16.9,15.3,18.9C1151.1,690.9,1143.8,691.6,1134.9,688.9z"/>
			<path class="st1" d="M1204.6,649.6c1.7,3.3,3,6.9,3.7,10.7c-0.5,1.3-0.8,2.4-1,3.4C1206,660.6,1204.7,655.8,1204.6,649.6z"/>
		</g>
	</g>
</g>
</svg>
