<svg width="20" height="17" viewBox="0 0 20 17" fill="none" xmlns="http://www.w3.org/2000/svg">
<path d="M1.9196 5.33309C2.1726 5.51792 2.93522 6.06687 4.20752 6.97966C5.47985 7.89244 6.45455 8.59526 7.13164 9.08816C7.20603 9.14219 7.36407 9.25963 7.60585 9.44066C7.84767 9.62181 8.0486 9.76819 8.20848 9.87985C8.36848 9.99147 8.5619 10.1167 8.78894 10.2553C9.0159 10.3938 9.22985 10.498 9.43074 10.5669C9.63166 10.6365 9.81766 10.6709 9.98876 10.6709H9.99998H10.0112C10.1823 10.6709 10.3684 10.6364 10.5693 10.5669C10.7701 10.498 10.9843 10.3937 11.2111 10.2553C11.4379 10.1165 11.6314 9.99143 11.7914 9.87985C11.9514 9.76819 12.1521 9.62181 12.394 9.44066C12.6358 9.25947 12.794 9.14219 12.8684 9.08816C13.5528 8.59526 15.294 7.34345 18.0915 5.33285C18.6347 4.94016 19.0884 4.46632 19.453 3.91166C19.8178 3.35725 20 2.77564 20 2.16716C20 1.65868 19.8231 1.22341 19.4697 0.8614C19.1163 0.499306 18.6977 0.318359 18.2142 0.318359H1.78564C1.21276 0.318359 0.77189 0.51861 0.463111 0.919112C0.15437 1.31969 0 1.8204 0 2.4212C0 2.90648 0.20468 3.43237 0.613846 3.99852C1.02297 4.56471 1.45837 5.0096 1.9196 5.33309Z" fill="#E0E0E0"/>
<path d="M18.8838 6.57065C16.4435 8.28059 14.5906 9.60949 13.3259 10.5571C12.9018 10.8805 12.5578 11.1329 12.2936 11.3138C12.0293 11.4949 11.678 11.6797 11.2389 11.8684C10.8 12.0573 10.3909 12.1515 10.0114 12.1515H10H9.9888C9.60934 12.1515 9.20006 12.0573 8.76115 11.8684C8.32223 11.6797 7.97061 11.4949 7.70647 11.3138C7.44241 11.1329 7.09826 10.8805 6.6742 10.5571C5.66968 9.79453 3.82075 8.46554 1.12734 6.57065C0.703129 6.27812 0.327387 5.94282 0 5.56543V14.7396C0 15.2483 0.174776 15.6833 0.524523 16.0454C0.874192 16.4076 1.29465 16.5886 1.78575 16.5886H18.2144C18.7053 16.5886 19.1258 16.4076 19.4755 16.0454C19.8253 15.6832 20 15.2484 20 14.7396V5.56543C19.68 5.93501 19.3081 6.27031 18.8838 6.57065Z" fill="#E0E0E0"/>
</svg>
