<svg width="20" height="4" viewBox="0 0 20 4" fill="none" xmlns="http://www.w3.org/2000/svg">
  <path class="fill-theme-color" fill-rule="evenodd" clip-rule="evenodd" d="M2 2.38498e-08C3.10457 3.70216e-08 4 0.895431 4 2C4 3.10457 3.10457 4 2 4C0.895431 4 1.06779e-08 3.10457 2.38498e-08 2C3.70216e-08 0.895431 0.895431 1.06779e-08 2 2.38498e-08ZM10 1.19249e-07C11.1046 1.32421e-07 12 0.895431 12 2C12 3.10457 11.1046 4 10 4C8.89543 4 8 3.10457 8 2C8 0.895431 8.89543 1.06077e-07 10 1.19249e-07ZM20 2C20 0.895431 19.1046 2.2782e-07 18 2.14648e-07C16.8954 2.01476e-07 16 0.895431 16 2C16 3.10457 16.8954 4 18 4C19.1046 4 20 3.10457 20 2Z" fill="#FEDA00"/>
</svg>
