<svg viewBox="0 0 200 200" fill="none" xmlns="http://www.w3.org/2000/svg">
<circle cx="100" cy="100" r="100" fill="#FAFAFA"/>
<path d="M78.8691 136.606C84.4877 138.796 91.9928 140 99.9994 140C115.928 140 132 135.193 132 124.452C132 112.561 125.97 101.426 116.264 95.3922C115.326 94.8112 114.136 94.8793 113.276 95.5728C109.451 98.6333 104.86 100.251 99.9994 100.251C95.1387 100.251 90.5487 98.6333 86.7243 95.5728C85.8625 94.8793 84.6698 94.8112 83.7361 95.3922C74.0303 101.426 68 112.561 68 124.452C68 128.067 69.8853 133.109 78.8691 136.606ZM85.0225 100.936C89.4522 104.001 94.5911 105.61 99.9994 105.61C105.408 105.61 110.548 104.001 114.978 100.936C122.277 106.175 126.747 115.026 126.747 124.452C126.747 130.165 114.998 134.64 99.9994 134.64C85.0019 134.64 73.2531 130.165 73.2531 124.452C73.2531 115.026 77.7225 106.175 85.0225 100.936Z" fill="#E0E0E0" fill-opacity="0.7"/>
<path d="M100 96C109.925 96 118 87.9253 118 78C118 68.0747 109.925 60 100 60C90.0747 60 82 68.0747 82 78C82 87.9253 90.0747 96 100 96ZM100 65.391C106.952 65.391 112.609 71.048 112.609 78C112.609 84.952 106.952 90.6089 100 90.6089C93.048 90.6089 87.391 84.952 87.391 78C87.391 71.048 93.048 65.391 100 65.391Z" fill="#E0E0E0" fill-opacity="0.7"/>
</svg>
