<svg width="88" height="80" viewBox="0 0 128 120" fill="none" xmlns="http://www.w3.org/2000/svg">
    <path d="M120.962 0H53.1525C49.272 0 46.1148 3.26396 46.1148 7.2757V23.5574C33.2512 27.3632 23.8086 39.63 23.8086 54.1343C23.8086 68.6386 33.251 80.9054 46.1148 84.7112V112.724C46.1148 116.736 49.272 120 53.1525 120H108.566C109.224 120 109.854 119.73 110.319 119.25L127.274 101.721C127.739 101.241 128 100.589 128 99.9091V7.2757C128 3.26396 124.843 0 120.962 0ZM53.1525 5.12511H120.962C122.109 5.12511 123.042 6.08985 123.042 7.2757V15.0095H51.0723V7.2757C51.0723 6.08985 52.0055 5.12511 53.1525 5.12511ZM28.7661 54.1341C28.7661 39.4267 40.34 27.4615 54.5664 27.4615C68.7927 27.4615 80.3666 39.4267 80.3666 54.1341C80.3666 68.8414 68.7927 80.8068 54.5664 80.8068C40.34 80.8068 28.7661 68.8414 28.7661 54.1341ZM51.0723 112.724V85.7255C52.2196 85.8602 53.3851 85.9319 54.5666 85.9319C63.8053 85.9319 72.1048 81.6984 77.7476 75.0101H92.9355C94.3045 75.0101 95.4143 73.8628 95.4143 72.4475C95.4143 71.0323 94.3045 69.885 92.9355 69.885H81.2781C83.4341 65.9923 84.8154 61.586 85.2073 56.8911H92.9353C94.3043 56.8911 95.414 55.7438 95.414 54.3286C95.414 52.9133 94.3043 51.766 92.9353 51.766H85.2387C84.9034 47.0817 83.5814 42.677 81.4884 38.7724H92.9351C94.304 38.7724 95.4138 37.6251 95.4138 36.2099C95.4138 34.7946 94.304 33.6473 92.9351 33.6473H78.0687C72.4223 26.735 63.9823 22.3362 54.5659 22.3362C53.3843 22.3362 52.2189 22.4079 51.0716 22.5427V20.1346H123.042V97.346H113.125C109.244 97.346 106.087 100.61 106.087 104.621V114.874H53.1525C52.0055 114.874 51.0723 113.91 51.0723 112.724ZM111.045 111.25V104.622C111.045 103.436 111.978 102.471 113.125 102.471H119.537L111.045 111.25Z" fill="#E0E0E0"/>
    <path d="M102.674 38.7735H110.906C112.275 38.7735 113.385 37.6263 113.385 36.211C113.385 34.7957 112.275 33.6484 110.906 33.6484H102.674C101.305 33.6484 100.195 34.7957 100.195 36.211C100.195 37.6263 101.305 38.7735 102.674 38.7735Z" fill="#E0E0E0"/>
    <path d="M102.674 56.8907H110.906C112.275 56.8907 113.385 55.7434 113.385 54.3282C113.385 52.9129 112.275 51.7656 110.906 51.7656H102.674C101.305 51.7656 100.195 52.9129 100.195 54.3282C100.195 55.7434 101.305 56.8907 102.674 56.8907Z" fill="#E0E0E0"/>
    <path d="M102.674 75.0118H110.906C112.275 75.0118 113.385 73.8645 113.385 72.4493C113.385 71.034 112.275 69.8867 110.906 69.8867H102.674C101.305 69.8867 100.195 71.034 100.195 72.4493C100.195 73.8645 101.305 75.0118 102.674 75.0118Z" fill="#E0E0E0"/>
    <path d="M110.905 93.129C112.274 93.129 113.384 91.9817 113.384 90.5665C113.384 89.1512 112.274 88.0039 110.905 88.0039H87.717C86.3481 88.0039 85.2383 89.1512 85.2383 90.5665C85.2383 91.9817 86.3481 93.129 87.717 93.129H110.905Z" fill="#E0E0E0"/>
    <rect width="7.40048" height="39.2336" rx="3.70024" transform="matrix(-0.627648 -0.778497 -0.75756 0.652765 34.3672 70.7617)" fill="#E0E0E0"/>
</svg>
