<svg width="165" height="120" viewBox="0 0 165 120" fill="none" xmlns="http://www.w3.org/2000/svg">
  <path fill-rule="evenodd" clip-rule="evenodd" d="M163.158 100.613C164.067 99.6797 164.576 98.4281 164.576 97.125V12C164.576 5.37258 159.203 0 152.576 0H24.5758C17.9483 0 12.5758 5.37258 12.5758 12V83.8676L1.57382 91.8259C-0.0819807 93.0236 -0.497719 95.3679 0.645239 97.062C1.7882 98.756 4.05704 99.1584 5.71284 97.9607L12.5758 92.9963V108C12.5758 114.627 17.9483 120 24.5758 120H142.169C143.518 120 144.81 119.455 145.751 118.488L163.158 100.613ZM17.5758 12V15H159.576V12C159.576 8.13401 156.442 5 152.576 5H24.5758C20.7098 5 17.5758 8.13401 17.5758 12ZM17.5758 80.2508V20H159.576V95.5H148.576C144.434 95.5 141.076 98.8579 141.076 103V115H24.5758C20.7098 115 17.5758 111.866 17.5758 108V89.3795L31.5054 79.3035C31.7629 79.1172 31.9904 78.9032 32.1867 78.6682C37.8152 84.4261 45.6684 88 54.3563 88C62.3214 88 69.585 84.996 75.0758 80.0591V86C75.0758 87.3807 76.195 88.5 77.5758 88.5H91.5758C92.9565 88.5 94.0758 87.3807 94.0758 86V66C94.0758 64.6193 92.9565 63.5 91.5758 63.5H84.6737C85.1209 61.404 85.3563 59.2295 85.3563 57C85.3563 39.8792 71.4771 26 54.3563 26C37.2354 26 23.3563 39.8792 23.3563 57C23.3563 62.8222 24.9613 68.2695 27.753 72.9236C27.6211 72.9961 27.492 73.0778 27.3664 73.1687L17.5758 80.2508ZM80.0758 83.5V74.312C81.2968 72.5014 82.3318 70.5549 83.1532 68.5H89.0758V83.5H80.0758ZM146.076 110.988L156.289 100.5H148.576C147.195 100.5 146.076 101.619 146.076 103V110.988ZM67.2863 106.125H59.0545C57.6855 106.125 56.5758 104.978 56.5758 103.563C56.5758 102.147 57.6855 101 59.0545 101H67.2863C68.6553 101 69.7651 102.147 69.7651 103.563C69.7651 104.978 68.6553 106.125 67.2863 106.125ZM80.3563 57C80.3563 71.3594 68.7157 83 54.3563 83C39.9969 83 28.3563 71.3594 28.3563 57C28.3563 42.6406 39.9969 31 54.3563 31C68.7157 31 80.3563 42.6406 80.3563 57ZM103.576 46.5C102.195 46.5 101.076 47.6193 101.076 49V86C101.076 87.3807 102.195 88.5 103.576 88.5H117.576C118.956 88.5 120.076 87.3807 120.076 86V49C120.076 47.6193 118.956 46.5 117.576 46.5H103.576ZM106.076 83.5V51.5H115.076V83.5H106.076ZM127.076 34C127.076 32.6193 128.195 31.5 129.576 31.5H143.576C144.956 31.5 146.076 32.6193 146.076 34V86C146.076 87.3807 144.956 88.5 143.576 88.5H129.576C128.195 88.5 127.076 87.3807 127.076 86V34ZM132.076 36.5V83.5H141.076V36.5H132.076ZM51.7214 103.563C51.7214 104.978 50.6116 106.125 49.2426 106.125H26.0545C24.6855 106.125 23.5758 104.978 23.5758 103.563C23.5758 102.147 24.6855 101 26.0545 101H49.2426C50.6116 101 51.7214 102.147 51.7214 103.563Z" fill="#C3C6C8"/>
</svg>
