<svg width="26" height="34" viewBox="0 0 26 34" fill="none" xmlns="http://www.w3.org/2000/svg">
  <path class="stroke-theme-color" d="M1 3.58051C1.00922 2.88691 1.28926 2.22542 1.77853 1.74154C2.26779 1.25766 2.92622 0.991009 3.609 1.00023H18L21.5 4.46228L25 7.92432V30.4195C24.9908 31.1131 24.7107 31.7746 24.2215 32.2585C23.7322 32.7423 23.0738 33.009 22.391 32.9998H3.609C2.92622 33.009 2.26779 32.7423 1.77853 32.2585C1.28926 31.7746 1.00922 31.1131 1 30.4195V3.58051Z" stroke="#FEDA00"/>
  <path class="fill-theme-color" d="M20 8H25L18 1V6C18 6.53043 18.2107 7.03914 18.5858 7.41421C18.9609 7.78929 19.4696 8 20 8Z" fill="#FEDA00"/>
  <path class="fill-theme-color" d="M10.7681 18.6665C10.7681 19.3989 10.6011 19.9863 10.2671 20.4287C9.93604 20.8682 9.48779 21.0879 8.92236 21.0879C8.44189 21.0879 8.05371 20.9209 7.75781 20.5869V22.8281H6.48779V16.2451H7.66553L7.70947 16.7109C8.01709 16.3418 8.41846 16.1572 8.91357 16.1572C9.49951 16.1572 9.95508 16.374 10.2803 16.8076C10.6055 17.2412 10.7681 17.8389 10.7681 18.6006V18.6665ZM9.49805 18.5742C9.49805 18.1318 9.41895 17.7905 9.26074 17.5503C9.10547 17.3101 8.87842 17.1899 8.57959 17.1899C8.18115 17.1899 7.90723 17.3423 7.75781 17.647V19.5938C7.91309 19.9072 8.18994 20.064 8.58838 20.064C9.19482 20.064 9.49805 19.5674 9.49805 18.5742ZM11.3613 18.5874C11.3613 17.8462 11.5269 17.2559 11.8579 16.8164C12.1919 16.377 12.6475 16.1572 13.2246 16.1572C13.6875 16.1572 14.0698 16.3301 14.3716 16.6758V14.25H15.646V21H14.499L14.4375 20.4946C14.1211 20.8901 13.7139 21.0879 13.2158 21.0879C12.6562 21.0879 12.2065 20.8682 11.8667 20.4287C11.5298 19.9863 11.3613 19.3726 11.3613 18.5874ZM12.6313 18.6797C12.6313 19.125 12.709 19.4663 12.8643 19.7036C13.0195 19.9409 13.2451 20.0596 13.541 20.0596C13.9336 20.0596 14.2104 19.894 14.3716 19.563V17.6865C14.2134 17.3555 13.9395 17.1899 13.5498 17.1899C12.9375 17.1899 12.6313 17.6865 12.6313 18.6797ZM16.9775 21V17.1768H16.27V16.2451H16.9775V15.8408C16.9775 15.3076 17.1299 14.8945 17.4346 14.6016C17.7422 14.3057 18.1714 14.1577 18.7222 14.1577C18.8979 14.1577 19.1133 14.187 19.3682 14.2456L19.355 15.23C19.2495 15.2036 19.1206 15.1904 18.9683 15.1904C18.4907 15.1904 18.252 15.4146 18.252 15.8628V16.2451H19.1968V17.1768H18.252V21H16.9775Z" fill="#FEDA00"/>
</svg>
