<svg width="20" height="21" viewBox="0 0 20 21" fill="none" xmlns="http://www.w3.org/2000/svg">
<path d="M19.5516 16.7527L16.4629 13.6485C15.8477 13.0328 14.8289 13.0515 14.1923 13.6915L12.6362 15.2548C12.5379 15.2004 12.4361 15.1435 12.3291 15.0832C11.3465 14.536 10.0016 13.7861 8.58629 12.3629C7.16683 10.9366 6.41987 9.58303 5.87373 8.59492C5.8161 8.49024 5.76088 8.38931 5.70635 8.29346L6.75072 7.24554L7.26417 6.72894C7.90179 6.08802 7.91937 5.06452 7.3056 4.44699L4.21691 1.34249C3.60314 0.725822 2.58388 0.74453 1.94626 1.38544L1.07576 2.26523L1.09955 2.28896C0.807658 2.66323 0.563746 3.0949 0.382235 3.5604C0.214915 4.00349 0.110743 4.42632 0.0631095 4.85002C-0.344732 8.24767 1.20033 11.3529 5.39343 15.5666C11.1896 21.3907 15.8605 20.9507 16.062 20.9292C16.5009 20.8765 16.9215 20.7711 17.3489 20.6043C17.8081 20.4241 18.2374 20.1793 18.6096 19.8866L18.6286 19.9036L19.5105 19.0358C20.1468 18.395 20.1651 17.3712 19.5516 16.7527Z" fill="#E0E0E0"/>
</svg>
