<svg width="26" height="34" viewBox="0 0 26 34" fill="none" xmlns="http://www.w3.org/2000/svg">
  <path class="stroke-theme-color" d="M1 3.58051C1.00922 2.88691 1.28926 2.22542 1.77853 1.74154C2.26779 1.25766 2.92622 0.991009 3.609 1.00023H18L21.5 4.46228L25 7.92432V30.4195C24.9908 31.1131 24.7107 31.7746 24.2215 32.2585C23.7322 32.7423 23.0738 33.009 22.391 32.9998H3.609C2.92622 33.009 2.26779 32.7423 1.77853 32.2585C1.28926 31.7746 1.00922 31.1131 1 30.4195V3.58051Z" stroke="#FEDA00"/>
  <path class="fill-theme-color" d="M20 8H25L18 1V6C18 6.53043 18.2107 7.03914 18.5858 7.41421C18.9609 7.78929 19.4696 8 20 8Z" fill="#FEDA00"/>
  <path class="fill-theme-color" d="M10.7681 18.6665C10.7681 19.3989 10.6011 19.9863 10.2671 20.4287C9.93604 20.8682 9.48779 21.0879 8.92236 21.0879C8.44189 21.0879 8.05371 20.9209 7.75781 20.5869V22.8281H6.48779V16.2451H7.66553L7.70947 16.7109C8.01709 16.3418 8.41846 16.1572 8.91357 16.1572C9.49951 16.1572 9.95508 16.374 10.2803 16.8076C10.6055 17.2412 10.7681 17.8389 10.7681 18.6006V18.6665ZM9.49805 18.5742C9.49805 18.1318 9.41895 17.7905 9.26074 17.5503C9.10547 17.3101 8.87842 17.1899 8.57959 17.1899C8.18115 17.1899 7.90723 17.3423 7.75781 17.647V19.5938C7.91309 19.9072 8.18994 20.064 8.58838 20.064C9.19482 20.064 9.49805 19.5674 9.49805 18.5742ZM12.728 16.2451L12.7676 16.7944C13.1074 16.3696 13.563 16.1572 14.1343 16.1572C14.6382 16.1572 15.0132 16.3052 15.2593 16.6011C15.5054 16.897 15.6313 17.3394 15.6372 17.9282V21H14.3672V17.959C14.3672 17.6895 14.3086 17.4946 14.1914 17.3745C14.0742 17.2515 13.8794 17.1899 13.6069 17.1899C13.2495 17.1899 12.9814 17.3423 12.8027 17.647V21H11.5327V16.2451H12.728ZM16.4194 18.5874C16.4194 17.8579 16.5923 17.2705 16.938 16.8252C17.2866 16.3799 17.7554 16.1572 18.3442 16.1572C18.8657 16.1572 19.2715 16.3359 19.5615 16.6934L19.6143 16.2451H20.7656V20.8418C20.7656 21.2578 20.6704 21.6196 20.48 21.9272C20.2925 22.2349 20.0273 22.4692 19.6846 22.6304C19.3418 22.7915 18.9404 22.8721 18.4805 22.8721C18.1318 22.8721 17.792 22.8018 17.4609 22.6611C17.1299 22.5234 16.8794 22.3447 16.7095 22.125L17.272 21.3516C17.5884 21.7061 17.9722 21.8833 18.4233 21.8833C18.7603 21.8833 19.0225 21.7925 19.21 21.6108C19.3975 21.4321 19.4912 21.1772 19.4912 20.8462V20.5913C19.1982 20.9224 18.813 21.0879 18.3354 21.0879C17.7642 21.0879 17.3013 20.8652 16.9468 20.4199C16.5952 19.9717 16.4194 19.3784 16.4194 18.6401V18.5874ZM17.6895 18.6797C17.6895 19.1104 17.7759 19.4487 17.9487 19.6948C18.1216 19.938 18.3589 20.0596 18.6606 20.0596C19.0474 20.0596 19.3242 19.9146 19.4912 19.6245V17.625C19.3213 17.335 19.0474 17.1899 18.6694 17.1899C18.3647 17.1899 18.1245 17.3145 17.9487 17.5635C17.7759 17.8125 17.6895 18.1846 17.6895 18.6797Z" fill="#FEDA00"/>
</svg>
