<svg width="18" height="18" viewBox="0 0 18 18" fill="none" xmlns="http://www.w3.org/2000/svg">
<path fill-rule="evenodd" clip-rule="evenodd" d="M4.87922 1.54621C5.30899 1.11644 5.89189 0.875 6.49967 0.875H11.4997C12.1075 0.875 12.6904 1.11644 13.1201 1.54621C13.5499 1.97598 13.7913 2.55888 13.7913 3.16667V5.875H14.8333C15.4411 5.875 16.024 6.11644 16.4538 6.54621C16.8836 6.97598 17.125 7.55888 17.125 8.16667V11.5C17.125 12.1078 16.8836 12.6907 16.4538 13.1205C16.024 13.5502 15.4411 13.7917 14.8333 13.7917H13.7913V14.8333C13.7913 16.099 12.7653 17.125 11.4997 17.125H6.49967C5.23402 17.125 4.20801 16.099 4.20801 14.8333V13.7917H3.16667C2.55888 13.7917 1.97598 13.5502 1.54621 13.1205C1.11644 12.6907 0.875 12.1078 0.875 11.5V8.16667C0.875 7.55888 1.11644 6.97598 1.54621 6.54621C1.97598 6.11644 2.55888 5.875 3.16667 5.875H4.20801V3.16667C4.20801 2.55888 4.44945 1.97598 4.87922 1.54621ZM5.45801 13.187C5.45822 13.1803 5.45833 13.1735 5.45833 13.1667C5.45833 13.1599 5.45822 13.1531 5.45801 13.1463V11.5C5.45801 10.9247 5.92438 10.4583 6.49967 10.4583H11.4997C12.075 10.4583 12.5413 10.9247 12.5413 11.5V14.8333C12.5413 15.4086 12.075 15.875 11.4997 15.875H6.49967C5.92438 15.875 5.45801 15.4086 5.45801 14.8333V13.187ZM4.20801 12.5417H3.16667C2.8904 12.5417 2.62545 12.4319 2.4301 12.2366C2.23475 12.0412 2.125 11.7763 2.125 11.5V8.16667C2.125 7.8904 2.23475 7.62545 2.4301 7.4301C2.62545 7.23475 2.8904 7.125 3.16667 7.125H14.8333C15.1096 7.125 15.3746 7.23475 15.5699 7.4301C15.7653 7.62545 15.875 7.8904 15.875 8.16667V11.5C15.875 11.7763 15.7653 12.0412 15.5699 12.2366C15.3746 12.4319 15.1096 12.5417 14.8333 12.5417H13.7913V11.5C13.7913 10.2344 12.7653 9.20834 11.4997 9.20834H6.49967C5.23402 9.20834 4.20801 10.2344 4.20801 11.5V12.5417ZM12.5413 3.16667V5.875H5.45801V3.16667C5.45801 2.8904 5.56775 2.62545 5.7631 2.4301C5.95846 2.23475 6.22341 2.125 6.49967 2.125H11.4997C11.7759 2.125 12.0409 2.23475 12.2362 2.4301C12.4316 2.62545 12.5413 2.8904 12.5413 3.16667Z" fill="white"/>
</svg>
