<svg xmlns="http://www.w3.org/2000/svg" width="96" height="96" viewBox="0 0 96 96" fill="none">
  <path d="M9.81188 62.9899C10.6834 63.5801 11.7552 63.7968 12.7873 63.5911C13.3561 63.4916 13.9414 63.5581 14.473 63.7827C14.6677 64.1563 14.7459 64.5798 14.6976 64.9985C14.6976 66.7227 13.5545 68.2004 12.1861 69.9691C10.2208 72.5203 7.24907 76.3752 9.78503 81.4484C10.8073 83.6749 12.8062 85.3002 15.1951 85.8465C15.7718 85.974 16.3602 86.0387 16.951 86.0381C18.5959 85.9966 20.2139 85.6072 21.6976 84.895C23.5457 87.4871 26.54 89.0178 29.7242 88.9983H66.3365C71.3981 89.0941 75.6497 85.2129 76.0147 80.1636C76.2551 75.7094 73.2974 71.7123 68.9671 70.6393C67.8459 68.3731 67.0744 65.9501 66.6795 63.4526C66.5245 62.4986 66.3652 61.6472 66.2065 60.8385C77.4032 56.8511 84.0296 48.8691 84.0296 38.3329C84.1383 32.9765 82.2181 27.7777 78.6544 23.7775C78.9827 19.0608 78.3846 14.3252 76.8942 9.83799C76.6915 9.33202 76.2014 9 75.6564 9C71.9303 9 67.3088 12.2092 63.9025 15.0979C58.7384 13.6483 53.3937 12.9422 48.03 13.0002C42.5687 12.9379 37.127 13.6703 31.8756 15.1742C28.4418 12.2488 23.7837 9 20.0308 9C19.4857 9 18.9956 9.33141 18.793 9.83799C17.2598 14.457 16.6648 19.3367 17.0432 24.1889C13.7144 28.1408 11.9334 33.167 12.0311 38.3329C12.0311 48.8691 18.6575 56.8511 29.8542 60.8391C29.6955 61.6472 29.5362 62.4974 29.3818 63.4483C28.9924 65.9476 28.2105 68.37 27.0655 70.6252C24.1945 71.3613 21.8471 73.4218 20.7467 76.1732C20.5526 76.2794 20.3689 76.4039 20.198 76.5443C19.274 77.2853 18.1851 77.7943 17.0236 78.028C17.0011 77.9914 16.9742 77.9432 16.9437 77.8822C16.7386 77.4732 16.6452 77.2865 18.5361 74.8305C20.2926 72.5753 22.6973 69.4864 22.6973 64.9985C22.8621 62.1727 21.6946 59.4323 19.5419 57.5939C17.1555 55.8496 14.1489 55.1794 11.2474 55.7458C9.66174 56.0626 8.42337 57.3028 8.10965 58.8884C7.79533 60.4741 8.46731 62.0921 9.81188 62.9899ZM14.6976 38.3329C14.6018 33.6278 16.2815 29.0588 19.4027 25.5365C19.6377 25.2716 19.7573 24.9243 19.7354 24.5703C19.4107 20.262 19.8251 15.9292 20.9622 11.7606C23.3821 12.2159 26.8495 14.313 30.6848 17.6699C31.0364 17.9775 31.5234 18.0788 31.9684 17.9366C37.174 16.3607 42.5913 15.5947 48.03 15.6667C53.3736 15.5996 58.6969 16.3387 63.8195 17.8591C64.2614 17.997 64.7435 17.8957 65.0927 17.5917C68.8914 14.2825 72.3246 12.2134 74.7238 11.7612C75.8279 15.8077 76.2472 20.0099 75.9652 24.195C75.9457 24.5575 76.0745 24.9121 76.3223 25.177C79.659 28.7341 81.468 33.4569 81.3631 38.3329C81.3631 55.0628 63.4069 60.999 48.03 60.999C32.6538 60.999 14.6976 55.0628 14.6976 38.3329ZM27.7455 73.2039C28.4907 73.0172 29.1205 72.5203 29.4745 71.8386C30.7184 69.3289 31.5747 66.6452 32.0135 63.8786C32.1436 63.076 32.2772 62.3454 32.4109 61.6514C37.4993 63.0424 42.7555 63.7199 48.03 63.6656C53.3046 63.7199 58.5614 63.0418 63.6492 61.6508C63.7829 62.346 63.9172 63.0772 64.0478 63.8828C64.4866 66.6465 65.3417 69.3277 66.5837 71.8349C66.945 72.5258 67.5865 73.0275 68.3439 73.2113C71.4249 73.9949 73.522 76.847 73.3518 80.0214C73.021 83.6346 69.9644 86.3842 66.3365 86.3317H64.6361C65.0328 85.2862 64.9517 84.1198 64.4134 83.1396C63.803 82.0953 62.9131 81.2409 61.8451 80.6732C61.5448 80.5048 61.2616 80.3076 60.9997 80.0849C60.3302 79.2096 59.278 73.5634 58.6866 68.8333C58.6328 68.356 58.3265 67.9446 57.8846 67.7554C57.4433 67.5668 56.9337 67.6309 56.5522 67.9221C56.1701 68.2138 55.9748 68.688 56.0407 69.1641C56.5595 73.3168 57.6459 80.4999 59.0875 81.9409C59.4983 82.3273 59.9536 82.6629 60.4437 82.9419C61.1169 83.2776 61.6833 83.7933 62.0813 84.4317C62.29 84.8138 62.2784 85.2783 62.0501 85.6493C61.8072 86.0717 61.3568 86.3317 60.8697 86.3317H55.478C54.8555 86.3366 54.3147 85.9063 54.1792 85.2984C52.9939 80.3882 52.2749 75.3773 52.0302 70.3323C52.0302 69.5956 51.4333 68.9987 50.6966 68.9987C49.9605 68.9987 49.3636 69.5956 49.3636 70.3323C49.6072 75.5733 50.3481 80.7801 51.5767 85.8813C51.6152 86.0339 51.6628 86.1846 51.7189 86.3317H44.3412C44.3973 86.184 44.4449 86.0332 44.4834 85.8807C45.712 80.7794 46.4529 75.5733 46.6971 70.3323C46.6971 69.5956 46.1002 68.9987 45.3635 68.9987C44.6274 68.9987 44.0305 69.5956 44.0305 70.3323C43.7858 75.3767 43.0662 80.3876 41.8815 85.2978C41.746 85.9057 41.2046 86.3366 40.5821 86.3317H35.1904C34.7039 86.3317 34.2541 86.0717 34.0112 85.6493C33.7829 85.2783 33.7713 84.8132 33.9801 84.4311C34.3774 83.7927 34.9444 83.2769 35.6176 82.9419C36.1077 82.6629 36.563 82.3273 36.9738 81.9409C38.4154 80.4999 39.5018 73.3168 40.0206 69.1641C40.0865 68.688 39.8906 68.2138 39.5091 67.9221C39.127 67.6303 38.618 67.5668 38.1761 67.7554C37.7342 67.944 37.4285 68.356 37.3748 68.8333C36.7827 73.5628 35.7311 79.2096 35.0884 80.0556C34.8205 80.2918 34.5275 80.4987 34.2163 80.6732C33.1476 81.2409 32.2583 82.0947 31.648 83.1396C31.109 84.1198 31.0279 85.2862 31.4246 86.3317H29.7242C26.0951 86.3842 23.0385 83.6334 22.7083 80.019C22.5417 76.8354 24.6529 73.9784 27.7455 73.2039ZM10.916 58.9324C11.1192 58.629 11.436 58.4209 11.7949 58.355C13.9085 57.9473 16.0971 58.4191 17.8561 59.6599C19.3765 61.0014 20.1809 62.9771 20.0308 64.9985C20.0308 68.5702 18.1186 71.025 16.4273 73.1984C14.6726 75.478 13.513 76.9844 14.5585 79.0742C14.8588 79.8578 15.5277 80.4419 16.3449 80.6342C17.6444 80.7544 18.948 80.4492 20.0595 79.7645C20.0613 79.8975 20.0387 80.0275 20.046 80.1618C20.0912 80.9601 20.242 81.7481 20.4952 82.5061C19.0335 83.2367 17.3807 83.4936 15.7657 83.2422C14.163 82.8692 12.8306 81.7627 12.1708 80.2552C10.3826 76.6786 12.4632 73.9791 14.34 71.5432C15.8268 69.6218 17.3642 67.634 17.3642 64.9985C17.4857 63.7815 17.0444 62.5749 16.1661 61.7229C15.0132 60.9929 13.6265 60.7249 12.2844 60.9721C11.942 61.0411 11.5861 60.9703 11.2962 60.775C10.9996 60.5766 10.7939 60.269 10.7243 59.9187C10.6535 59.5775 10.7225 59.2223 10.916 58.9324Z" fill="#E0E0E0"/>
  <path d="M40.6387 32.4095C39.9868 32.0768 39.1885 32.3283 38.8455 32.9746C38.7521 33.151 36.4475 37.2708 28.3971 34.9704C27.6891 34.7684 26.9512 35.178 26.7486 35.886C26.546 36.5939 26.9555 37.3318 27.6635 37.5345C29.3615 38.0447 31.1217 38.3151 32.8941 38.3389C39.0567 38.3389 41.1184 34.39 41.2228 34.1825C41.5475 33.5313 41.2869 32.7403 40.6387 32.4095Z" fill="#E0E0E0"/>
  <path d="M63.1657 38.3392C64.9382 38.3154 66.699 38.045 68.3963 37.5348C69.1043 37.3321 69.5139 36.5942 69.3112 35.8863C69.1092 35.1783 68.3707 34.7687 67.6627 34.9707C59.6508 37.2607 57.3285 33.1855 57.2155 32.9768C57.0007 32.552 56.5747 32.2743 56.0992 32.248C55.6232 32.2224 55.1697 32.4525 54.9097 32.851C54.6491 33.2502 54.6216 33.758 54.8371 34.1828C54.9414 34.3903 57.0031 38.3392 63.1657 38.3392Z" fill="#E0E0E0"/>
  <path d="M52.4207 56.6085C52.9438 57.1139 53.7757 57.1065 54.2896 56.5926C54.8041 56.0781 54.8114 55.2462 54.3061 54.7232L49.3636 49.7807V47.4156C49.8323 47.2429 50.2559 46.9652 50.6019 46.6045L52.6002 44.4707C53.3552 43.6962 53.5688 42.5433 53.1422 41.549C52.5703 40.3589 51.3478 39.6197 50.0282 39.6661H46.0323C44.7122 39.6197 43.4903 40.3589 42.9184 41.549C42.4911 42.5426 42.7054 43.6962 43.4598 44.4707L45.4586 46.6038C45.8047 46.9652 46.2276 47.2429 46.697 47.4162V49.7813L41.7545 54.7232C41.2491 55.2462 41.2564 56.0781 41.7703 56.5926C42.2849 57.1065 43.1167 57.1139 43.6398 56.6085L48.03 52.2183L52.4207 56.6085ZM45.3622 42.6165C45.3787 42.5542 45.577 42.3327 46.0323 42.3327H50.0282C50.4829 42.3327 50.6813 42.5542 50.6538 42.6482L48.655 44.782C48.282 45.0511 47.7785 45.0511 47.405 44.782L45.3622 42.6165Z" fill="#E0E0E0"/>
</svg>
