<svg width="20" height="21" viewBox="0 0 20 21" fill="none" xmlns="http://www.w3.org/2000/svg">
  <path class="fill-theme-color" fill-rule="evenodd" clip-rule="evenodd" d="M18.0448 9.22199C18.0448 13.114 14.8897 16.2691 10.9977 16.2691C7.10576 16.2691 3.95069 13.114 3.95069 9.22199C3.95069 5.33001 7.10576 2.17493 10.9977 2.17493C14.8897 2.17493 18.0448 5.33001 18.0448 9.22199ZM19 9.22199C19 13.6415 15.4173 17.2243 10.9977 17.2243C9.08953 17.2243 7.3373 16.5563 5.96211 15.4415L1.67543 19.7282L1 19.0528L5.25643 14.7964C3.85708 13.3554 2.99548 11.3893 2.99548 9.22199C2.99548 4.80246 6.57822 1.21973 10.9977 1.21973C15.4173 1.21973 19 4.80246 19 9.22199Z" fill="#FAD900"/>
  <path class="fill-theme-color" d="M5.96211 15.4415L6.11954 15.2473L5.94459 15.1055L5.78533 15.2648L5.96211 15.4415ZM1.67543 19.7282L1.49866 19.905L1.67543 20.0818L1.85221 19.905L1.67543 19.7282ZM1 19.0528L0.823223 18.876L0.646446 19.0528L0.823224 19.2296L1 19.0528ZM5.25643 14.7964L5.43321 14.9731L5.60741 14.7989L5.43578 14.6222L5.25643 14.7964ZM10.9977 16.5191C15.0278 16.5191 18.2948 13.252 18.2948 9.22199H17.7948C17.7948 12.9759 14.7517 16.0191 10.9977 16.0191V16.5191ZM3.70069 9.22199C3.70069 13.252 6.96769 16.5191 10.9977 16.5191V16.0191C7.24383 16.0191 4.20069 12.9759 4.20069 9.22199H3.70069ZM10.9977 1.92493C6.96769 1.92493 3.70069 5.19194 3.70069 9.22199H4.20069C4.20069 5.46808 7.24383 2.42493 10.9977 2.42493V1.92493ZM18.2948 9.22199C18.2948 5.19194 15.0278 1.92493 10.9977 1.92493V2.42493C14.7517 2.42493 17.7948 5.46808 17.7948 9.22199H18.2948ZM10.9977 17.4743C15.5553 17.4743 19.25 13.7796 19.25 9.22199H18.75C18.75 13.5035 15.2792 16.9743 10.9977 16.9743V17.4743ZM5.80468 15.6357C7.22278 16.7853 9.03015 17.4743 10.9977 17.4743V16.9743C9.1489 16.9743 7.45183 16.3274 6.11954 15.2473L5.80468 15.6357ZM5.78533 15.2648L1.49866 19.5514L1.85221 19.905L6.13889 15.6183L5.78533 15.2648ZM1.85221 19.5514L1.17678 18.876L0.823224 19.2296L1.49866 19.905L1.85221 19.5514ZM1.17678 19.2296L5.43321 14.9731L5.07965 14.6196L0.823223 18.876L1.17678 19.2296ZM2.74548 9.22199C2.74548 11.4569 3.63425 13.4848 5.07708 14.9705L5.43578 14.6222C4.0799 13.226 3.24548 11.3217 3.24548 9.22199H2.74548ZM10.9977 0.969727C6.44015 0.969727 2.74548 4.66439 2.74548 9.22199H3.24548C3.24548 4.94053 6.71629 1.46973 10.9977 1.46973V0.969727ZM19.25 9.22199C19.25 4.66439 15.5553 0.969727 10.9977 0.969727V1.46973C15.2792 1.46973 18.75 4.94053 18.75 9.22199H19.25Z" fill="#FAD900"/>
</svg>
