<svg xmlns="http://www.w3.org/2000/svg" width="16" height="16" viewBox="0 0 16 16" fill="currentColor">
  <path fill-rule="evenodd" clip-rule="evenodd" d="M13 7C13 10.3137 10.3137 13 7 13C3.68629 13 1 10.3137 1 7C1 3.68629 3.68629 1 7 1C10.3137 1 13 3.68629 13 7ZM11.5836 12.2907C10.3556 13.3556 8.75304 14 7 14C3.13401 14 0 10.866 0 7C0 3.13401 3.13401 0 7 0C10.866 0 14 3.13401 14 7C14 8.75304 13.3556 10.3556 12.2907 11.5836L15.8536 15.1464L15.1464 15.8536L11.5836 12.2907Z" fill="currentColor"/>
</svg>
