<svg xmlns="http://www.w3.org/2000/svg" width="20" height="20" viewBox="0 0 20 20" fill="none">
  <path d="M5.31324 4.48095C6.04588 3.98911 7.00691 3.86629 7.84158 4.15048C8.1382 4.24482 8.40515 4.40797 8.67329 4.56163C9.71974 4.33322 10.8303 4.36644 11.8429 4.72894C13.4547 5.28604 14.7705 6.62273 15.2997 8.2442C15.6354 9.23263 15.658 10.3089 15.4367 11.3252C15.6977 11.7529 15.9225 12.2157 15.9753 12.72C16.1047 13.6699 15.7179 14.6654 14.99 15.2872C14.2793 15.9137 13.253 16.1522 12.3383 15.9024C11.9734 15.814 11.6466 15.6248 11.325 15.4379C10.2228 15.6793 9.0494 15.6259 7.99523 15.2112C6.43919 14.6185 5.1857 13.2943 4.68323 11.7067C4.36111 10.7307 4.34509 9.67344 4.56281 8.67315C4.22644 8.14868 3.98856 7.54471 4.00042 6.91285C3.99153 5.94935 4.50645 5.00542 5.31324 4.48095Z" fill="#03A9F4"/>
  <path d="M9.31232 6.61633C10.0638 6.49462 10.8557 6.61784 11.5263 7.0071C11.8196 7.18111 12.1035 7.41648 12.2398 7.75445C12.3286 7.97674 12.3384 8.26693 12.1744 8.45301C11.9968 8.64764 11.7068 8.70749 11.4685 8.62551C11.1927 8.50179 11.0554 8.19249 10.8214 8.00842C10.5272 7.74891 10.131 7.67901 9.7602 7.68605C9.48903 7.69862 9.19859 7.7645 9.00073 7.97774C8.81791 8.18646 8.75024 8.54404 8.92835 8.7789C9.0966 8.98661 9.3565 9.06406 9.59477 9.13497C10.0492 9.25668 10.5089 9.35475 10.9652 9.46992C11.4399 9.58609 11.9192 9.80839 12.2327 10.2223C12.7732 10.9716 12.6514 12.1601 11.9794 12.7736C11.4417 13.2831 10.694 13.4239 9.99753 13.4284C9.25404 13.4169 8.45933 13.2539 7.88784 12.7098C7.60116 12.4331 7.36007 12.0157 7.44654 11.5887C7.54101 11.1643 8.0857 11.0033 8.39447 11.2644C8.63039 11.467 8.75823 11.7753 8.98569 11.9871C9.2578 12.2541 9.63707 12.3602 9.99988 12.3507C10.3556 12.3607 10.7335 12.244 10.9774 11.9544C11.1433 11.7587 11.2312 11.461 11.1236 11.2105C11.0352 10.9752 10.8082 10.8469 10.5911 10.7836C10.1907 10.6714 9.78746 10.5693 9.38704 10.4562C8.94715 10.341 8.48987 10.2359 8.11155 9.95524C7.81641 9.74552 7.5927 9.41812 7.5208 9.04495C7.40002 8.45954 7.48649 7.78412 7.88408 7.33702C8.24784 6.904 8.78736 6.70283 9.31232 6.61633Z" fill="white"/>
</svg>
