<svg class="search-icon" width="20" height="21" viewBox="0 0 20 21" fill="none" xmlns="http://www.w3.org/2000/svg">
<path class="search-icon-path" d="M19.1651 12.1023C19.2398 11.6278 19.2791 11.1424 19.2791 10.6469C19.2791 5.49681 15.1247 1.32218 9.99965 1.32218C9.50787 1.32218 9.0234 1.36288 8.55161 1.43704C7.697 0.905657 6.68834 0.598145 5.60736 0.598145C2.51055 0.598145 0 3.12067 0 6.233C0 7.31903 0.306199 8.3318 0.834757 9.19233C0.761614 9.66764 0.721345 10.1516 0.721345 10.647C0.721345 15.7975 4.8756 19.9708 9.99946 19.9708C10.4917 19.9708 10.9763 19.9327 11.448 19.8579C12.3035 20.3883 13.3113 20.6966 14.3921 20.6966C17.4897 20.6966 20 18.1734 20 15.0612C20.0002 13.9747 19.6942 12.9622 19.1651 12.1023ZM14.4053 14.8878C14.0128 15.4557 13.4361 15.8995 12.6827 16.2186C11.9277 16.5385 11.0353 16.6977 10.0048 16.6977C8.76965 16.6977 7.74703 16.4805 6.93985 16.042C6.36768 15.7279 5.90231 15.3066 5.54454 14.7812C5.18603 14.2555 5.00427 13.7406 5.00427 13.2385C5.00427 12.9424 5.11666 12.6848 5.33544 12.4748C5.55649 12.2633 5.84121 12.1573 6.17726 12.1573C6.45254 12.1573 6.68899 12.2406 6.88149 12.4057C7.07256 12.5707 7.23284 12.8107 7.36393 13.1273C7.52105 13.4941 7.6917 13.8007 7.87328 14.0454C8.05374 14.287 8.30772 14.4887 8.63666 14.6466C8.96197 14.8049 9.39493 14.8841 9.93669 14.8841C10.6781 14.8841 11.2773 14.7229 11.7359 14.405C12.1968 14.0842 12.4182 13.6938 12.4182 13.2221C12.4182 12.8459 12.2988 12.5472 12.054 12.3142C11.807 12.0783 11.4881 11.8985 11.0922 11.7732C10.6948 11.6465 10.1613 11.5122 9.49267 11.3706C8.59486 11.1737 7.84399 10.9445 7.23591 10.6813C6.62705 10.4171 6.14215 10.0559 5.78276 9.59975C5.42262 9.13906 5.24304 8.56647 5.24304 7.88827C5.24304 7.24156 5.43262 6.66321 5.81215 6.15987C6.19149 5.65512 6.74032 5.26878 7.45595 4.99967C8.16906 4.73066 9.00861 4.59609 9.9704 4.59609C10.7395 4.59609 11.4049 4.68553 11.968 4.86346C12.5296 5.04271 12.9978 5.27924 13.3721 5.57606C13.7441 5.87221 14.0178 6.18459 14.1911 6.51238C14.3643 6.84115 14.4516 7.16226 14.4516 7.47562C14.4516 7.76696 14.3392 8.0312 14.1201 8.26278C13.9012 8.49469 13.6211 8.61291 13.2939 8.61184C12.999 8.61184 12.7677 8.54348 12.6073 8.39876C12.4511 8.25877 12.287 8.03588 12.1095 7.72523C11.8851 7.29179 11.6164 6.95409 11.3039 6.71256C10.9997 6.47551 10.4977 6.3521 9.79924 6.3536C9.15299 6.3536 8.63592 6.4863 8.24565 6.74583C7.85296 7.00951 7.66524 7.31543 7.66436 7.67388C7.66501 7.8985 7.72927 8.08788 7.85859 8.24984C7.9899 8.41329 8.1726 8.55492 8.40742 8.67431C8.64233 8.79557 8.88129 8.88935 9.12142 8.95683C9.36438 9.02603 9.76748 9.12607 10.3278 9.25854C11.0305 9.41074 11.6679 9.58078 12.2406 9.7661C12.8122 9.95235 13.3 10.177 13.703 10.4446C14.1093 10.7114 14.4268 11.0516 14.6534 11.4624C14.8817 11.874 14.9954 12.3766 14.9954 12.9681C14.9962 13.6803 14.7988 14.3208 14.4053 14.8878Z" fill="#E0E0E0"/>
</svg>
