<svg width="20" height="20" viewBox="0 0 20 20" fill="none" xmlns="http://www.w3.org/2000/svg">
<path class="stroke-theme-color" d="M10.0287 15C12.5343 15 14.7737 13.6696 16.215 12.561C17.7671 11.3636 18.7205 10.1885 18.7649 10.1441C18.8314 10.0554 18.8314 9.94457 18.7649 9.85588C18.7205 9.81153 17.7671 8.63636 16.215 7.43902C14.7737 6.33038 12.5343 5 10.0287 5C7.52316 5 5.2837 6.33038 3.84245 7.43902C2.29035 8.63636 1.33691 9.81153 1.29256 9.85588C1.22605 9.94457 1.22605 10.0554 1.29256 10.1441C1.33691 10.1885 2.29035 11.3636 3.84245 12.561C5.2837 13.6918 7.52316 15 10.0287 15ZM1.7582 10.0111C2.42339 9.23503 5.90454 5.46563 10.0287 5.46563C14.1529 5.46563 17.634 9.23503 18.2992 10.0111C17.634 10.7871 14.1529 14.5565 10.0287 14.5565C5.90454 14.5565 2.42339 10.7871 1.7582 10.0111Z" fill="#212121" stroke="#FEDA00" stroke-width="0.5"/>
<path class="stroke-theme-color" d="M13 10C13 8.35 11.6457 7 10 7C8.35429 7 7 8.35 7 10C7 11.65 8.35429 13 10 13C11.6457 13 13 11.65 13 10ZM7.34286 10C7.34286 8.53333 8.54286 7.33333 10 7.33333C11.4571 7.33333 12.6571 8.53333 12.6571 10C12.6571 11.4667 11.4571 12.6667 10 12.6667C8.54286 12.6667 7.34286 11.4667 7.34286 10Z" fill="#212121" stroke="#FEDA00" stroke-width="0.5"/>
</svg>
