<svg width="30" height="30" viewBox="0 0 30 30" fill="none" xmlns="http://www.w3.org/2000/svg">
<path class="stroke-theme-color" d="M0.666016 21.8519C0.666016 18.5218 3.71482 15.8223 7.4757 15.8223C8.79963 15.8223 10.0353 16.1568 11.0808 16.7356" stroke="#FEDA00" stroke-linecap="round"/>
<path class="stroke-theme-color" d="M23.738 8.49009C23.738 11.4305 21.3543 13.8142 18.4139 13.8142C15.4735 13.8142 13.0898 11.4305 13.0898 8.49009C13.0898 5.54968 15.4735 3.16602 18.4139 3.16602C21.3543 3.16602 23.738 5.54968 23.738 8.49009Z" stroke="#FEDA00"/>
<path class="stroke-theme-color" d="M29.0333 27.3325C29.0333 21.6562 24.1251 17.0547 18.0704 17.0547C12.0157 17.0547 7.10742 21.6562 7.10742 27.3325" stroke="#FEDA00" stroke-linecap="round"/>
<path class="stroke-theme-color" d="M10.5817 10.3416C10.5817 11.8819 9.33306 13.1305 7.7928 13.1305C6.25253 13.1305 5.00391 11.8819 5.00391 10.3416C5.00391 8.80136 6.25253 7.55273 7.7928 7.55273C9.33306 7.55273 10.5817 8.80136 10.5817 10.3416Z" stroke="#FEDA00"/>
</svg>
