<svg width="24" height="24" viewBox="0 0 24 24" fill="none" xmlns="http://www.w3.org/2000/svg">
<path d="M15.3881 9.09293L10.934 13.2332C10.7775 13.3786 10.6763 13.574 10.6477 13.7857L10.4962 14.91C10.476 15.06 10.2649 15.075 10.2235 14.9295L9.64002 12.8794C9.57342 12.6454 9.67051 12.3956 9.87763 12.268L15.2747 8.94375C15.3715 8.88417 15.4715 9.01546 15.3881 9.09293ZM19 2C20.6569 2 22 3.34315 22 5V19C22 20.6569 20.6569 22 19 22H5C3.34315 22 2 20.6569 2 19V5C2 3.34315 3.34315 2 5 2H19ZM17.5493 6.80502L6.21607 11.177C5.93667 11.2848 5.93881 11.6809 6.21936 11.7857L7.60218 12.3019C8.47175 12.6265 9.1421 13.3353 9.41771 14.2216L10.0497 16.2539C10.1182 16.4741 10.3875 16.5553 10.5662 16.4095L12.1055 15.1547C12.2669 15.0231 12.4965 15.0167 12.665 15.139L15.4415 17.1548C15.6327 17.2936 15.9034 17.189 15.9515 16.9577L17.9851 7.17483C18.0376 6.92255 17.7898 6.71222 17.5493 6.80502Z" fill="#E0E0E0"/>
</svg>
