<svg width="20" height="18" viewBox="0 0 20 18" fill="none" xmlns="http://www.w3.org/2000/svg">
  <path class="fill-theme-color stroke-theme-color" d="M11.7306 6.09624L11.5767 6.71665H12.2159H18.6364C19.1125 6.71665 19.5 7.10357 19.5 7.58284V9.74421C19.5 10.052 19.4365 10.3565 19.3135 10.6385L19.7718 10.8384L19.3135 10.6385L16.5467 16.981C16.409 17.2967 16.0982 17.5 15.7555 17.5H6.81818C6.34209 17.5 5.95455 17.1131 5.95455 16.6338V6.7843C5.95455 6.55361 6.04628 6.33262 6.20917 6.17014L11.8404 0.553014C11.9104 0.483173 12.0229 0.482228 12.0941 0.550838L12.5509 0.991207C12.7736 1.20593 12.8652 1.52381 12.7905 1.82485L11.7306 6.09624ZM0.5 7.57052H3.13636V17.5H0.5V7.57052Z" fill="#FEDA00" stroke="#FEDA00"/>
</svg>
