<svg width="24" height="24" viewBox="0 0 24 24" fill="none" xmlns="http://www.w3.org/2000/svg">
<path class="fill-theme-color" fill-rule="evenodd" clip-rule="evenodd" d="M12.3123 2.10958C12.0967 1.93708 11.7821 1.97204 11.6096 2.18767C11.4371 2.4033 11.472 2.71795 11.6877 2.89045L13.1834 4.08701C9.35294 4.3366 7.16633 6.30571 6.49834 7.42603C6.35692 7.66321 6.43455 7.97013 6.67173 8.11155C6.90891 8.25297 7.21583 8.17534 7.35725 7.93816C7.85685 7.10025 9.78713 5.26258 13.3988 5.0761L12.1096 6.68767C11.9371 6.9033 11.972 7.21795 12.1877 7.39045C12.4033 7.56296 12.7179 7.528 12.8904 7.31237L14.8904 4.81237C15.0629 4.59674 15.028 4.28209 14.8123 4.10958L12.3123 2.10958Z" fill="#FEDA00"/>
<path class="fill-theme-color" fill-rule="evenodd" clip-rule="evenodd" d="M14.6877 22.0726C14.9033 22.2451 15.2179 22.2101 15.3904 21.9945C15.563 21.7789 15.528 21.4642 15.3124 21.2917L13.8167 20.0952C17.6471 19.8456 19.8337 17.8765 20.5017 16.7562C20.6431 16.519 20.5655 16.2121 20.3283 16.0706C20.0911 15.9292 19.7842 16.0068 19.6428 16.244C19.1432 17.0819 17.2129 18.9196 13.6012 19.1061L14.8904 17.4945C15.063 17.2789 15.028 16.9642 14.8124 16.7917C14.5967 16.6192 14.2821 16.6542 14.1096 16.8698L12.1096 19.3698C11.9371 19.5855 11.972 19.9001 12.1877 20.0726L14.6877 22.0726Z" fill="#FEDA00"/>
<path class="stroke-theme-color" d="M20.4397 6.48421C20.4397 7.51427 19.5857 8.36842 18.5085 8.36842C17.4312 8.36842 16.5772 7.51427 16.5772 6.48421C16.5772 5.45415 17.4312 4.6 18.5085 4.6C19.5857 4.6 20.4397 5.45415 20.4397 6.48421Z" stroke="#FEDA00" stroke-width="1.2"/>
<path class="stroke-theme-color" d="M23 14.4358C23 11.9967 20.9853 10.0195 18.5 10.0195C16.0147 10.0195 14 11.9967 14 14.4358" stroke="#FEDA00" stroke-width="1.2"/>
<path class="stroke-theme-color" d="M7.43971 11.4842C7.43971 12.5143 6.58572 13.3684 5.50846 13.3684C4.4312 13.3684 3.57721 12.5143 3.57721 11.4842C3.57721 10.4542 4.4312 9.6 5.50846 9.6C6.58572 9.6 7.43971 10.4542 7.43971 11.4842Z" stroke="#FEDA00" stroke-width="1.2"/>
<path class="stroke-theme-color" d="M10 19.4358C10 16.9967 7.98528 15.0195 5.5 15.0195C3.01472 15.0195 1 16.9967 1 19.4358" stroke="#FEDA00" stroke-width="1.2"/>
</svg>
