<svg width="20" height="20" viewBox="0 0 20 20" xmlns="http://www.w3.org/2000/svg">
<path d="M7.64453 7.64679H8.821V14.7056H7.64453V7.64679ZM11.1739 7.64679H12.3504V14.7056H11.1739V7.64679Z"/>
<path d="M2.93848 4.11735V5.29382H4.11495V17.0585C4.11495 17.3705 4.2389 17.6698 4.45953 17.8904C4.68016 18.111 4.9794 18.235 5.29142 18.235H14.7032C15.0152 18.235 15.3144 18.111 15.5351 17.8904C15.7557 17.6698 15.8797 17.3705 15.8797 17.0585V5.29382H17.0561V4.11735H2.93848ZM5.29142 17.0585V5.29382H14.7032V17.0585H5.29142ZM7.64436 1.7644H12.3502V2.94088H7.64436V1.7644Z"/>
</svg>
