<svg width="20" height="24" viewBox="0 0 20 24" fill="none" xmlns="http://www.w3.org/2000/svg">
  <path d="M3 7.33325H16.3333" stroke="#B5B8BB" stroke-linecap="round" stroke-linejoin="round"/>
  <path d="M8 10.6667V15.6667" stroke="#B5B8BB" stroke-linecap="round" stroke-linejoin="round"/>
  <path d="M11.333 10.6667V15.6667" stroke="#B5B8BB" stroke-linecap="round" stroke-linejoin="round"/>
  <path d="M3.83301 7.33325L4.66634 17.3333C4.66634 17.7753 4.84194 18.1992 5.1545 18.5118C5.46706 18.8243 5.89098 18.9999 6.33301 18.9999H12.9997C13.4417 18.9999 13.8656 18.8243 14.1782 18.5118C14.4907 18.1992 14.6663 17.7753 14.6663 17.3333L15.4997 7.33325" stroke="#B5B8BB" stroke-linecap="round" stroke-linejoin="round"/>
  <path d="M7.1665 7.33333V4.83333C7.1665 4.61232 7.2543 4.40036 7.41058 4.24408C7.56686 4.0878 7.77882 4 7.99984 4H11.3332C11.5542 4 11.7661 4.0878 11.9224 4.24408C12.0787 4.40036 12.1665 4.61232 12.1665 4.83333V7.33333" stroke="#B5B8BB" stroke-linecap="round" stroke-linejoin="round"/>
</svg>
