<svg width="26" height="26" viewBox="0 0 26 26" fill="none" xmlns="http://www.w3.org/2000/svg">
<path d="M25.5516 21.5172H0.448295C0.200737 21.5172 0 21.3164 0 21.0689V4.93102C0 4.68346 0.200737 4.48273 0.448295 4.48273H25.5517C25.7992 4.48273 25.9999 4.68346 25.9999 4.93102V21.0689C25.9999 21.3164 25.7992 21.5172 25.5516 21.5172Z" fill="#41479B"/>
<path d="M25.9999 4.93102C25.9999 4.68346 25.7992 4.48273 25.5516 4.48273H23.546L15.2413 9.92376V4.48273H10.7585V9.92376L2.45384 4.48273H0.448295C0.200737 4.48273 0 4.68346 0 4.93102V6.0904L7.12504 10.7586H0V15.2413H7.12504L0 19.9095V21.0689C0 21.3164 0.200737 21.5172 0.448295 21.5172H2.45389L10.7586 16.0761V21.5172H15.2414V16.0761L23.5461 21.5172H25.5517C25.7993 21.5172 26 21.3164 26 21.0689V19.9095L18.875 15.2414H25.9999V10.7586H18.8749L25.9999 6.0904V4.93102Z" fill="#F5F5F5"/>
<path d="M25.9999 11.6551H14.3448V4.48273H11.6551V11.6551H0V14.3448H11.6551V21.5172H14.3448V14.3448H25.9999V11.6551Z" fill="#FF4B55"/>
<path d="M9.08619 15.2413L0.0117188 21.1318C0.0434569 21.3483 0.221952 21.5172 0.447268 21.5172H1.06471L10.7329 15.2414H9.08619V15.2413Z" fill="#FF4B55"/>
<path d="M17.5901 15.2413H15.9434L25.5975 21.5079C25.8225 21.4839 26.0001 21.3002 26.0001 21.0689V20.7003L17.5901 15.2413Z" fill="#FF4B55"/>
<path d="M0 5.42592L8.21531 10.7586H9.86204L0.261167 4.52649C0.107808 4.59774 0 4.75084 0 4.93106V5.42592Z" fill="#FF4B55"/>
<path d="M16.8889 10.7586L25.9852 4.85395C25.9474 4.64463 25.7727 4.48279 25.5525 4.48279H24.9102L15.2422 10.7586H16.8889Z" fill="#FF4B55"/>
</svg>
