<svg width="24" height="24" viewBox="0 0 24 24" fill="none" xmlns="http://www.w3.org/2000/svg">
<mask id="mask0" mask-type="alpha" maskUnits="userSpaceOnUse" x="2" y="2" width="21" height="21">
<path d="M20.9028 3.10018C20.1695 2.36677 19.2861 2 18.2532 2H5.75296C4.72005 2 3.83665 2.36677 3.10311 3.10018C2.3697 3.83372 2.00293 4.71708 2.00293 5.75003V18.2502C2.00293 19.283 2.3697 20.1665 3.10311 20.9C3.83665 21.6336 4.72005 22.0003 5.75296 22.0003H18.2531C19.286 22.0003 20.1694 21.6336 20.9026 20.9C21.6362 20.1665 22.0029 19.2831 22.0029 18.2502V5.75003C22.0029 4.71708 21.6361 3.83358 20.9028 3.10018Z" fill="#E0E0E0"/>
</mask>
<g mask="url(#mask0)">
<path d="M14.9935 6.62487C13.0072 6.24701 10.9929 6.24701 9.00617 6.62487C8.13724 6.8184 7.04405 7.86595 6.83033 8.70855C6.47485 10.3389 6.47485 11.9916 6.83033 13.622C7.04405 14.4646 8.13724 15.5121 9.00617 15.7057C9.00639 15.7057 9.00661 15.7057 9.00683 15.7058C9.04554 15.7134 9.07375 15.7469 9.07375 15.7864V18.1747C9.07375 18.2941 9.21945 18.3529 9.3024 18.2664L10.4368 17.1021C10.4368 17.1021 11.3408 16.1741 11.5034 16.0073C11.5193 15.991 11.5412 15.9821 11.564 15.9828C12.7093 16.0145 13.8559 15.922 14.9935 15.7057C15.8624 15.5122 16.956 14.4646 17.1693 13.622C17.5252 11.9917 17.5252 10.3389 17.1693 8.7086C16.956 7.86595 15.8628 6.8184 14.9935 6.62487ZM15.0238 13.7436C14.85 14.1126 14.5971 14.4196 14.2323 14.6155C14.1294 14.6708 14.0064 14.6887 13.8902 14.7244C13.7566 14.6839 13.6293 14.6566 13.5111 14.6076C12.286 14.0993 11.1585 13.4435 10.2654 12.4383C9.75749 11.8667 9.35993 11.2214 9.02394 10.5384C8.8646 10.2146 8.73031 9.87801 8.59343 9.54365C8.46857 9.23873 8.65245 8.92372 8.84603 8.69398C9.02767 8.47837 9.26141 8.31336 9.51454 8.19176C9.71211 8.09683 9.90701 8.15156 10.0513 8.31902C10.3632 8.68108 10.6498 9.06166 10.8818 9.48133C11.0245 9.73947 10.9853 10.055 10.7267 10.2307C10.6639 10.2734 10.6066 10.3235 10.5481 10.3717C10.4967 10.414 10.4484 10.4567 10.4132 10.5139C10.3489 10.6186 10.3458 10.7421 10.3872 10.856C10.7061 11.7323 11.2436 12.4137 12.1256 12.7807C12.2668 12.8394 12.4085 12.9078 12.5711 12.8888C12.8434 12.857 12.9316 12.5583 13.1224 12.4023C13.3089 12.2498 13.5472 12.2477 13.7481 12.3749C13.9491 12.5021 14.1439 12.6386 14.3375 12.7766C14.5276 12.912 14.7168 13.0445 14.8921 13.1989C15.0606 13.3473 15.1187 13.5421 15.0238 13.7436ZM13.4419 10.888C13.3659 10.8894 13.3958 10.8879 13.4247 10.887C13.3021 10.8827 13.2355 10.8106 13.2223 10.6933C13.2127 10.6076 13.2051 10.5207 13.1846 10.4373C13.1444 10.2731 13.0571 10.1209 12.919 10.0203C12.8537 9.97276 12.7798 9.93809 12.7024 9.9158C12.6041 9.88741 12.502 9.89522 12.4038 9.87117C12.2973 9.8451 12.2383 9.75878 12.2551 9.65881C12.2703 9.56783 12.3588 9.49682 12.4582 9.50402C13.0795 9.54887 13.5235 9.87007 13.5869 10.6015C13.5914 10.6531 13.5966 10.7076 13.5852 10.757C13.5666 10.8373 13.5092 10.879 13.4512 10.8866C13.456 10.8867 13.4551 10.8871 13.4419 10.888ZM13.0556 9.21512C12.865 9.12178 12.6588 9.06376 12.4498 9.02918C12.3585 9.01408 12.2662 9.00491 12.1744 8.99214C12.0632 8.97669 12.0039 8.90582 12.0091 8.79624C12.014 8.69354 12.0891 8.61968 12.201 8.626C12.5688 8.64689 12.924 8.72637 13.2509 8.8995C13.9158 9.25159 14.2956 9.80736 14.4064 10.5495C14.4115 10.5831 14.4195 10.6164 14.422 10.6501C14.4284 10.7334 14.4323 10.8169 14.4387 10.9267C14.436 10.9467 14.4346 10.9938 14.423 11.0381C14.3804 11.199 14.1365 11.2191 14.0803 11.0567C14.0637 11.0085 14.0612 10.9537 14.0611 10.9019C14.0606 10.5625 13.9868 10.2234 13.8156 9.92809C13.6397 9.62466 13.3709 9.36951 13.0556 9.21512ZM15.11 11.5086C14.9815 11.5102 14.9237 11.4027 14.9154 11.2875C14.8989 11.0595 14.8875 10.8304 14.856 10.6043C14.6901 9.41055 13.7383 8.42295 12.5501 8.21102C12.3713 8.17912 12.1883 8.17074 12.0072 8.15173C11.8927 8.13971 11.7427 8.13277 11.7174 7.99045C11.6961 7.87113 11.7968 7.77612 11.9104 7.77002C11.9413 7.76835 11.9724 7.76975 12.0034 7.76988C13.5423 7.81302 12.0973 7.77322 12.0075 7.7701C13.6081 7.81675 14.9223 8.87966 15.2041 10.4625C15.2522 10.7325 15.2693 11.0085 15.2907 11.2824C15.2996 11.3976 15.2344 11.5071 15.11 11.5086Z" fill="#E0E0E0"/>
<path d="M2 2V22H22V2H2ZM18.3252 13.8834L18.3213 13.8992C18.0018 15.1907 16.5615 16.5766 15.2388 16.865L15.2239 16.868C14.1544 17.0721 13.077 17.1739 12 17.1739C11.683 17.1739 11.3661 17.164 11.0492 17.1463L9.58851 18.6647C9.2269 19.0412 8.59099 18.7849 8.59099 18.2631V16.8214C7.31766 16.4578 5.98459 15.1356 5.67831 13.8991L5.6748 13.8833C5.27983 12.0796 5.27983 10.2505 5.6748 8.44679L5.67831 8.43099C5.99824 7.13944 7.43856 5.75353 8.76083 5.4652L8.77619 5.46213C10.9152 5.05399 13.0844 5.05399 15.2239 5.46213L15.2388 5.4652C16.5615 5.75353 18.0018 7.13944 18.3213 8.43099L18.3252 8.44679C18.7202 10.2505 18.7202 12.0797 18.3252 13.8834Z" fill="#E0E0E0"/>
</g>
</svg>
