<svg width="24" height="24" viewBox="0 0 24 24" fill="none" xmlns="http://www.w3.org/2000/svg">
<path d="M18.25 2H5.74998C3.67875 2 2 3.67875 2 5.74998V18.25C2 20.3212 3.67875 22 5.74998 22H18.25C20.3212 22 22 20.3212 22 18.25V5.74998C22 3.67875 20.3212 2 18.25 2ZM12 19.4825C7.87375 19.4825 4.51624 16.1237 4.51624 12C4.51624 7.87627 7.87375 4.51624 12 4.51624C16.1262 4.51624 19.4825 7.87375 19.4825 12C19.4825 16.1262 16.1262 19.4825 12 19.4825Z" fill="#E0E0E0"/>
<path d="M11.6524 9.9212C10.5924 8.03746 9.45119 6.45494 9.28243 6.22368C7.49367 7.06742 6.15618 8.71617 5.74243 10.6999C6.02871 10.7037 8.66247 10.7149 11.6524 9.9212Z" fill="#E0E0E0"/>
<path d="M12.4462 12.0651L12.6974 11.9901C12.5362 11.6263 12.3612 11.2626 12.1799 10.9051C8.9862 11.8601 5.88745 11.8201 5.60872 11.8138L5.6062 12.0088C5.60746 13.6501 6.22871 15.1501 7.24995 16.2838C7.39496 16.0363 9.14871 13.13 12.4462 12.0651Z" fill="#E0E0E0"/>
<path d="M13.3774 10.4875C13.5262 10.7925 13.6687 11.1025 13.8024 11.4138L13.9387 11.7438C16.0662 11.4763 18.1799 11.905 18.3899 11.95C18.3774 10.4413 17.8399 9.05504 16.9499 7.96753C16.8149 8.14876 15.7425 9.52251 13.3774 10.4875Z" fill="#E0E0E0"/>
<path d="M13.0912 13.0624C9.48615 14.3162 8.19117 16.8187 8.07617 17.0537C9.15991 17.8987 10.5224 18.4024 11.9999 18.4024C12.8862 18.4036 13.7312 18.2224 14.4974 17.8949C14.4024 17.3349 14.0311 15.3786 13.1336 13.0474L13.0912 13.0624Z" fill="#E0E0E0"/>
<path d="M16.2387 7.22767C15.1087 6.22641 13.6249 5.61641 11.9999 5.61641C11.4849 5.61641 10.9824 5.67765 10.5024 5.7939C10.6787 6.03142 11.8399 7.61263 12.8874 9.53641C15.1612 8.6852 16.1224 7.39144 16.2387 7.22767Z" fill="#E0E0E0"/>
<path d="M14.3289 12.7524C15.1663 15.0487 15.5051 16.9187 15.5714 17.3099C17.0039 16.3412 18.0251 14.8037 18.3089 13.0237C18.0938 12.9549 16.3339 12.4299 14.3289 12.7524Z" fill="#E0E0E0"/>
</svg>
