<svg width="24" height="24" viewBox="0 0 24 24" fill="none" xmlns="http://www.w3.org/2000/svg">
<path d="M11.9998 10.0113C10.9035 10.0113 10.0109 10.9035 10.0109 11.9998C10.0109 13.0965 10.9035 13.9891 11.9998 13.9891C13.0965 13.9891 13.9887 13.0965 13.9887 11.9998C13.9887 10.9035 13.0965 10.0113 11.9998 10.0113ZM11.9998 10.0113C10.9035 10.0113 10.0109 10.9035 10.0109 11.9998C10.0109 13.0965 10.9035 13.9891 11.9998 13.9891C13.0965 13.9891 13.9887 13.0965 13.9887 11.9998C13.9887 10.9035 13.0965 10.0113 11.9998 10.0113ZM15.3131 6.76861H8.68685C7.62921 6.76861 6.76861 7.62921 6.76861 8.68685V15.3131C6.76861 16.3708 7.62921 17.2314 8.68685 17.2314H15.3131C16.3708 17.2314 17.2314 16.3708 17.2314 15.3131V8.68685C17.2314 7.62921 16.3708 6.76861 15.3131 6.76861ZM11.9998 15.4444C10.1008 15.4444 8.55564 13.8992 8.55564 11.9998C8.55564 10.1008 10.1008 8.55564 11.9998 8.55564C13.8992 8.55564 15.4444 10.1008 15.4444 11.9998C15.4444 13.8992 13.8992 15.4444 11.9998 15.4444ZM15.555 9.2679C15.1056 9.2679 14.74 8.90233 14.74 8.45294C14.74 8.00355 15.1056 7.63799 15.555 7.63799C16.0043 7.63799 16.3699 8.00355 16.3699 8.45294C16.3699 8.90233 16.0043 9.2679 15.555 9.2679ZM11.9998 10.0113C10.9035 10.0113 10.0109 10.9035 10.0109 11.9998C10.0109 13.0965 10.9035 13.9891 11.9998 13.9891C13.0965 13.9891 13.9887 13.0965 13.9887 11.9998C13.9887 10.9035 13.0965 10.0113 11.9998 10.0113ZM15.3131 6.76861H8.68685C7.62921 6.76861 6.76861 7.62921 6.76861 8.68685V15.3131C6.76861 16.3708 7.62921 17.2314 8.68685 17.2314H15.3131C16.3708 17.2314 17.2314 16.3708 17.2314 15.3131V8.68685C17.2314 7.62921 16.3708 6.76861 15.3131 6.76861ZM11.9998 15.4444C10.1008 15.4444 8.55564 13.8992 8.55564 11.9998C8.55564 10.1008 10.1008 8.55564 11.9998 8.55564C13.8992 8.55564 15.4444 10.1008 15.4444 11.9998C15.4444 13.8992 13.8992 15.4444 11.9998 15.4444ZM15.555 9.2679C15.1056 9.2679 14.74 8.90233 14.74 8.45294C14.74 8.00355 15.1056 7.63799 15.555 7.63799C16.0043 7.63799 16.3699 8.00355 16.3699 8.45294C16.3699 8.90233 16.0043 9.2679 15.555 9.2679ZM11.9998 10.0113C10.9035 10.0113 10.0109 10.9035 10.0109 11.9998C10.0109 13.0965 10.9035 13.9891 11.9998 13.9891C13.0965 13.9891 13.9887 13.0965 13.9887 11.9998C13.9887 10.9035 13.0965 10.0113 11.9998 10.0113ZM5 2C3.34315 2 2 3.34315 2 5V19C2 20.6569 3.34315 22 5 22H19C20.6569 22 22 20.6569 22 19V5C22 3.34315 20.6569 2 19 2H5ZM18.6866 15.3131C18.6866 17.1735 17.1735 18.6866 15.3131 18.6866H8.68685C6.82654 18.6866 5.31337 17.1735 5.31337 15.3131V8.68685C5.31337 6.82654 6.82654 5.31337 8.68685 5.31337H15.3131C17.1735 5.31337 18.6866 6.82654 18.6866 8.68685V15.3131ZM15.3131 6.76861H8.68685C7.62921 6.76861 6.76861 7.62921 6.76861 8.68685V15.3131C6.76861 16.3708 7.62921 17.2314 8.68685 17.2314H15.3131C16.3708 17.2314 17.2314 16.3708 17.2314 15.3131V8.68685C17.2314 7.62921 16.3708 6.76861 15.3131 6.76861ZM11.9998 15.4444C10.1008 15.4444 8.55564 13.8992 8.55564 11.9998C8.55564 10.1008 10.1008 8.55564 11.9998 8.55564C13.8992 8.55564 15.4444 10.1008 15.4444 11.9998C15.4444 13.8992 13.8992 15.4444 11.9998 15.4444ZM15.555 9.2679C15.1056 9.2679 14.74 8.90233 14.74 8.45294C14.74 8.00355 15.1056 7.63799 15.555 7.63799C16.0043 7.63799 16.3699 8.00355 16.3699 8.45294C16.3699 8.90233 16.0043 9.2679 15.555 9.2679ZM11.9998 10.0113C10.9035 10.0113 10.0109 10.9035 10.0109 11.9998C10.0109 13.0965 10.9035 13.9891 11.9998 13.9891C13.0965 13.9891 13.9887 13.0965 13.9887 11.9998C13.9887 10.9035 13.0965 10.0113 11.9998 10.0113ZM11.9998 10.0113C10.9035 10.0113 10.0109 10.9035 10.0109 11.9998C10.0109 13.0965 10.9035 13.9891 11.9998 13.9891C13.0965 13.9891 13.9887 13.0965 13.9887 11.9998C13.9887 10.9035 13.0965 10.0113 11.9998 10.0113ZM11.9998 10.0113C10.9035 10.0113 10.0109 10.9035 10.0109 11.9998C10.0109 13.0965 10.9035 13.9891 11.9998 13.9891C13.0965 13.9891 13.9887 13.0965 13.9887 11.9998C13.9887 10.9035 13.0965 10.0113 11.9998 10.0113ZM15.3131 6.76861H8.68685C7.62921 6.76861 6.76861 7.62921 6.76861 8.68685V15.3131C6.76861 16.3708 7.62921 17.2314 8.68685 17.2314H15.3131C16.3708 17.2314 17.2314 16.3708 17.2314 15.3131V8.68685C17.2314 7.62921 16.3708 6.76861 15.3131 6.76861ZM11.9998 15.4444C10.1008 15.4444 8.55564 13.8992 8.55564 11.9998C8.55564 10.1008 10.1008 8.55564 11.9998 8.55564C13.8992 8.55564 15.4444 10.1008 15.4444 11.9998C15.4444 13.8992 13.8992 15.4444 11.9998 15.4444ZM15.555 9.2679C15.1056 9.2679 14.74 8.90233 14.74 8.45294C14.74 8.00355 15.1056 7.63799 15.555 7.63799C16.0043 7.63799 16.3699 8.00355 16.3699 8.45294C16.3699 8.90233 16.0043 9.2679 15.555 9.2679ZM11.9998 10.0113C10.9035 10.0113 10.0109 10.9035 10.0109 11.9998C10.0109 13.0965 10.9035 13.9891 11.9998 13.9891C13.0965 13.9891 13.9887 13.0965 13.9887 11.9998C13.9887 10.9035 13.0965 10.0113 11.9998 10.0113ZM11.9998 10.0113C10.9035 10.0113 10.0109 10.9035 10.0109 11.9998C10.0109 13.0965 10.9035 13.9891 11.9998 13.9891C13.0965 13.9891 13.9887 13.0965 13.9887 11.9998C13.9887 10.9035 13.0965 10.0113 11.9998 10.0113ZM11.9998 10.0113C10.9035 10.0113 10.0109 10.9035 10.0109 11.9998C10.0109 13.0965 10.9035 13.9891 11.9998 13.9891C13.0965 13.9891 13.9887 13.0965 13.9887 11.9998C13.9887 10.9035 13.0965 10.0113 11.9998 10.0113ZM15.3131 6.76861H8.68685C7.62921 6.76861 6.76861 7.62921 6.76861 8.68685V15.3131C6.76861 16.3708 7.62921 17.2314 8.68685 17.2314H15.3131C16.3708 17.2314 17.2314 16.3708 17.2314 15.3131V8.68685C17.2314 7.62921 16.3708 6.76861 15.3131 6.76861ZM11.9998 15.4444C10.1008 15.4444 8.55564 13.8992 8.55564 11.9998C8.55564 10.1008 10.1008 8.55564 11.9998 8.55564C13.8992 8.55564 15.4444 10.1008 15.4444 11.9998C15.4444 13.8992 13.8992 15.4444 11.9998 15.4444ZM15.555 9.2679C15.1056 9.2679 14.74 8.90233 14.74 8.45294C14.74 8.00355 15.1056 7.63799 15.555 7.63799C16.0043 7.63799 16.3699 8.00355 16.3699 8.45294C16.3699 8.90233 16.0043 9.2679 15.555 9.2679ZM11.9998 10.0113C10.9035 10.0113 10.0109 10.9035 10.0109 11.9998C10.0109 13.0965 10.9035 13.9891 11.9998 13.9891C13.0965 13.9891 13.9887 13.0965 13.9887 11.9998C13.9887 10.9035 13.0965 10.0113 11.9998 10.0113Z" fill="#E0E0E0"/>
</svg>
