<svg width="24" height="24" viewBox="0 0 24 24" fill="none" xmlns="http://www.w3.org/2000/svg">
<path d="M20.9028 3.10018C20.1695 2.36677 19.2861 2 18.2532 2H5.75296C4.72005 2 3.83665 2.36677 3.10311 3.10018C2.3697 3.83372 2.00293 4.71708 2.00293 5.75003V18.2502C2.00293 19.283 2.3697 20.1665 3.10311 20.9C3.83665 21.6336 4.72005 22.0003 5.75296 22.0003H18.2531C19.286 22.0003 20.1694 21.6336 20.9026 20.9C21.6362 20.1665 22.0029 19.2831 22.0029 18.2502V5.75003C22.0029 4.71708 21.6361 3.83358 20.9028 3.10018ZM8.0967 18.7449H5.08883V9.7083H8.0967V18.7449ZM7.82342 8.03525C7.51097 8.33476 7.09859 8.48453 6.58638 8.48453H6.57324C6.0785 8.48453 5.67716 8.33476 5.3689 8.03525C5.0606 7.73575 4.90654 7.3647 4.90654 6.92199C4.90654 6.47062 5.06507 6.09728 5.38181 5.80207C5.69878 5.50694 6.10887 5.35931 6.61228 5.35931C7.11574 5.35931 7.51941 5.50694 7.82328 5.80207C8.12707 6.09728 8.28337 6.47062 8.29199 6.92199C8.29194 7.36451 8.13587 7.73557 7.82342 8.03525ZM18.9172 18.7449H15.9093V13.9142C15.9093 12.5515 15.406 11.87 14.399 11.87C14.0171 11.87 13.6957 11.9763 13.4354 12.189C13.1748 12.4016 12.9795 12.6598 12.8495 12.9639C12.7886 13.12 12.7583 13.363 12.7583 13.6927V18.7449H9.75045C9.77649 13.2935 9.77649 10.2812 9.75045 9.70821H12.7583V10.984C13.3907 9.99521 14.2888 9.49978 15.4537 9.49978C16.4954 9.49978 17.3332 9.84275 17.9669 10.5284C18.6006 11.2142 18.9173 12.2256 18.9173 13.5621V18.7449H18.9172Z" fill="#E0E0E0"/>
</svg>
