<svg width="44" height="44" viewBox="0 0 44 44" fill="none" xmlns="http://www.w3.org/2000/svg">
<circle cx="22" cy="22" r="22" fill="#F5F5F5"/>
<path fill-rule="evenodd" clip-rule="evenodd" d="M26.6824 16.277C26.6824 18.8589 24.5819 20.9595 22 20.9595C19.4181 20.9595 17.3176 18.8589 17.3176 16.277C17.3176 13.6951 19.4181 11.5946 22 11.5946C24.5819 11.5946 26.6824 13.6951 26.6824 16.277ZM25.28 16.277C25.28 14.4686 23.8085 12.997 22 12.997C20.1915 12.997 18.72 14.4686 18.72 16.277C18.72 18.0855 20.1915 19.5571 22 19.5571C23.8085 19.5571 25.28 18.0855 25.28 16.277ZM21.9998 32.4054C19.917 32.4054 17.9647 32.0923 16.5031 31.5225C14.1661 30.613 13.6757 29.3011 13.6757 28.361C13.6757 25.2675 15.2443 22.3709 17.7692 20.8014C18.0121 20.6502 18.3223 20.6679 18.5465 20.8483C19.5414 21.6445 20.7354 22.0652 21.9998 22.0652C23.2642 22.0652 24.4586 21.6445 25.4535 20.8483C25.6773 20.6679 25.9869 20.6502 26.2308 20.8014C28.7556 22.3709 30.3243 25.2675 30.3243 28.361C30.3243 31.1548 26.1434 32.4054 21.9998 32.4054ZM21.9998 23.4594C20.5929 23.4594 19.2561 23.0407 18.1038 22.2436C16.2048 23.6065 15.0422 25.9088 15.0422 28.361C15.0422 29.8471 18.0985 31.0112 21.9998 31.0112C25.9015 31.0112 28.9578 29.8471 28.9578 28.361C28.9578 25.9088 27.7951 23.6065 25.8962 22.2436C24.7438 23.0407 23.4067 23.4594 21.9998 23.4594Z" fill="#E0E0E0"/>
</svg>
