<svg width="16" height="16" viewBox="0 0 16 16" fill="none" xmlns="http://www.w3.org/2000/svg">
  <path fill-rule="evenodd" clip-rule="evenodd" d="M13.3333 1.6H14.2222C15.2 1.6 16 2.32 16 3.2V14.4C16 15.28 15.2 16 14.2222 16H1.77778C0.791111 16 0 15.28 0 14.4V3.2C0 2.32 0.791111 1.6 1.77778 1.6H2.66667V0.8C2.66667 0.36 3.06667 0 3.55556 0C4.04444 0 4.44444 0.36 4.44444 0.8V1.6H11.5556V0.8C11.5556 0.36 11.9556 0 12.4444 0C12.9333 0 13.3333 0.36 13.3333 0.8V1.6ZM4.44404 7.20037H11.5551C12.044 7.20037 12.444 7.56037 12.444 8.00037C12.444 8.44037 12.044 8.80037 11.5551 8.80037H4.44404C3.95515 8.80037 3.55515 8.44037 3.55515 8.00037C3.55515 7.56037 3.95515 7.20037 4.44404 7.20037ZM13.3336 14.4006H2.66692C2.17803 14.4006 1.77803 14.0406 1.77803 13.6006V5.60064H14.2225V13.6006C14.2225 14.0406 13.8225 14.4006 13.3336 14.4006ZM4.44404 10.3994H8.88848C9.37737 10.3994 9.77737 10.7594 9.77737 11.1994C9.77737 11.6394 9.37737 11.9994 8.88848 11.9994H4.44404C3.95515 11.9994 3.55515 11.6394 3.55515 11.1994C3.55515 10.7594 3.95515 10.3994 4.44404 10.3994Z" fill="#E0E0E0"/>
</svg>
