<svg width="20" height="21" viewBox="0 0 20 21" fill="none" xmlns="http://www.w3.org/2000/svg">
  <path fill-rule="evenodd" clip-rule="evenodd" class="fill-theme-color"
        d="M5.33366 0.5C5.6098 0.5 5.83366 0.723858 5.83366 1V1.66667H14.167V1C14.167 0.723858 14.3909 0.5 14.667 0.5C14.9431 0.5 15.167 0.723858 15.167 1V1.66667H18.3337C18.8859 1.66667 19.3337 2.11438 19.3337 2.66667V19.3333C19.3337 19.8856 18.8859 20.3333 18.3337 20.3333H1.66699C1.11471 20.3333 0.666992 19.8856 0.666992 19.3333V2.66667C0.666992 2.11438 1.11471 1.66667 1.66699 1.66667H4.83366V1C4.83366 0.723858 5.05752 0.5 5.33366 0.5ZM14.167 2.66667V3.66667C14.167 3.94281 14.3909 4.16667 14.667 4.16667C14.9431 4.16667 15.167 3.94281 15.167 3.66667V2.66667L18.3337 2.66667V5.96065C18.2452 5.88148 18.1284 5.83333 18.0003 5.83333H2.00033C1.87227 5.83333 1.75545 5.88148 1.66699 5.96065L1.66699 2.66667L4.83366 2.66667V3.66667C4.83366 3.94281 5.05752 4.16667 5.33366 4.16667C5.6098 4.16667 5.83366 3.94281 5.83366 3.66667V2.66667L14.167 2.66667ZM1.66699 19.3333L1.66699 6.70602C1.75545 6.78519 1.87227 6.83333 2.00033 6.83333H18.0003C18.1284 6.83333 18.2452 6.78519 18.3337 6.70602V19.3333L1.66699 19.3333ZM5.33366 15.1667C5.05752 15.1667 4.83366 15.3905 4.83366 15.6667C4.83366 15.9428 5.05752 16.1667 5.33366 16.1667H6.66699C6.94313 16.1667 7.16699 15.9428 7.16699 15.6667C7.16699 15.3905 6.94313 15.1667 6.66699 15.1667H5.33366ZM5.33366 12.5C5.05752 12.5 4.83366 12.7239 4.83366 13C4.83366 13.2761 5.05752 13.5 5.33366 13.5H6.66699C6.94313 13.5 7.16699 13.2761 7.16699 13C7.16699 12.7239 6.94313 12.5 6.66699 12.5H5.33366ZM5.33366 9.83333C5.05752 9.83333 4.83366 10.0572 4.83366 10.3333C4.83366 10.6095 5.05752 10.8333 5.33366 10.8333H6.66699C6.94313 10.8333 7.16699 10.6095 7.16699 10.3333C7.16699 10.0572 6.94313 9.83333 6.66699 9.83333H5.33366ZM9.33366 15.1667C9.05752 15.1667 8.83366 15.3905 8.83366 15.6667C8.83366 15.9428 9.05752 16.1667 9.33366 16.1667H10.667C10.9431 16.1667 11.167 15.9428 11.167 15.6667C11.167 15.3905 10.9431 15.1667 10.667 15.1667H9.33366ZM9.33366 12.5C9.05752 12.5 8.83366 12.7239 8.83366 13C8.83366 13.2761 9.05752 13.5 9.33366 13.5H10.667C10.9431 13.5 11.167 13.2761 11.167 13C11.167 12.7239 10.9431 12.5 10.667 12.5H9.33366ZM9.33366 9.83333C9.05752 9.83333 8.83366 10.0572 8.83366 10.3333C8.83366 10.6095 9.05752 10.8333 9.33366 10.8333H10.667C10.9431 10.8333 11.167 10.6095 11.167 10.3333C11.167 10.0572 10.9431 9.83333 10.667 9.83333H9.33366ZM13.3337 12.5C13.0575 12.5 12.8337 12.7239 12.8337 13C12.8337 13.2761 13.0575 13.5 13.3337 13.5H14.667C14.9431 13.5 15.167 13.2761 15.167 13C15.167 12.7239 14.9431 12.5 14.667 12.5H13.3337ZM13.3337 9.83333C13.0575 9.83333 12.8337 10.0572 12.8337 10.3333C12.8337 10.6095 13.0575 10.8333 13.3337 10.8333H14.667C14.9431 10.8333 15.167 10.6095 15.167 10.3333C15.167 10.0572 14.9431 9.83333 14.667 9.83333H13.3337Z"
        fill="#FEDA00"/>
</svg>
