<svg width="22" height="22" viewBox="0 0 22 22" fill="none" xmlns="http://www.w3.org/2000/svg">
  <path fill-rule="evenodd" clip-rule="evenodd" class="fill-theme-color"
        d="M20.6663 11.0007C20.6663 16.3394 16.3384 20.6673 10.9997 20.6673C5.66092 20.6673 1.33301 16.3394 1.33301 11.0007C1.33301 5.6619 5.66092 1.33398 10.9997 1.33398C16.3384 1.33398 20.6663 5.6619 20.6663 11.0007ZM21.6663 11.0007C21.6663 16.8917 16.8907 21.6673 10.9997 21.6673C5.10864 21.6673 0.333008 16.8917 0.333008 11.0007C0.333008 5.10961 5.10864 0.333984 10.9997 0.333984C16.8907 0.333984 21.6663 5.10961 21.6663 11.0007ZM12.1663 5.00065C12.1663 4.72451 11.9425 4.50065 11.6663 4.50065C11.3902 4.50065 11.1663 4.72451 11.1663 5.00065V11.1673H6.33301C6.05686 11.1673 5.83301 11.3912 5.83301 11.6673C5.83301 11.9435 6.05686 12.1673 6.33301 12.1673H11.6663C11.9425 12.1673 12.1663 11.9435 12.1663 11.6673V5.00065Z"
        fill="#FEDA00"/>
</svg>
