<svg width="16" height="17" viewBox="0 0 16 17" fill="none" xmlns="http://www.w3.org/2000/svg">
  <path fill-rule="evenodd" clip-rule="evenodd" d="M10.9837 10.3193H11.7248L15.7115 14.3154C16.0962 14.7 16.0962 15.3192 15.7115 15.7038L15.7022 15.7131C15.3176 16.0978 14.6984 16.0978 14.3138 15.7131L10.3177 11.7264V10.9853L10.0644 10.7227C8.75112 11.8483 6.95942 12.4299 5.05515 12.111C2.44733 11.6701 0.364832 9.49379 0.0458902 6.86721C-0.432522 2.8992 2.8976 -0.440303 6.86561 0.04749C9.49219 0.366432 11.6685 2.44893 12.1094 5.05675C12.4283 6.96102 11.8467 8.75272 10.7211 10.066L10.9837 10.3193ZM1.87521 6.09787C1.87521 8.43365 3.76072 10.3192 6.09649 10.3192C8.43227 10.3192 10.3178 8.43365 10.3178 6.09787C10.3178 3.76209 8.43227 1.87658 6.09649 1.87658C3.76072 1.87658 1.87521 3.76209 1.87521 6.09787Z" fill="#888D92"/>
</svg>
