<svg xmlns="http://www.w3.org/2000/svg" width="96" height="96" viewBox="0 0 96 96" fill="none">
  <path d="M81.3333 8H14.6667C10.9866 8.00438 8.00438 10.9866 8 14.6667V81.3334C8.00438 85.0134 10.9866 87.9956 14.6667 88H81.3334C85.0134 87.9956 87.9956 85.0134 88.0002 81.3333V14.6667C87.9956 10.9866 85.0134 8.00438 81.3333 8ZM85.3333 81.3333C85.3333 83.5423 83.5425 85.3333 81.3333 85.3333H14.6667C12.4577 85.3333 10.6667 83.5425 10.6667 81.3333V21.3333H85.3334V81.3333H85.3333ZM85.3333 18.6667H10.6667V14.6667C10.6667 12.4577 12.4577 10.6667 14.6667 10.6667H81.3334C83.5425 10.6667 85.3334 12.4577 85.3334 14.6667V18.6667H85.3333Z" fill="#E0E0E0"/>
  <path d="M17.3333 13.3335H16C15.2636 13.3335 14.6667 13.9304 14.6667 14.6668C14.6667 15.4032 15.2636 16.0002 16 16.0002H17.3333C18.0697 16.0002 18.6666 15.4033 18.6666 14.6669C18.6666 13.9305 18.0697 13.3335 17.3333 13.3335Z" fill="#E0E0E0"/>
  <path d="M23.6133 13.7201C23.0786 13.2268 22.2547 13.2268 21.72 13.7201C21.6024 13.8497 21.5077 13.9985 21.44 14.1601C21.2977 14.4829 21.2977 14.8505 21.44 15.1733C21.508 15.3347 21.6027 15.4835 21.72 15.6133C22.1017 15.9951 22.6772 16.106 23.1733 15.8933C23.3347 15.8254 23.4834 15.7307 23.6133 15.6133C23.7306 15.4835 23.8253 15.3347 23.8933 15.1733C24.0355 14.8505 24.0355 14.4829 23.8933 14.1601C23.8256 13.9985 23.7309 13.8497 23.6133 13.7201Z" fill="#E0E0E0"/>
  <path d="M28.9467 13.7201C28.412 13.2268 27.5881 13.2268 27.0534 13.7201C26.9357 13.8497 26.841 13.9985 26.7734 14.1601C26.5607 14.6562 26.6717 15.2318 27.0534 15.6133C27.1831 15.731 27.3318 15.8257 27.4934 15.8933C27.8162 16.0357 28.1839 16.0357 28.5067 15.8933C28.6696 15.8287 28.819 15.7337 28.9467 15.6133C29.197 15.3622 29.3364 15.0213 29.3334 14.6666C29.3373 14.4918 29.3009 14.3183 29.2267 14.1599C29.159 13.9985 29.0643 13.8497 28.9467 13.7201Z" fill="#E0E0E0"/>
  <path d="M80.0001 13.3335H34.6668C33.9304 13.3335 33.3335 13.9304 33.3335 14.6668C33.3335 15.4032 33.9304 16.0001 34.6668 16.0001H80.0001C80.7365 16.0001 81.3333 15.4032 81.3333 14.6668C81.3333 13.9304 80.7365 13.3335 80.0001 13.3335Z" fill="#E0E0E0"/>
  <circle cx="44.5" cy="48.5" r="13.165" stroke="#E0E0E0" stroke-width="2.67"/>
  <line x1="54.4687" y1="58.8389" x2="65" y2="69.3702" stroke="#E0E0E0" stroke-width="2.67" stroke-linecap="round"/>
</svg>
