<svg width="16" height="16" viewBox="0 0 16 16" fill="none" xmlns="http://www.w3.org/2000/svg">
  <path class="fill-theme-color" d="M8 0.5C3.86628 0.5 0.5 3.86628 0.5 8C0.5 12.1337 3.86628 15.5 8 15.5C12.1337 15.5 15.5 12.1337 15.5 8C15.5 3.86628 12.1337 0.5 8 0.5ZM8 14.4535C4.44186 14.4535 1.54651 11.5581 1.54651 8C1.54651 4.44186 4.44186 1.54651 8 1.54651C11.5581 1.54651 14.4535 4.44186 14.4535 8C14.4535 11.5581 11.5581 14.4535 8 14.4535Z" fill="#FEDA00"/>
  <path class="fill-theme-color" d="M7.99982 6.43066C7.70331 6.43066 7.47656 6.65741 7.47656 6.95392V10.9655C7.47656 11.2621 7.70331 11.4888 7.99982 11.4888C8.29633 11.4888 8.52307 11.2621 8.52307 10.9655V6.95392C8.52307 6.65741 8.29633 6.43066 7.99982 6.43066Z" fill="#FEDA00"/>
  <path class="fill-theme-color" d="M7.99846 4.5119C7.61473 4.5119 7.30078 4.82586 7.30078 5.20958C7.30078 5.5933 7.61473 5.90725 7.99846 5.90725C8.38218 5.90725 8.69613 5.5933 8.69613 5.20958C8.69613 4.82586 8.38218 4.5119 7.99846 4.5119Z" fill="#FEDA00"/>
</svg>
