<svg width="9" height="8" viewBox="0 0 9 8" fill="none" xmlns="http://www.w3.org/2000/svg">
    <g>
        <path d="M4.77792 1.22595L1.83182 4.00358L4.77792 6.78121C4.9201 6.91496 5 7.09654 5 7.28591C5 7.47527 4.9201 7.65685 4.77792 7.7906C4.48179 8.0698 4.00343 8.0698 3.7073 7.7906L0.222096 4.5047C-0.0740321 4.2255 -0.074032 3.7745 0.222096 3.4953L3.7073 0.209396C4.00343 -0.0697987 4.48179 -0.0697986 4.77792 0.209396C5.06645 0.488591 5.07404 0.946756 4.77792 1.22595Z" fill="#888D92"/>
        <path d="M8.77792 1.22595L5.83182 4.00358L8.77792 6.78121C8.9201 6.91496 9 7.09654 9 7.28591C9 7.47527 8.9201 7.65685 8.77792 7.7906C8.48179 8.0698 8.00343 8.0698 7.7073 7.7906L4.2221 4.5047C3.92597 4.2255 3.92597 3.7745 4.2221 3.4953L7.7073 0.209396C8.00343 -0.0697987 8.48179 -0.0697986 8.77792 0.209396C9.06645 0.488591 9.07404 0.946756 8.77792 1.22595Z" fill="#888D92"/>
    </g>
</svg>
