<svg width="14" height="18" viewBox="0 0 14 18" fill="none" xmlns="http://www.w3.org/2000/svg">
<path fill-rule="evenodd" clip-rule="evenodd" d="M13 3H1C0.822716 3 0.655822 2.95325 0.51104 2.87146C0.206654 2.69951 0 2.37272 0 2C0 1.45 0.45 1 1 1H3.5L4.21 0.29C4.39 0.11 4.65 0 4.91 0H9.09C9.35 0 9.61 0.11 9.79 0.29L10.5 1H13C13.55 1 14 1.45 14 2C14 2.37272 13.7933 2.69951 13.489 2.87145C13.3442 2.95324 13.1773 3 13 3ZM12.7303 5C12.3831 4.40334 11.7364 4 11 4H3C2.26362 4 1.61686 4.40334 1.26974 5C1.09834 5.29462 1 5.63638 1 6V16C1 17.1 1.9 18 3 18H11C12.1 18 13 17.1 13 16V6C13 5.63638 12.9017 5.29462 12.7303 5ZM3 16H11V6H3V16Z" fill="#888D92"/>
</svg>
