<svg width="20" height="20" viewBox="0 0 20 20" fill="none" xmlns="http://www.w3.org/2000/svg">
<path d="M9.4999 1C5.91593 1 3 4.01575 3 7.72281C3 9.81967 4.74989 12.9576 5.79301 14.6411C6.46104 15.7197 7.1837 16.7619 7.82768 17.5754C8.87019 18.8927 9.20186 19 9.4999 19C9.79467 19 10.1455 18.891 11.1901 17.5764C11.8324 16.7673 12.5547 15.725 13.2241 14.6404C14.2609 12.9603 16 9.82764 16 7.72302C16 4.01575 13.0841 1 9.4999 1ZM9.50601 17.6276C8.35974 16.5116 4.22313 10.5297 4.22313 7.72281C4.22313 4.71043 6.59028 2.25962 9.4999 2.25962C12.4095 2.25962 14.7767 4.71043 14.7767 7.72281C14.7769 10.5845 10.648 16.5341 9.50601 17.6276ZM9.45546 4.68922C7.86295 4.68922 6.56745 6.02358 6.56745 7.6634C6.56745 9.30343 7.86295 10.6376 9.45546 10.6376C11.048 10.6376 12.3435 9.30343 12.3435 7.6634C12.3435 6.02358 11.048 4.68922 9.45546 4.68922ZM9.45546 9.37817C8.5375 9.37817 7.79058 8.60896 7.79058 7.6634C7.79058 6.71784 8.5375 5.94885 9.45546 5.94885C10.3734 5.94885 11.1203 6.71805 11.1203 7.6634C11.1203 8.60875 10.3734 9.37817 9.45546 9.37817Z" fill="#888D92"/>
</svg>
