<svg width="140" height="140" viewBox="0 0 140 140" fill="none" xmlns="http://www.w3.org/2000/svg">
  <circle cx="70" cy="70" r="70" fill="white"/>
  <path d="M102.16 30H55.541C52.8732 30 50.7026 32.176 50.7026 34.8505V45.705C41.859 48.2421 35.3672 56.42 35.3672 66.0895C35.3672 75.7591 41.8588 83.937 50.7026 86.4741V105.15C50.7026 107.824 52.8732 110 55.541 110H93.6378C94.0898 110 94.5231 109.82 94.8429 109.5L106.499 97.8141C106.819 97.4938 106.998 97.0592 106.998 96.6061V34.8505C106.998 32.176 104.828 30 102.16 30ZM55.541 33.4167H102.16C102.949 33.4167 103.59 34.0599 103.59 34.8505V40.0063H54.1109V34.8505C54.1109 34.0599 54.7524 33.4167 55.541 33.4167ZM38.7755 66.0894C38.7755 56.2845 46.7325 48.3077 56.513 48.3077C66.2936 48.3077 74.2506 56.2845 74.2506 66.0894C74.2506 75.8943 66.2936 83.8712 56.513 83.8712C46.7325 83.8712 38.7755 75.8943 38.7755 66.0894ZM54.1109 105.149V87.1503C54.8996 87.2401 55.7009 87.288 56.5132 87.288C62.8647 87.288 68.5707 84.4656 72.4501 80.0067H82.8917C83.8329 80.0067 84.5958 79.2419 84.5958 78.2984C84.5958 77.3549 83.8329 76.59 82.8917 76.59H74.8772C76.3595 73.9949 77.3091 71.0573 77.5785 67.9274H82.8915C83.8327 67.9274 84.5957 67.1626 84.5957 66.2191C84.5957 65.2755 83.8327 64.5107 82.8915 64.5107H77.6001C77.3697 61.3878 76.4608 58.4513 75.0219 55.8483H82.8914C83.8325 55.8483 84.5955 55.0834 84.5955 54.1399C84.5955 53.1964 83.8325 52.4315 82.8914 52.4315H72.6708C68.789 47.8233 62.9865 44.8908 56.5127 44.8908C55.7004 44.8908 54.8991 44.9386 54.1104 45.0284V43.4231H103.59V94.8974H96.7716C94.1036 94.8974 91.9333 97.0733 91.9333 99.7477V106.583H55.541C54.7524 106.583 54.1109 105.94 54.1109 105.149ZM95.3421 104.167V99.7478C95.3421 98.9573 95.9837 98.3143 96.7721 98.3143H101.18L95.3421 104.167Z" fill="#EFEFF0"/>
  <path d="M89.5869 55.8494H95.2463C96.1874 55.8494 96.9504 55.0845 96.9504 54.141C96.9504 53.1975 96.1874 52.4326 95.2463 52.4326H89.5869C88.6458 52.4326 87.8828 53.1975 87.8828 54.141C87.8828 55.0845 88.6458 55.8494 89.5869 55.8494Z" fill="#EFEFF0"/>
  <path d="M89.5869 67.9275H95.2463C96.1874 67.9275 96.9504 67.1626 96.9504 66.2191C96.9504 65.2756 96.1874 64.5107 95.2463 64.5107H89.5869C88.6458 64.5107 87.8828 65.2756 87.8828 66.2191C87.8828 67.1626 88.6458 67.9275 89.5869 67.9275Z" fill="#EFEFF0"/>
  <path d="M89.5869 80.0076H95.2463C96.1874 80.0076 96.9504 79.2427 96.9504 78.2992C96.9504 77.3557 96.1874 76.5908 95.2463 76.5908H89.5869C88.6458 76.5908 87.8828 77.3557 87.8828 78.2992C87.8828 79.2427 88.6458 80.0076 89.5869 80.0076Z" fill="#EFEFF0"/>
  <path d="M95.2474 92.0867C96.1886 92.0867 96.9516 91.3218 96.9516 90.3783C96.9516 89.4348 96.1886 88.6699 95.2474 88.6699H79.3057C78.3645 88.6699 77.6016 89.4348 77.6016 90.3783C77.6016 91.3218 78.3645 92.0867 79.3057 92.0867H95.2474Z" fill="#EFEFF0"/>
  <rect width="4.99495" height="26.6278" rx="2.49747" transform="matrix(-0.639316 -0.768944 -0.76738 0.641192 42.6289 77.1748)" fill="#EFEFF0"/>
</svg>
