<svg xmlns="http://www.w3.org/2000/svg" xmlns:xlink="http://www.w3.org/1999/xlink" width="25pt" height="25pt" viewBox="0 0 25 25" version="1.1">
  <g id="surface1">
    <path style=" stroke:none;fill-rule:nonzero;fill:rgb(96.078431%,96.078431%,96.078431%);fill-opacity:1;" d="M 25 12.5 C 25 19.402344 19.402344 25 12.5 25 C 5.597656 25 0 19.402344 0 12.5 C 0 5.597656 5.597656 0 12.5 0 C 19.402344 0 25 5.597656 25 12.5 Z M 25 12.5 "/>
    <path style=" stroke:none;fill-rule:evenodd;fill:rgb(87.843137%,87.843137%,87.843137%);fill-opacity:1;" d="M 15.160156 9.25 C 15.160156 10.714844 13.96875 11.910156 12.5 11.910156 C 11.03125 11.910156 9.839844 10.714844 9.839844 9.25 C 9.839844 7.78125 11.03125 6.585938 12.5 6.585938 C 13.96875 6.585938 15.160156 7.78125 15.160156 9.25 Z M 14.363281 9.25 C 14.363281 8.222656 13.527344 7.382812 12.5 7.382812 C 11.472656 7.382812 10.636719 8.222656 10.636719 9.25 C 10.636719 10.277344 11.472656 11.113281 12.5 11.113281 C 13.527344 11.113281 14.363281 10.277344 14.363281 9.25 Z M 12.5 18.414062 C 11.316406 18.414062 10.207031 18.234375 9.375 17.910156 C 8.050781 17.394531 7.769531 16.648438 7.769531 16.113281 C 7.769531 14.355469 8.660156 12.710938 10.097656 11.820312 C 10.234375 11.734375 10.410156 11.742188 10.539062 11.84375 C 11.101562 12.296875 11.78125 12.535156 12.5 12.535156 C 13.21875 12.535156 13.898438 12.296875 14.460938 11.84375 C 14.589844 11.742188 14.765625 11.734375 14.902344 11.820312 C 16.339844 12.710938 17.230469 14.355469 17.230469 16.113281 C 17.230469 17.703125 14.855469 18.414062 12.5 18.414062 Z M 12.5 13.328125 C 11.699219 13.328125 10.941406 13.089844 10.285156 12.636719 C 9.207031 13.414062 8.546875 14.722656 8.546875 16.113281 C 8.546875 16.957031 10.285156 17.621094 12.5 17.621094 C 14.714844 17.621094 16.453125 16.957031 16.453125 16.113281 C 16.453125 14.722656 15.792969 13.414062 14.714844 12.636719 C 14.058594 13.089844 13.300781 13.328125 12.5 13.328125 Z M 12.5 13.328125 "/>
  </g>
</svg>
