<svg width="20" height="20" viewBox="0 0 20 20" fill="none" xmlns="http://www.w3.org/2000/svg">
  <path class="fill-theme-color" d="M16.75 4H15V3.25C15 3.11175 14.8883 3 14.75 3H13C12.8617 3 12.75 3.11175 12.75 3.25V4H7.25V3.25C7.25 3.11175 7.13825 3 7 3H5.25C5.11175 3 5 3.11175 5 3.25V4H3.25C3.11175 4 3 4.11175 3 4.25V7V17.75C3 17.8883 3.11175 18 3.25 18H16.75C16.8883 18 17 17.8883 17 17.75V7V4.25C17 4.11175 16.8883 4 16.75 4ZM13.25 3.5H14.5V4.25V5H13.25V4.25V3.5ZM5.5 3.5H6.75V4.25V5H5.5V4.25V3.5ZM3.5 4.5H5V5.25C5 5.38825 5.11175 5.5 5.25 5.5H7C7.13825 5.5 7.25 5.38825 7.25 5.25V4.5H12.75V5.25C12.75 5.38825 12.8617 5.5 13 5.5H14.75C14.8883 5.5 15 5.38825 15 5.25V4.5H16.5V6.75H3.5V4.5ZM3.5 17.5V7.25H16.5V17.5H3.5Z" fill="#FEDA00"/>
  <path class="fill-theme-color" d="M12 8.75H10.25H9.75H8H7.5H5.25V11V11.5V13.25V13.75V16H7.5H8H9.75H10.25H12H12.5H14.75V13.75V13.25V11.5V11V8.75H12.5H12ZM10.25 9.25H12V11H10.25V9.25ZM12 13.25H10.25V11.5H12V13.25ZM8 11.5H9.75V13.25H8V11.5ZM8 9.25H9.75V11H8V9.25ZM5.75 9.25H7.5V11H5.75V9.25ZM5.75 11.5H7.5V13.25H5.75V11.5ZM7.5 15.5H5.75V13.75H7.5V15.5ZM9.75 15.5H8V13.75H9.75V15.5ZM12 15.5H10.25V13.75H12V15.5ZM14.25 15.5H12.5V13.75H14.25V15.5ZM14.25 13.25H12.5V11.5H14.25V13.25ZM14.25 9.25V11H12.5V9.25H14.25Z" fill="#FEDA00"/>
</svg>
