<svg width="20" height="20" viewBox="0 0 20 20" fill="none" xmlns="http://www.w3.org/2000/svg">
  <path class="fill-theme-color" d="M10.5 2C6.3645 2 3 5.3645 3 9.5C3 13.6355 6.3645 17 10.5 17C14.6355 17 18 13.6355 18 9.5C18 5.3645 14.6355 2 10.5 2ZM10.5 16.5C6.64025 16.5 3.5 13.3597 3.5 9.5C3.5 5.64025 6.64025 2.5 10.5 2.5C14.3597 2.5 17.5 5.64025 17.5 9.5C17.5 13.3597 14.3597 16.5 10.5 16.5Z" fill="#FEDA00"/>
  <path class="fill-theme-color" d="M10.5 3.5C10.362 3.5 10.25 3.61175 10.25 3.75V9.5H6.5C6.362 9.5 6.25 9.61175 6.25 9.75C6.25 9.88825 6.362 10 6.5 10H10.5C10.638 10 10.75 9.88825 10.75 9.75V3.75C10.75 3.61175 10.638 3.5 10.5 3.5Z" fill="#FEDA00"/>
</svg>
