<svg width="35" height="35" viewBox="0 0 35 35" fill="none" xmlns="http://www.w3.org/2000/svg">
  <path fill-rule="evenodd" clip-rule="evenodd" d="M34.1862 32.3806V12.6368H1.90569V32.3806C1.90569 32.8277 2.27008 33.1902 2.71958 33.1902H33.3723C33.8218 33.1902 34.1862 32.8277 34.1862 32.3806ZM35.0001 32.3806C35.0001 33.2748 34.2713 33.9998 33.3723 33.9998H2.71958C1.82058 33.9998 1.0918 33.2748 1.0918 32.3806V11.8271H35.0001V32.3806Z" fill="black"/>
  <path fill-rule="evenodd" clip-rule="evenodd" d="M31.8452 1.11428L1.75404 7.14755C1.3134 7.2359 1.02709 7.66307 1.11454 8.10167L1.843 11.7551L33.5298 5.40189L32.8014 1.74846C32.7139 1.30986 32.2858 1.02593 31.8452 1.11428ZM1.59569 6.3534C0.714415 6.5301 0.141788 7.38445 0.316693 8.26164L1.2035 12.7092L34.486 6.03607L33.5992 1.58849C33.4243 0.711299 32.5681 0.143433 31.6868 0.320129L1.59569 6.3534Z" fill="black"/>
  <path fill-rule="evenodd" clip-rule="evenodd" d="M34.1862 12.6368H1.90569V16.9302H34.1862V12.6368ZM1.90569 11.8271C1.45619 11.8271 1.0918 12.1896 1.0918 12.6368V17.7399H35.0001V12.6368C35.0001 12.1896 34.6357 11.8271 34.1862 11.8271H1.90569Z" fill="black"/>
  <path fill-rule="evenodd" clip-rule="evenodd" d="M5.10431 5.67398C5.28671 5.54338 5.53991 5.58535 5.66986 5.76773L8.88496 10.28C9.01491 10.4624 8.97239 10.7161 8.79 10.8467C8.6076 10.9773 8.3544 10.9353 8.22445 10.753L5.00935 6.24069C4.8794 6.05831 4.92192 5.80459 5.10431 5.67398Z" fill="black"/>
  <path fill-rule="evenodd" clip-rule="evenodd" d="M12.4764 4.19547C12.6588 4.06486 12.912 4.10683 13.0419 4.28921L16.257 8.80148C16.387 8.98386 16.3445 9.23759 16.1621 9.36819C15.9797 9.4988 15.7265 9.45683 15.5965 9.27445L12.3814 4.76217C12.2515 4.5798 12.294 4.32607 12.4764 4.19547Z" fill="black"/>
  <path fill-rule="evenodd" clip-rule="evenodd" d="M19.8455 2.72186C20.0279 2.59124 20.2811 2.63321 20.411 2.8156L23.6257 7.32818C23.7556 7.51057 23.7131 7.76432 23.5307 7.89494C23.3484 8.02556 23.0952 7.9836 22.9652 7.80121L19.7506 3.28863C19.6206 3.10624 19.6632 2.85249 19.8455 2.72186Z" fill="black"/>
  <path fill-rule="evenodd" clip-rule="evenodd" d="M27.2157 1.2414C27.398 1.11077 27.6512 1.15274 27.7812 1.33513L30.9958 5.84771C31.1258 6.0301 31.0832 6.28385 30.9009 6.41447C30.7185 6.54509 30.4653 6.50313 30.3354 6.32074L27.1207 1.80816C26.9908 1.62577 27.0333 1.37202 27.2157 1.2414Z" fill="black"/>
  <path fill-rule="evenodd" clip-rule="evenodd" d="M33.2049 11.945C32.9957 11.8632 32.7408 11.957 32.6355 12.1544L30.0099 17.0777C29.9046 17.2752 29.9888 17.5016 30.198 17.5833C30.4072 17.6651 30.6621 17.5714 30.7674 17.3739L33.3929 12.4506C33.4982 12.2532 33.4141 12.0268 33.2049 11.945Z" fill="black"/>
  <path fill-rule="evenodd" clip-rule="evenodd" d="M25.8299 11.9059C25.6207 11.8241 25.3658 11.9179 25.2605 12.1154L22.6349 17.0386C22.5296 17.2361 22.6138 17.4625 22.823 17.5443C23.0322 17.6261 23.2871 17.5323 23.3924 17.3348L26.0179 12.4116C26.1232 12.2141 26.0391 11.9877 25.8299 11.9059Z" fill="black"/>
  <path fill-rule="evenodd" clip-rule="evenodd" d="M17.7225 11.8649C17.5133 11.7831 17.2584 11.8769 17.1531 12.0744L14.5275 16.9976C14.4222 17.1951 14.5064 17.4215 14.7156 17.5033C14.9247 17.5851 15.1797 17.4913 15.285 17.2938L17.9105 12.3706C18.0158 12.1731 17.9316 11.9467 17.7225 11.8649Z" fill="black"/>
  <path fill-rule="evenodd" clip-rule="evenodd" d="M9.6131 11.8249C9.40394 11.7431 9.149 11.8368 9.04369 12.0343L6.41815 16.9576C6.31284 17.155 6.39703 17.3814 6.60619 17.4632C6.81535 17.545 7.07029 17.4512 7.1756 17.2538L9.80114 12.3305C9.90645 12.133 9.82226 11.9067 9.6131 11.8249Z" fill="black"/>
</svg>
