<svg width="47" height="45" viewBox="0 0 47 45" fill="none" xmlns="http://www.w3.org/2000/svg">
  <path d="M1 14.4888V17.7057L23.5 26.1498M1 14.4888L23.5 23.067M1 14.4888L23.5 6L46 14.4888M23.5 23.067V26.1498M23.5 23.067L35.065 18.6578M23.5 26.1498L38.44 20.5429M46 14.4888V17.7057L38.44 20.5429M46 14.4888L35.065 18.6578M8.695 21.0118V31.5558C13.36 35.6662 25.84 41.4208 38.44 31.5558V20.5429M23.5 13.4612L35.065 18.6578M35.065 18.6578V36.6491M36.775 38.3022C36.775 39.2399 36.0094 40 35.065 40C34.1206 40 33.355 39.2399 33.355 38.3022C33.355 37.3646 34.1206 36.6045 35.065 36.6045C36.0094 36.6045 36.775 37.3646 36.775 38.3022Z" stroke="black" stroke-linejoin="round"/>
</svg>
