<svg width="35" height="35" viewBox="0 0 35 35" fill="none" xmlns="http://www.w3.org/2000/svg">
  <path fill-rule="evenodd" clip-rule="evenodd" d="M1.65681 27.8435C2.18492 28.0288 2.85706 27.8898 3.62522 27.6119C5.25756 27.0098 7.22597 25.5275 9.19439 23.7674C11.0668 22.0998 14.2834 21.2198 17.5001 21.2198C20.7168 21.2198 23.9335 22.0998 25.7578 23.86C27.6782 25.6202 29.6467 27.0561 31.327 27.7046C32.0952 27.9825 32.7673 28.0751 33.2954 27.9362C33.7755 27.7972 34.1596 27.4266 34.4477 26.7782C34.8798 25.8054 35.0718 24.3695 34.9758 22.2388C34.8797 20.2007 34.4957 17.9774 33.9676 15.8467C33.4395 13.8086 32.7673 12.0021 31.9511 10.6125C29.3336 6.06685 26.2915 6.80094 22.6846 7.67134L22.5892 7.69435C21.1009 8.06491 19.5646 8.43547 17.8362 8.57443H17.116C15.4357 8.43547 13.8994 8.06491 12.4111 7.69435C8.76229 6.76796 5.68965 6.02684 3.0491 10.6125C2.23293 12.0021 1.56079 13.8549 1.03268 15.8467C0.45656 17.9774 0.120489 20.2471 0.0244692 22.2388C-0.0715509 24.3695 0.120489 25.8054 0.50457 26.6855C0.79263 27.334 1.17671 27.7046 1.65681 27.8435ZM1.23361 26.3736C1.46145 26.8854 1.69712 27.0387 1.88072 27.0919L1.9022 27.0981L1.9233 27.1055C2.15914 27.1882 2.58545 27.1534 3.349 26.8774C4.82612 26.3317 6.69642 24.9433 8.66041 23.1871L8.6616 23.1861C10.7365 21.3382 14.179 20.4364 17.5001 20.4364C20.8124 20.4364 24.2697 21.3341 26.3062 23.2928C28.1992 25.027 30.0733 26.3773 31.6088 26.972C32.3033 27.2222 32.7845 27.2562 33.0806 27.1818C33.2631 27.1262 33.4952 26.9692 33.7197 26.4639C34.0783 25.6567 34.276 24.3654 34.1818 22.2743C34.0889 20.3026 33.716 18.1332 33.1965 16.0366C32.6786 14.039 32.0293 12.309 31.2634 11.005L31.2599 10.9992C30.0235 8.85191 28.7728 8.0916 27.5121 7.87559C26.1559 7.64318 24.654 8.00281 22.781 8.45459C21.294 8.82481 19.701 9.21049 17.9008 9.35522L17.8685 9.35782H17.0828L17.0496 9.35508C15.2968 9.21013 13.703 8.82402 12.2164 8.45388L12.2128 8.45299C10.3464 7.9791 8.84327 7.62096 7.49098 7.85772C6.2304 8.07842 4.97808 8.84958 3.74026 10.9992L3.73691 11.005C2.97179 12.3077 2.32144 14.0841 1.80159 16.0447L1.80062 16.0484C1.23975 18.1227 0.9119 20.3366 0.818371 22.2748C0.724091 24.3691 0.922639 25.6593 1.23361 26.3736Z" fill="black"/>
  <path fill-rule="evenodd" clip-rule="evenodd" d="M10.5129 14.2816L10.47 13.7432C10.4539 13.5407 10.352 13.328 10.2073 13.1883L10.2073 13.1883L10.179 13.1611C10.179 13.1611 10.179 13.1611 10.179 13.1611C9.98641 12.9753 9.75037 12.8767 9.46582 12.8767C9.18912 12.8767 8.92275 12.997 8.75263 13.1611C8.58936 13.3186 8.47699 13.5359 8.4619 13.7397L8.4218 14.2814L7.87214 14.3193C7.64256 14.3351 7.43527 14.4268 7.24283 14.5905L7.22757 14.6052C7.22757 14.6052 7.22757 14.6052 7.22757 14.6052C7.03533 14.7907 6.93853 15.0122 6.93853 15.2745C6.93853 15.5289 7.05755 15.7797 7.22757 15.9438C7.40843 16.1183 7.60676 16.2126 7.86919 16.2295L8.42161 16.265L8.4619 16.8092C8.47894 17.0394 8.57987 17.2367 8.72817 17.3655L8.7407 17.3764L8.75263 17.3879C8.94524 17.5737 9.18128 17.6723 9.46582 17.6723C9.73652 17.6723 9.99732 17.5572 10.1678 17.3985C10.3594 17.1895 10.456 16.9945 10.4697 16.8092L10.5099 16.2675L11.0595 16.2297C11.3095 16.2124 11.5192 16.1105 11.6525 15.9674L11.6639 15.9553L11.6758 15.9438C11.8681 15.7583 11.9649 15.5368 11.9649 15.2745C11.9649 15.0256 11.851 14.7801 11.6868 14.616C11.4708 14.4317 11.2634 14.3334 11.0595 14.3193L10.5129 14.2816ZM12.1206 14.1573C12.403 14.4298 12.6007 14.8385 12.6007 15.2745C12.6007 15.7105 12.4312 16.0919 12.1206 16.3916C11.8664 16.6641 11.4992 16.8276 11.1039 16.8549C11.0756 17.2363 10.8779 17.5633 10.6237 17.8358C10.3413 18.1082 9.91769 18.299 9.46582 18.299C9.01395 18.299 8.61857 18.1355 8.30791 17.8358C8.02549 17.5905 7.85604 17.2363 7.8278 16.8549C7.40417 16.8276 7.06526 16.6641 6.78285 16.3916C6.50043 16.1192 6.30273 15.7105 6.30273 15.2745C6.30273 14.8385 6.47219 14.4571 6.78285 14.1573L6.81109 14.1301C7.09351 13.8849 7.43241 13.7214 7.8278 13.6941C7.85604 13.3127 8.05373 12.9584 8.30791 12.7132C8.59033 12.4407 9.01395 12.25 9.46582 12.25C9.91769 12.25 10.3131 12.4135 10.6237 12.7132L10.652 12.7405C10.9062 12.9857 11.0756 13.3399 11.1039 13.6941C11.4992 13.7214 11.8381 13.9121 12.1206 14.1573Z" fill="black"/>
  <path fill-rule="evenodd" clip-rule="evenodd" d="M25.6886 13.3817C26.3025 13.3817 26.7798 12.9045 26.7798 12.3405C26.7798 11.7765 26.3025 11.2993 25.6886 11.2993C25.0746 11.2993 24.5973 11.7765 24.5973 12.3405C24.5973 12.9045 25.0746 13.3817 25.6886 13.3817ZM27.3361 12.3405C27.3361 13.2184 26.5985 13.9301 25.6886 13.9301C24.7786 13.9301 24.041 13.2184 24.041 12.3405C24.041 11.4626 24.7786 10.751 25.6886 10.751C26.5985 10.751 27.3361 11.4626 27.3361 12.3405Z" fill="black"/>
  <path fill-rule="evenodd" clip-rule="evenodd" d="M25.6886 19.3812C26.3025 19.3812 26.7798 18.904 26.7798 18.34C26.7798 17.776 26.3025 17.2989 25.6886 17.2989C25.0746 17.2989 24.5973 17.776 24.5973 18.34C24.5973 18.904 25.0746 19.3812 25.6886 19.3812ZM27.3361 18.34C27.3361 19.2179 26.5985 19.9296 25.6886 19.9296C24.7786 19.9296 24.041 19.2179 24.041 18.34C24.041 17.4621 24.7786 16.7505 25.6886 16.7505C26.5985 16.7505 27.3361 17.4621 27.3361 18.34Z" fill="black"/>
  <path fill-rule="evenodd" clip-rule="evenodd" d="M22.3526 16.3817C22.9666 16.3817 23.4438 15.9045 23.4438 15.3405C23.4438 14.7765 22.9666 14.2993 22.3526 14.2993C21.7386 14.2993 21.2614 14.7765 21.2614 15.3405C21.2614 15.9045 21.7386 16.3817 22.3526 16.3817ZM24.0002 15.3405C24.0002 16.2184 23.2625 16.9301 22.3526 16.9301C21.4427 16.9301 20.7051 16.2184 20.7051 15.3405C20.7051 14.4626 21.4427 13.751 22.3526 13.751C23.2625 13.751 24.0002 14.4626 24.0002 15.3405Z" fill="black"/>
  <path fill-rule="evenodd" clip-rule="evenodd" d="M29.0343 16.3817C29.6482 16.3817 30.1255 15.9045 30.1255 15.3405C30.1255 14.7765 29.6482 14.2993 29.0343 14.2993C28.4203 14.2993 27.943 14.7765 27.943 15.3405C27.943 15.9045 28.4203 16.3817 29.0343 16.3817ZM30.6818 15.3405C30.6818 16.2184 29.9442 16.9301 29.0343 16.9301C28.1243 16.9301 27.3867 16.2184 27.3867 15.3405C27.3867 14.4626 28.1243 13.751 29.0343 13.751C29.9442 13.751 30.6818 14.4626 30.6818 15.3405Z" fill="black"/>
</svg>
