<svg width="35" height="35" viewBox="0 0 35 35" fill="none" xmlns="http://www.w3.org/2000/svg">
  <path fill-rule="evenodd" clip-rule="evenodd" d="M23.2852 20.9904V6.33153C23.2852 3.26912 20.9183 0.786535 17.9985 0.786535C15.0787 0.786535 12.7118 3.26912 12.7118 6.33153V20.9904C12.7118 24.0528 15.0787 26.5354 17.9985 26.5354C20.9183 26.5354 23.2852 24.0528 23.2852 20.9904ZM17.9985 0C14.6646 0 11.9619 2.83473 11.9619 6.33153V20.9904C11.9619 24.4872 14.6646 27.322 17.9985 27.322C21.3324 27.322 24.0351 24.4872 24.0351 20.9904V6.33153C24.0351 2.83472 21.3324 0 17.9985 0Z" fill="black"/>
  <path fill-rule="evenodd" clip-rule="evenodd" d="M9 21.1033V16.3926H9.7499V21.1033C9.7499 26.0554 13.4894 29.6603 17.9987 29.6603V30.4468C13.0994 30.4468 9 26.5146 9 21.1033Z" fill="black"/>
  <path fill-rule="evenodd" clip-rule="evenodd" d="M27 21.1032V16.3926H26.2501V21.1032C26.2501 26.0552 22.5106 29.6603 18.0013 29.6603V30.4468C22.9006 30.4468 27 26.5144 27 21.1032Z" fill="black"/>
  <path fill-rule="evenodd" clip-rule="evenodd" d="M17.6219 34.2131V30.0527H18.3718V34.2131H21.8775V34.9997H14.1162V34.2131H17.6219Z" fill="black"/>
</svg>
