<svg xmlns="http://www.w3.org/2000/svg" width="142" height="142" viewBox="0 0 142 142" fill="none">
  <circle cx="72" cy="72" r="70" fill="white"/>
  <path d="M42.9979 79.0009L27.9998 94.9998" stroke="#EFEFFE" stroke-width="2" stroke-linecap="round"/>
  <mask id="path-3-inside-1" fill="white">
    <path d="M52 36C52 33.7909 53.7909 32 56 32H102C104.209 32 106 33.7909 106 36V94.3627C106 95.412 105.588 96.4193 104.852 97.1674L94.3914 107.805C93.6394 108.569 92.6118 109 91.5394 109H56C53.7909 109 52 107.209 52 105V36Z"/>
  </mask>
  <path d="M104.852 97.1674L103.426 95.7651L104.852 97.1674ZM94.3914 107.805L95.8174 109.207L94.3914 107.805ZM56 34H102V30H56V34ZM91.5394 107H56V111H91.5394V107ZM54 105V36H50V105H54ZM104 36V94.3627H108V36H104ZM103.426 95.7651L92.9654 106.402L95.8174 109.207L106.278 98.5697L103.426 95.7651ZM104 94.3627C104 94.8874 103.794 95.391 103.426 95.7651L106.278 98.5697C107.382 97.4475 108 95.9366 108 94.3627H104ZM56 107C54.8954 107 54 106.105 54 105H50C50 108.314 52.6863 111 56 111V107ZM91.5394 111C93.1481 111 94.6894 110.354 95.8174 109.207L92.9654 106.402C92.5894 106.785 92.0756 107 91.5394 107V111ZM102 34C103.105 34 104 34.8954 104 36H108C108 32.6863 105.314 30 102 30V34ZM56 30C52.6863 30 50 32.6863 50 36H54C54 34.8954 54.8954 34 56 34V30Z" fill="#EFEFFE" mask="url(#path-3-inside-1)"/>
  <path d="M93 107V100C93 97.7909 94.7909 96 97 96H104" stroke="#EFEFFE" stroke-width="2"/>
  <circle cx="56.5" cy="65.5" r="18.5" fill="white" stroke="#EFEFFE" stroke-width="2"/>
  <path d="M53 41.5H104.691M71 54H84M89 54H98M98 66H95.5H94M75 66H81H89M70.5 78C74.0147 78 84 78 84 78M89 78H98M78 90H95.5" stroke="#EFEFFE" stroke-width="2" stroke-linecap="round"/>
</svg>
