<svg width="47" height="46" viewBox="0 0 47 46" fill="none" xmlns="http://www.w3.org/2000/svg">
  <path d="M14.8139 18.0005L15.1756 17.6553L14.6895 17.146L14.3688 17.7728L14.8139 18.0005ZM1 45.0005L0.554876 44.7727C0.456854 44.9643 0.492421 45.1971 0.643173 45.3507C0.793925 45.5043 1.02604 45.5442 1.21942 45.4498L1 45.0005ZM28 31.8144L28.2194 32.2637L28.8337 31.9637L28.3617 31.4692L28 31.8144ZM14.3688 17.7728L0.554876 44.7727L1.44512 45.2282L15.2591 18.2282L14.3688 17.7728ZM1.21942 45.4498L28.2194 32.2637L27.7806 31.3652L0.780582 44.5512L1.21942 45.4498ZM28.3617 31.4692L15.1756 17.6553L14.4523 18.3457L27.6383 32.1597L28.3617 31.4692Z" fill="black"/>
  <path d="M20.094 15.9995C19.1415 15.3934 17.4269 13.8177 18.1889 12.3631C19.1415 10.545 21.999 9.22634 21.999 6.9086C21.999 4.63587 20.5702 2.36315 18.1889 0.999512" stroke="black" stroke-linejoin="round"/>
  <path d="M31.1011 27.0015C32.4249 25.6633 35.8897 22.5852 38.0939 23.7514C40.1924 24.8617 40.2441 27.0015 42.7106 26.7978C43.5891 26.7253 44.7825 25.8812 45.9831 24.5892" stroke="black" stroke-linejoin="round"/>
  <path d="M24.1294 18.6135C24.6654 18.2879 27.1363 16.9329 28.7331 16.9329C30.9419 16.9329 32.1205 18.019 32.3647 19.4972C32.609 20.9755 31.4952 21.8846 30.5065 22.0205C28.5291 22.2923 27.5026 20.6696 27.0519 19.4717C26.6983 18.532 24.9668 11.4433 34.5658 9.87196" stroke="black"/>
  <rect x="0.70673" y="-0.00869498" width="4.29146" height="4.29134" transform="matrix(0.698027 -0.716071 0.715433 0.698681 37.4901 16.7832)" stroke="black"/>
  <circle cx="31" cy="3" r="2.5" stroke="black"/>
  <path d="M15.001 18.9995V37.944M8.00098 31.7326V40.9995" stroke="black" stroke-linecap="round"/>
</svg>
