<svg xmlns="http://www.w3.org/2000/svg" width="14" height="14" viewBox="0 0 16 16" fill="none">
  <path d="M1.75099 0.641261C2.72784 -0.0145247 4.00921 -0.178273 5.12211 0.200643C5.51759 0.326421 5.87353 0.543961 6.23105 0.748845C7.62632 0.444288 9.10702 0.488587 10.4572 0.971923C12.6063 1.71473 14.3607 3.49698 15.0662 5.65894C15.5139 6.97684 15.544 8.41181 15.2489 9.76689C15.5969 10.3372 15.8967 10.9543 15.9671 11.6267C16.1396 12.8932 15.6238 14.2205 14.6533 15.0496C13.7057 15.8849 12.3374 16.2029 11.1177 15.8699C10.6312 15.752 10.1954 15.4997 9.76669 15.2505C8.29707 15.5725 6.73253 15.5013 5.32697 14.9483C3.25225 14.1581 1.58093 12.3924 0.910975 10.2755C0.481477 8.97426 0.460121 7.56459 0.750407 6.23087C0.301926 5.53158 -0.0152531 4.72628 0.000566371 3.8838C-0.0112982 2.59913 0.675265 1.34056 1.75099 0.641261Z" fill="currentColor"/>
  <path d="M7.08326 3.48876C8.08523 3.32649 9.14109 3.49078 10.0353 4.00979C10.4263 4.24181 10.8048 4.55563 10.9865 5.00625C11.1049 5.30264 11.1181 5.68956 10.8994 5.93767C10.6625 6.19718 10.2759 6.27697 9.95821 6.16767C9.59038 6.00271 9.40741 5.59031 9.09535 5.34489C8.70308 4.99888 8.17484 4.90567 7.68043 4.91506C7.31887 4.93182 6.93161 5.01966 6.6678 5.30398C6.42405 5.58227 6.33381 6.05904 6.5713 6.37219C6.79563 6.64914 7.14216 6.7524 7.45986 6.84695C8.0658 7.00923 8.67864 7.13999 9.2871 7.29355C9.91999 7.44845 10.5591 7.74484 10.9771 8.29672C11.6977 9.29586 11.5354 10.8804 10.6394 11.6985C9.92249 12.3778 8.92553 12.5655 7.99687 12.5716C7.00555 12.5561 5.94593 12.3389 5.18395 11.6133C4.80171 11.2445 4.48025 10.6879 4.59555 10.1186C4.72151 9.55268 5.44776 9.3381 5.85946 9.68613C6.17402 9.95636 6.34446 10.3674 6.64775 10.6497C7.01057 11.0058 7.51625 11.1473 8.00001 11.1345C8.47436 11.148 8.97817 10.9924 9.30339 10.6061C9.52459 10.3453 9.64177 9.94832 9.49827 9.61438C9.38046 9.30055 9.0778 9.12956 8.7883 9.04507C8.25442 8.89553 7.71677 8.7594 7.18289 8.60853C6.59637 8.45497 5.98666 8.31482 5.48223 7.94065C5.08871 7.66102 4.79043 7.22448 4.69456 6.72692C4.53352 5.94638 4.64882 5.04582 5.17894 4.44968C5.66395 3.87233 6.38332 3.6041 7.08326 3.48876Z" fill="white"/>
</svg>
