<svg width="8" height="16" viewBox="0 0 8 16" fill="none" xmlns="http://www.w3.org/2000/svg">
  <path d="M1.09091 12.3636L1.09091 4C1.09091 2.39273 2.39273 1.09091 4 1.09091C5.60727 1.09091 6.90909 2.39273 6.90909 4L6.90909 13.0909C6.90909 14.0945 6.09455 14.9091 5.09091 14.9091C4.08727 14.9091 3.27273 14.0945 3.27273 13.0909L3.27273 5.45455C3.27273 5.05455 3.6 4.72727 4 4.72727C4.4 4.72727 4.72727 5.05455 4.72727 5.45455L4.72727 12.3636L5.81818 12.3636L5.81818 5.45455C5.81818 4.45091 5.00364 3.63636 4 3.63636C2.99636 3.63636 2.18182 4.45091 2.18182 5.45455L2.18182 13.0909C2.18182 14.6982 3.48364 16 5.09091 16C6.69818 16 8 14.6982 8 13.0909L8 4C8 1.78909 6.21091 7.97267e-07 4 6.03983e-07C1.78909 4.10699e-07 2.88683e-07 1.78909 9.53989e-08 4L-6.35773e-07 12.3636L1.09091 12.3636Z" fill="#E0E0E0"/>
</svg>
