<svg xmlns="http://www.w3.org/2000/svg" width="88" height="80" viewBox="0 0 88 80" fill="none">
  <path d="M83.161 0H36.542C33.8741 0 31.7036 2.17597 31.7036 4.85047V15.705C22.8599 18.2421 16.3682 26.42 16.3682 36.0895C16.3682 45.7591 22.8598 53.937 31.7036 56.4741V75.1495C31.7036 77.824 33.8741 80 36.542 80H74.6388C75.0908 80 75.5241 79.8201 75.8438 79.4997L87.5003 67.8141C87.8198 67.4938 87.9993 67.0592 87.9993 66.6061V4.85047C87.9993 2.17597 85.8289 0 83.161 0ZM36.542 3.41674H83.161C83.9495 3.41674 84.5911 4.0599 84.5911 4.85047V10.0063H35.1118V4.85047C35.1118 4.0599 35.7534 3.41674 36.542 3.41674ZM19.7764 36.0894C19.7764 26.2845 27.7334 18.3077 37.514 18.3077C47.2946 18.3077 55.2516 26.2845 55.2516 36.0894C55.2516 45.8943 47.2946 53.8712 37.514 53.8712C27.7334 53.8712 19.7764 45.8943 19.7764 36.0894ZM35.1118 75.1494V57.1503C35.9006 57.2401 36.7019 57.288 37.5142 57.288C43.8657 57.288 49.5716 54.4656 53.4511 50.0067H63.8927C64.8338 50.0067 65.5968 49.2419 65.5968 48.2984C65.5968 47.3549 64.8338 46.59 63.8927 46.59H55.8782C57.3605 43.9949 58.3101 41.0573 58.5795 37.9274H63.8925C64.8337 37.9274 65.5966 37.1626 65.5966 36.2191C65.5966 35.2755 64.8337 34.5107 63.8925 34.5107H58.6011C58.3706 31.3878 57.4618 28.4513 56.0228 25.8483H63.8923C64.8335 25.8483 65.5965 25.0834 65.5965 24.1399C65.5965 23.1964 64.8335 22.4315 63.8923 22.4315H53.6718C49.7899 17.8233 43.9874 14.8908 37.5137 14.8908C36.7014 14.8908 35.9001 14.9386 35.1113 15.0284V13.4231H84.5906V64.8974H77.7726C75.1046 64.8974 72.9343 67.0733 72.9343 69.7477V76.5829H36.542C35.7534 76.5829 35.1118 75.9399 35.1118 75.1494ZM76.3431 74.1668V69.7478C76.3431 68.9573 76.9846 68.3143 77.7731 68.3143H82.1811L76.3431 74.1668Z" fill="#EFEFF0"/>
  <path d="M70.5879 25.8494H76.2473C77.1884 25.8494 77.9514 25.0845 77.9514 24.141C77.9514 23.1975 77.1884 22.4326 76.2473 22.4326H70.5879C69.6468 22.4326 68.8838 23.1975 68.8838 24.141C68.8838 25.0845 69.6468 25.8494 70.5879 25.8494Z" fill="#EFEFF0"/>
  <path d="M70.5879 37.9275H76.2473C77.1884 37.9275 77.9514 37.1626 77.9514 36.2191C77.9514 35.2756 77.1884 34.5107 76.2473 34.5107H70.5879C69.6468 34.5107 68.8838 35.2756 68.8838 36.2191C68.8838 37.1626 69.6468 37.9275 70.5879 37.9275Z" fill="#EFEFF0"/>
  <path d="M70.5879 50.0076H76.2473C77.1884 50.0076 77.9514 49.2427 77.9514 48.2992C77.9514 47.3557 77.1884 46.5908 76.2473 46.5908H70.5879C69.6468 46.5908 68.8838 47.3557 68.8838 48.2992C68.8838 49.2427 69.6468 50.0076 70.5879 50.0076Z" fill="#EFEFF0"/>
  <path d="M76.2465 62.0867C77.1876 62.0867 77.9506 61.3218 77.9506 60.3783C77.9506 59.4348 77.1876 58.6699 76.2465 58.6699H60.3047C59.3636 58.6699 58.6006 59.4348 58.6006 60.3783C58.6006 61.3218 59.3636 62.0867 60.3047 62.0867H76.2465Z" fill="#EFEFF0"/>
  <rect width="4.99495" height="26.6278" rx="2.49747" transform="matrix(-0.639316 -0.768944 -0.76738 0.641192 23.627 47.1748)" fill="#EFEFF0"/>
</svg>
