<svg xmlns="http://www.w3.org/2000/svg" width="19" height="14" viewBox="0 0 19 14" fill="none">
  <path class="stroke-theme-color" d="M17 1C17.5523 1 18 1.44772 18 2L18 5.05555L18 7L18 9.52778L18 12C18 12.5523 17.5523 13 17 13L2 13C1.44772 13 0.999999 12.5523 0.999999 12L1 2C1 1.44771 1.44772 0.999999 2 0.999999L17 1Z" stroke="#FEDA00" stroke-width="2" stroke-linejoin="round"/>
  <path class="fill-theme-color" fill-rule="evenodd" clip-rule="evenodd" d="M3.5166 4.08578C2.7696 3.69432 2.16429 3.5 1.72729 3.5V1.75C2.58575 1.75 3.49181 2.10256 4.31015 2.5314C5.14792 2.97044 5.99711 3.54596 6.76336 4.10048C7.1484 4.37913 7.5185 4.65691 7.85919 4.91323C7.88307 4.93119 7.90678 4.94904 7.93033 4.96676C8.24557 5.20397 8.53133 5.419 8.78751 5.60439C9.06583 5.80581 9.28702 5.95591 9.45415 6.05306C9.47565 6.06556 9.4951 6.0765 9.5126 6.08604C9.54154 6.07223 9.5751 6.05544 9.61357 6.03523C9.80639 5.93393 10.0605 5.77986 10.3713 5.57885C10.7792 5.31509 11.2438 4.99762 11.7473 4.65357C12.0158 4.47005 12.2955 4.27898 12.5835 4.08446C13.3952 3.53618 14.2591 2.97059 15.0375 2.54043C15.4268 2.32528 15.8115 2.13457 16.1697 1.99574C16.5139 1.86237 16.9002 1.75 17.2727 1.75C17.7497 1.75 18.1364 2.14175 18.1364 2.625C18.1364 3.10825 17.7497 3.5 17.2727 3.5C17.2135 3.5 17.0601 3.52435 16.7868 3.63024C16.5277 3.73067 16.2174 3.88176 15.8646 4.07675C15.1586 4.46691 14.3492 4.99507 13.5416 5.54054C13.2737 5.72147 13.0041 5.90566 12.7397 6.0863C12.223 6.43935 11.726 6.77886 11.3006 7.05396C10.9772 7.26311 10.6713 7.45083 10.4087 7.5888C10.2776 7.65766 10.1417 7.72247 10.0093 7.77188C9.89269 7.81543 9.70753 7.875 9.50002 7.875C9.28621 7.875 9.10009 7.81232 8.98032 7.76417C8.84809 7.71101 8.71688 7.64208 8.59454 7.57096C8.35009 7.42885 8.07199 7.23716 7.78355 7.02842C7.51364 6.83309 7.21516 6.60848 6.90409 6.3744C6.87928 6.35573 6.85439 6.337 6.82942 6.31822C6.48864 6.06183 6.13005 5.79275 5.75941 5.52452C5.0143 4.98529 4.24417 4.46706 3.5166 4.08578ZM9.38794 6.13786C9.388 6.13776 9.39034 6.137 9.39477 6.13591C9.3901 6.13741 9.38789 6.13796 9.38794 6.13786ZM9.62384 6.14006C9.62835 6.14138 9.63073 6.14227 9.6308 6.14239C9.63087 6.14251 9.6286 6.14185 9.62384 6.14006Z" fill="#FEDA00"/>
</svg>
