<svg xmlns="http://www.w3.org/2000/svg" fill="none" viewBox="0 0 15 15">
  <rect width="14" height="14" x=".5" y=".5" stroke="currentColor" rx="2.5"/>
  <path fill="currentColor" d="M7.76 15V8.4h-1.2V7.06h1.2v-.72c0-.88.25-1.56.73-2.04a2.8 2.8 0 012.06-.71c.3 0 .64.04 1 .13l-.05 1.39a3.5 3.5 0 00-.68-.06c-.85 0-1.28.44-1.28 1.31v.7h1.61V8.4h-1.6V15H7.75z"/>
  <path stroke="currentColor" d="M7.76 15V8.4h-1.2V7.06h1.2v-.72c0-.88.25-1.56.73-2.04a2.8 2.8 0 012.06-.71c.3 0 .64.04 1 .13l-.05 1.39a3.5 3.5 0 00-.68-.06c-.85 0-1.28.44-1.28 1.31v.7h1.61V8.4h-1.6V15H7.75z"/>
</svg>
