<svg xmlns="http://www.w3.org/2000/svg" fill="none" viewBox="0 0 15 15">
  <rect width="14" height="14" x=".5" y=".5" stroke="currentColor" rx="2.5"/>
  <mask id="a">
    <path fill-rule="evenodd" d="M14.34 2.31V11.58 2.33v-.02zm-1.98 11.27h-9.6 9.6zM8.14 7.6c.15-.36.48-.73 1.05-.73.74 0 1.04.55 1.04 1.35v3.2h2.04V8c0-1.84-1-2.7-2.35-2.7-1.1 0-1.58.6-1.85 1v-.85H6.03c.02.56 0 5.98 0 5.98h2.04V8.08c0-.18.02-.36.07-.48zM3.86 4.62h.01c.72 0 1.16-.45 1.16-1.03C5.02 3 4.6 2.56 3.9 2.56S2.73 3 2.73 3.59c0 .58.44 1.03 1.13 1.03zm1.04 6.8V5.44H2.85v5.98H4.9z" clip-rule="evenodd"/>
  </mask>
  <path fill="currentColor" fill-rule="evenodd" d="M14.34 2.31V11.58 2.33v-.02zm-1.98 11.27h-9.6 9.6zM8.14 7.6c.15-.36.48-.73 1.05-.73.74 0 1.04.55 1.04 1.35v3.2h2.04V8c0-1.84-1-2.7-2.35-2.7-1.1 0-1.58.6-1.85 1v-.85H6.03c.02.56 0 5.98 0 5.98h2.04V8.08c0-.18.02-.36.07-.48zM3.86 4.62h.01c.72 0 1.16-.45 1.16-1.03C5.02 3 4.6 2.56 3.9 2.56S2.73 3 2.73 3.59c0 .58.44 1.03 1.13 1.03zm1.04 6.8V5.44H2.85v5.98H4.9z" clip-rule="evenodd"/>
  <path fill="currentColor" d="M14.34 11.6h-1l2 .02-1-.01zm0-9.29l1-.01-2 .01h1zM2.76 13.58v-1 2-1zm9.6 0l.01 1v-2 1zM8.14 7.6l.92.39v-.01l-.92-.38zm2.09 3.82h-1v1h1v-1zm2.04 0v1h1v-1h-1zm0-3.43h-1 1zm-4.2-1.7h-1v3.3l1.84-2.75-.84-.55zm0-.85h1v-1h-1v1zm-2.04 0v-1H4.97l.06 1.05 1-.05zm0 5.98h-1v1h1v-1zm2.04 0v1h1v-1h-1zM5.03 3.6h1v-.02l-1 .02zM4.9 5.44h1v-1h-1v1zm0 5.98v1h1v-1h-1zM2.85 5.44v-1h-1v1h1zm0 5.98h-1v1h1v-1zm12.49.19V2.3h-2v9.3h2zm-2-.03v.01l2 .03v-.04h-2zm0-9.25v9.25h2V2.33h-2zm0 0h2V2.3l-2 .02zM2.76 14.57h9.6v-2h-9.6v2zm.03-2h-.01l-.03 2h.04v-2zm9.55 0H2.79v2h9.55v-2zm0 0v2h.03l-.02-2zM9.2 5.87c-1.1 0-1.72.74-1.97 1.34l1.85.77a.25.25 0 01.06-.1h.01l.05-.01v-2zm2.04 2.35c0-.5-.09-1.07-.42-1.55a1.9 1.9 0 00-1.62-.8v2h.04a.17.17 0 01-.06-.05l.03.08c.01.08.03.18.03.32h2zm0 3.2v-3.2h-2v3.2h2zm1.04-1h-2.04v2h2.04v-2zm-1-2.43v3.43h2V8h-2zM9.92 6.3c.46 0 .76.15.95.35.2.21.4.61.4 1.35h2c0-1.1-.3-2.04-.95-2.72a3.24 3.24 0 00-2.4-.97v2zm-1.01.55c.1-.16.2-.28.34-.37.12-.08.31-.17.67-.17v-2c-.74 0-1.33.2-1.8.51-.44.3-.71.68-.88.92l1.67 1.11zm-1.84-1.4v.85h2v-.85h-2zm-1.04 1h2.04v-2H6.03v2zm0 4.98h1v-.05-.18a1209.88 1209.88 0 000-5.8l-2 .1a154.69 154.69 0 010 5.07 1199.43 1199.43 0 010 .8v.05l1 .01zm2.04-1H6.03v2h2.04v-2zm-1-2.34v3.34h2V8.08h-2zm.15-.87c-.14.32-.15.67-.15.87h2v-.13l.01-.01-.02.05-1.84-.78zM3.87 3.62h-.01v2h.01v-2zm.16-.03v.01h-.02a.4.4 0 01-.14.02v2c.58 0 1.12-.18 1.53-.56.41-.39.63-.92.63-1.47h-2zm-.14-.03c.07 0 .1 0 .12.02h.02v.03l2-.04a2.02 2.02 0 00-.63-1.44c-.4-.39-.95-.57-1.51-.57v2zm-.16.03v-.01l-.01.01c0 .01.03-.03.17-.03v-2c-.57 0-1.1.18-1.52.56-.42.38-.64.9-.64 1.47h2zm.13.03a.33.33 0 01-.11-.01l-.03-.01h.01V3.6h-2c0 1.18.94 2.03 2.13 2.03v-2zm.04 1.82v5.98h2V5.44h-2zm-1.05 1H4.9v-2H2.85v2zm1 4.98V5.44h-2v5.98h2zm1.05-1H2.85v2H4.9v-2z" mask="url(#a)"/>
</svg>
