<svg xmlns="http://www.w3.org/2000/svg" width="14" height="20" viewBox="0 0 14 20" fill="none">
  <path class="fill-theme-color" fill-rule="evenodd" clip-rule="evenodd" d="M12 2V18H2L2 2H3.39954C3.62228 2.2622 3.95441 2.42857 4.3254 2.42857H9.67466C10.0456 2.42857 10.3778 2.2622 10.6005 2H12ZM9.67466 0H12C13.1046 0 14 0.895431 14 2V18C14 19.1046 13.1046 20 12 20H2C0.89543 20 0 19.1046 0 18V2C0 0.895431 0.89543 0 2 0H4.3254H5.05556H5.91977H7H7.00003H8.40436H9.52778H9.67466Z" fill="#FEDA00"/>
</svg>
