<svg xmlns="http://www.w3.org/2000/svg" fill="none" viewBox="0 0 15 14">
  <path fill="currentColor" d="M14.35 7.91a3.56 3.56 0 01.65 2.1c0 .55-.11 1.06-.33 1.55a4.1 4.1 0 01-2.25 2.13c-.5.2-1.05.31-1.62.31-.82 0-1.55-.2-2.2-.58a8.7 8.7 0 01-1.1.07 7.03 7.03 0 01-4.9-1.93A6.5 6.5 0 01.59 6.9a4.22 4.22 0 01.1-.97A3.4 3.4 0 010 3.9a3.82 3.82 0 011.23-2.76A4.34 4.34 0 014.2 0a4.46 4.46 0 012.2.57A8.81 8.81 0 017.5.5a7.25 7.25 0 014.9 1.87 6.53 6.53 0 011.5 2.04 5.8 5.8 0 01.45 3.5zm-3.55 2c.3-.38.44-.84.44-1.37 0-.42-.08-.76-.25-1.05-.16-.28-.4-.52-.71-.7a4.7 4.7 0 00-1.1-.5l-1.44-.34-.55-.12a6.98 6.98 0 01-.9-.27 1.3 1.3 0 01-.42-.28.57.57 0 01-.13-.4c0-.24.15-.45.43-.64.32-.18.7-.27 1.17-.26.54 0 .92.08 1.13.24.25.19.46.42.6.7.12.2.25.35.38.45.13.1.3.15.52.15.25 0 .45-.08.62-.24a.67.67 0 00.25-.53c0-.22-.07-.45-.2-.66a2.65 2.65 0 00-1.08-.91 3.78 3.78 0 00-1.27-.36 6.47 6.47 0 00-.8-.04c-.75 0-1.38.09-1.9.27-.54.2-.96.45-1.24.8-.28.32-.42.7-.42 1.16 0 .48.14.87.4 1.17.28.32.64.56 1.1.73.45.18 1.01.33 1.7.47l.69.15c.2.04.37.08.53.13.3.08.53.22.72.41.2.17.29.38.29.65 0 .36-.18.66-.53.88-.33.24-.78.35-1.35.34-.45 0-.78-.05-.99-.16a1.38 1.38 0 01-.57-.45c-.16-.2-.29-.43-.4-.67-.08-.24-.2-.41-.36-.53a.8.8 0 00-.52-.18.95.95 0 00-.63.22.74.74 0 00-.25.56c0 .37.14.74.4 1.1.28.39.62.68 1.04.9.6.32 1.38.48 2.3.48.76 0 1.43-.11 2.01-.34.58-.25 1-.57 1.29-.95z"/>
</svg>
