<svg xmlns="http://www.w3.org/2000/svg" viewBox="0 0 15 13">
  <path fill="currentColor" d="M12.08 13a.6.6 0 01-.34-.1l-3.77-2.48-2.02 1.41a.61.61 0 01-.55.08.58.58 0 01-.37-.4L4 7.78.38 6.44A.58.58 0 010 5.9c0-.23.15-.45.37-.53L14.17.05a.61.61 0 01.68.15.56.56 0 01.14.5l-2.33 11.83a.58.58 0 01-.36.43.6.6 0 01-.22.04zM8.3 9.25l3.36 2.2 1.81-9.2-6.54 6.1 1.36.89h.01zm-2.8-.5l.45 1.66.97-.68-1.27-.83a.58.58 0 01-.15-.14zM2.23 5.9l2.49.92c.18.07.31.21.36.4l.32 1.15a.57.57 0 01.18-.35l6.23-5.82-9.58 3.7z"/>
</svg>
