<svg xmlns="http://www.w3.org/2000/svg" viewBox="0 0 15 15">
  <path fill="currentColor" d="M15 7.23a7.3 7.3 0 01-5.86 7.25 7.56 7.56 0 01-4.96-.7.3.3 0 00-.26-.01L.48 14.86l-.4.13c-.09.03-.1 0-.07-.08l.4-1.17.87-2.55c.04-.11-.02-.18-.07-.26a7.17 7.17 0 011-8.58A7.36 7.36 0 018.1 0c1.46.1 2.78.57 3.94 1.44A7.19 7.19 0 0115 7.23zm-7.43-6a5.31 5.31 0 00-1.33.16 6.06 6.06 0 00-3.66 9.38c.06.09.07.16.03.25L1.95 13c-.02.04-.05.08-.02.11.03.04.08 0 .11-.01l2-.64c.15-.06.26-.03.4.05 1.5.89 3.1 1.13 4.78.68a5.96 5.96 0 003.17-2.05 5.91 5.91 0 001.35-3.39 6.05 6.05 0 00-6.17-6.52z"/>
  <path fill="currentColor" d="M3.93 5.56c.02-.68.29-1.24.81-1.68a.64.64 0 01.53-.14l.25.02c.21-.02.33.1.4.26l.57 1.53c.04.1.03.19-.02.28-.12.24-.3.43-.5.62-.16.17-.17.22-.06.43.55.98 1.3 1.74 2.35 2.2l.14.08c.13.06.25.06.36-.05.22-.22.41-.45.6-.68.15-.19.23-.22.44-.12.5.23 1 .5 1.5.78.16.08.18.2.15.42-.1.9-.8 1.31-1.58 1.44-.27.04-.52.02-.77-.06A8.51 8.51 0 017 9.98a6.87 6.87 0 01-1.57-1.43C4.99 8 4.59 7.43 4.27 6.8c-.19-.35-.34-.9-.34-1.25z"/>
</svg>
