<svg width="25" height="25" viewBox="0 0 25 25" fill="none" xmlns="http://www.w3.org/2000/svg">
  <circle cx="12.5" cy="12.5" r="12" stroke="#CACACA"/>
  <path d="M11.7812 14.8438C11.7917 14.2292 11.875 13.7344 12.0312 13.3594C12.1875 12.9844 12.5234 12.5443 13.0391 12.0391C13.5547 11.5286 13.8854 11.1693 14.0312 10.9609C14.1823 10.7474 14.2969 10.5156 14.375 10.2656C14.4583 10.0104 14.5 9.72135 14.5 9.39844C14.5 8.7474 14.3255 8.23698 13.9766 7.86719C13.6328 7.49219 13.151 7.30469 12.5312 7.30469C11.9062 7.30469 11.401 7.48438 11.0156 7.84375C10.6354 8.19792 10.4401 8.67969 10.4297 9.28906H9.5C9.51042 8.4349 9.79948 7.7526 10.3672 7.24219C10.9349 6.72656 11.6562 6.46875 12.5312 6.46875C13.4271 6.46875 14.1328 6.73177 14.6484 7.25781C15.1693 7.77865 15.4297 8.48698 15.4297 9.38281C15.4297 9.94531 15.3021 10.474 15.0469 10.9688C14.7917 11.4583 14.3073 12.0312 13.5938 12.6875C13.0052 13.1823 12.7109 13.901 12.7109 14.8438H11.7812ZM11.6562 17.4531C11.6562 17.276 11.7109 17.1276 11.8203 17.0078C11.9349 16.8828 12.0938 16.8203 12.2969 16.8203C12.4948 16.8203 12.651 16.8828 12.7656 17.0078C12.8854 17.1276 12.9453 17.276 12.9453 17.4531C12.9453 17.625 12.8854 17.7708 12.7656 17.8906C12.651 18.0052 12.4948 18.0625 12.2969 18.0625C12.0938 18.0625 11.9349 18.0052 11.8203 17.8906C11.7109 17.7708 11.6562 17.625 11.6562 17.4531Z" fill="#CACACA"/>
</svg>

