<svg width="16" height="22" viewBox="0 0 16 22" fill="none" xmlns="http://www.w3.org/2000/svg">
  <mask id="path-1-inside-1" fill="white">
    <path fill-rule="evenodd" clip-rule="evenodd"
          d="M8 21.6673C9.33333 21.6673 16 13.5801 16 8.86732C16 4.15449 12.4183 0.333984 8 0.333984C3.58172 0.333984 0 4.15449 0 8.86732C0 13.5801 6.66667 21.6673 8 21.6673ZM8 11.0007C9.47276 11.0007 10.6667 9.80674 10.6667 8.33398C10.6667 6.86123 9.47276 5.66732 8 5.66732C6.52724 5.66732 5.33333 6.86123 5.33333 8.33398C5.33333 9.80674 6.52724 11.0007 8 11.0007Z"/>
  </mask>
  <path class="fill-theme-color"
    d="M15 8.86732C15 9.83717 14.649 11.0736 14.0271 12.4418C13.4133 13.7923 12.5728 15.1908 11.6816 16.46C10.7903 17.7293 9.86581 18.8444 9.09714 19.6313C8.71074 20.0269 8.38182 20.3209 8.13002 20.508C8.00351 20.6021 7.91624 20.6543 7.86619 20.679C7.7981 20.7127 7.85742 20.6673 8 20.6673V22.6673C8.30925 22.6673 8.5769 22.5588 8.75295 22.4717C8.94704 22.3757 9.13972 22.2495 9.3231 22.1132C9.69109 21.8397 10.1018 21.465 10.5279 21.0288C11.3842 20.1521 12.3763 18.9509 13.3184 17.6093C14.2606 16.2675 15.1701 14.7606 15.8479 13.2693C16.5177 11.7956 17 10.2539 17 8.86732H15ZM8 1.33398C11.8062 1.33398 15 4.645 15 8.86732H17C17 3.66398 13.0304 -0.666016 8 -0.666016V1.33398ZM1 8.86732C1 4.645 4.19382 1.33398 8 1.33398V-0.666016C2.96962 -0.666016 -1 3.66398 -1 8.86732H1ZM8 20.6673C8.14258 20.6673 8.2019 20.7127 8.13381 20.679C8.08376 20.6543 7.99649 20.6021 7.86998 20.508C7.61818 20.3209 7.28926 20.0269 6.90286 19.6313C6.13419 18.8444 5.20967 17.7293 4.31839 16.46C3.42722 15.1908 2.58674 13.7923 1.97288 12.4418C1.35104 11.0736 1 9.83717 1 8.86732H-1C-1 10.2539 -0.517707 11.7956 0.152125 13.2693C0.82993 14.7606 1.73944 16.2675 2.68161 17.6093C3.62367 18.9509 4.61581 20.1521 5.47214 21.0288C5.89824 21.465 6.30891 21.8397 6.6769 22.1132C6.86028 22.2495 7.05296 22.3757 7.24705 22.4717C7.4231 22.5588 7.69075 22.6673 8 22.6673V20.6673ZM9.66667 8.33398C9.66667 9.25446 8.92047 10.0007 8 10.0007V12.0007C10.025 12.0007 11.6667 10.359 11.6667 8.33398H9.66667ZM8 6.66732C8.92047 6.66732 9.66667 7.41351 9.66667 8.33398H11.6667C11.6667 6.30894 10.025 4.66732 8 4.66732V6.66732ZM6.33333 8.33398C6.33333 7.41351 7.07952 6.66732 8 6.66732V4.66732C5.97496 4.66732 4.33333 6.30894 4.33333 8.33398H6.33333ZM8 10.0007C7.07952 10.0007 6.33333 9.25446 6.33333 8.33398H4.33333C4.33333 10.359 5.97496 12.0007 8 12.0007V10.0007Z"
    fill="#FEDA00" mask="url(#path-1-inside-1)"/>
</svg>
