<svg width="20" height="20" viewBox="0 0 20 20" fill="none" xmlns="http://www.w3.org/2000/svg">
<path class="fill-theme-color" fill-rule="evenodd" clip-rule="evenodd" d="M18.0448 8.78241C18.0448 12.5675 14.8897 15.6359 10.9977 15.6359C7.10576 15.6359 3.95069 12.5675 3.95069 8.78241C3.95069 4.99736 7.10576 1.92896 10.9977 1.92896C14.8897 1.92896 18.0448 4.99736 18.0448 8.78241ZM19 8.78241C19 13.0805 15.4173 16.5648 10.9977 16.5648C9.08953 16.5648 7.3373 15.9153 5.96211 14.8311L1.67543 19L1 18.3431L5.25643 14.2036C3.85708 12.8022 2.99548 10.8902 2.99548 8.78241C2.99548 4.48431 6.57822 1 10.9977 1C15.4173 1 19 4.48431 19 8.78241Z" fill="#feda00"/>
<path class="fill-theme-color" d="M5.96211 14.8311L6.11689 14.6348L5.94486 14.4991L5.78781 14.6519L5.96211 14.8311ZM1.67543 19L1.50113 19.1792L1.67543 19.3487L1.84973 19.1792L1.67543 19ZM1 18.3431L0.825702 18.1639L0.641418 18.3431L0.825702 18.5223L1 18.3431ZM5.25643 14.2036L5.43073 14.3829L5.61233 14.2062L5.43334 14.027L5.25643 14.2036ZM10.9977 15.8859C15.0212 15.8859 18.2948 12.7121 18.2948 8.78241H17.7948C17.7948 12.4229 14.7583 15.3859 10.9977 15.3859V15.8859ZM3.70069 8.78241C3.70069 12.7121 6.9743 15.8859 10.9977 15.8859V15.3859C7.23722 15.3859 4.20069 12.4229 4.20069 8.78241H3.70069ZM10.9977 1.67896C6.9743 1.67896 3.70069 4.85277 3.70069 8.78241H4.20069C4.20069 5.14195 7.23722 2.17896 10.9977 2.17896V1.67896ZM18.2948 8.78241C18.2948 4.85277 15.0212 1.67896 10.9977 1.67896V2.17896C14.7583 2.17896 17.7948 5.14195 17.7948 8.78241H18.2948ZM10.9977 16.8148C15.5487 16.8148 19.25 13.2251 19.25 8.78241H18.75C18.75 12.9359 15.2858 16.3148 10.9977 16.3148V16.8148ZM5.80733 15.0274C7.22555 16.1455 9.03201 16.8148 10.9977 16.8148V16.3148C9.14704 16.3148 7.44906 15.685 6.11689 14.6348L5.80733 15.0274ZM5.78781 14.6519L1.50113 18.8208L1.84973 19.1792L6.13641 15.0103L5.78781 14.6519ZM1.84973 18.8208L1.1743 18.1639L0.825702 18.5223L1.50113 19.1792L1.84973 18.8208ZM1.1743 18.5223L5.43073 14.3829L5.08213 14.0244L0.825702 18.1639L1.1743 18.5223ZM2.74548 8.78241C2.74548 10.9601 3.636 12.9346 5.07952 14.3803L5.43334 14.027C4.07815 12.6698 3.24548 10.8203 3.24548 8.78241H2.74548ZM10.9977 0.75C6.44676 0.75 2.74548 4.33971 2.74548 8.78241H3.24548C3.24548 4.6289 6.70968 1.25 10.9977 1.25V0.75ZM19.25 8.78241C19.25 4.33971 15.5487 0.75 10.9977 0.75V1.25C15.2858 1.25 18.75 4.6289 18.75 8.78241H19.25Z" fill="#feda00"/>
</svg>
