<svg width="24" height="20" viewBox="0 0 24 20" fill="currentColor" xmlns="http://www.w3.org/2000/svg">
  <rect width="24" height="20" rx="4" fill="white"/>
  <rect x="0.5" y="0.5" width="23" height="19" rx="3.5" stroke="#E0E0E0" stroke-opacity="0.5"/>
  <path opacity="0.5" fill-rule="evenodd" clip-rule="evenodd" d="M8.875 4C8.32272 4 7.875 4.44772 7.875 5V15C7.875 15.5523 8.32272 16 8.875 16H9.73724C10.2895 16 10.7372 15.5523 10.7372 15V11.6364H11.8148C13.377 11.6364 14.4442 11.2058 15.0474 10.5455C15.6507 9.88507 16.125 9.11864 16.125 7.81818C16.125 6.51773 15.728 5.76146 15.0474 5.09091C14.3669 4.4102 13.4079 4 11.8148 4H8.875ZM10.7367 6.18203V9.45476H11.8143C11.8143 9.45476 13.4306 9.45476 13.4306 7.8184C13.4306 6.18203 11.8143 6.18203 11.8143 6.18203H10.7367Z" fill="#888D92"/>
</svg>
