<svg xmlns="http://www.w3.org/2000/svg" width="32" height="32" viewBox="0 0 32 32" fill="none">
  <rect width="32" height="32" rx="2" fill="white" fill-opacity="0.1"/>
  <path d="M28.6642 22.1232C28.6332 22.0598 28.6043 22.0072 28.5774 21.965C28.1333 21.2056 27.2845 20.2734 26.0316 19.1682L26.0052 19.1429L25.9919 19.1305L25.9785 19.1178H25.9651C25.3964 18.6032 25.0364 18.2572 24.8856 18.08C24.6097 17.7425 24.5479 17.4009 24.6986 17.0548C24.8052 16.7933 25.2054 16.2411 25.8983 15.3973C26.2627 14.9502 26.5514 14.5918 26.7645 14.3218C28.3019 12.3814 28.9684 11.1414 28.764 10.6014L28.6845 10.4753C28.6312 10.3993 28.4935 10.3298 28.2716 10.2664C28.0492 10.2032 27.7649 10.1927 27.4183 10.2349L23.5797 10.26C23.5175 10.2391 23.4287 10.2411 23.313 10.2664C23.1974 10.2918 23.1397 10.3045 23.1397 10.3045L23.0728 10.3362L23.0198 10.3743C22.9754 10.3994 22.9265 10.4437 22.8731 10.507C22.82 10.5701 22.7757 10.6441 22.7402 10.7284C22.3223 11.7492 21.8471 12.6983 21.3138 13.5756C20.985 14.0987 20.6831 14.5521 20.4073 14.9359C20.1319 15.3197 19.9009 15.6024 19.7144 15.7836C19.5277 15.9651 19.3591 16.1104 19.2078 16.2202C19.0567 16.33 18.9413 16.3764 18.8614 16.3594C18.7814 16.3425 18.706 16.3256 18.6346 16.3088C18.5103 16.2328 18.4103 16.1295 18.3349 15.9987C18.2591 15.868 18.2082 15.7034 18.1815 15.5052C18.155 15.3068 18.1393 15.1361 18.1348 14.9927C18.1307 14.8494 18.1326 14.6467 18.1416 14.3852C18.1508 14.1236 18.155 13.9465 18.155 13.8537C18.155 13.5331 18.1616 13.1851 18.1748 12.8097C18.1882 12.4343 18.1991 12.1369 18.2082 11.9178C18.2173 11.6984 18.2215 11.4663 18.2215 11.2217C18.2215 10.977 18.2058 10.7852 18.1748 10.6459C18.1442 10.5068 18.0971 10.3718 18.0352 10.2409C17.9729 10.1102 17.8816 10.009 17.7619 9.93724C17.642 9.86552 17.4929 9.80862 17.3155 9.76633C16.8445 9.66515 16.2447 9.61041 15.5159 9.6019C13.8632 9.58506 12.8013 9.68638 12.3303 9.90572C12.1437 9.9984 11.9749 10.125 11.8239 10.2852C11.6639 10.4709 11.6416 10.5722 11.7571 10.5889C12.2903 10.6647 12.6678 10.8461 12.89 11.1329L12.97 11.2849C13.0323 11.3945 13.0945 11.5887 13.1567 11.867C13.2189 12.1454 13.259 12.4533 13.2766 12.7905C13.321 13.4065 13.321 13.9337 13.2766 14.3723C13.2321 14.8111 13.1901 15.1527 13.15 15.3974C13.1099 15.642 13.05 15.8403 12.97 15.9921C12.89 16.1439 12.8367 16.2367 12.81 16.2704C12.7833 16.3041 12.7611 16.3253 12.7435 16.3337C12.628 16.3757 12.5079 16.3971 12.3835 16.3971C12.259 16.3971 12.1081 16.338 11.9304 16.2198C11.7527 16.1017 11.5684 15.9393 11.3773 15.7326C11.1862 15.5259 10.9707 15.2369 10.7307 14.8658C10.4909 14.4946 10.2421 14.056 9.98436 13.5498L9.77115 13.1827C9.63787 12.9466 9.4558 12.6028 9.22476 12.1515C8.99357 11.7001 8.78923 11.2634 8.6116 10.8416C8.54059 10.6645 8.43392 10.5296 8.29176 10.4368L8.22505 10.3987C8.1807 10.365 8.1095 10.3293 8.01184 10.2911C7.91404 10.2531 7.81198 10.2258 7.70526 10.209L4.05316 10.2341C3.67996 10.2341 3.42675 10.3144 3.29341 10.4747L3.24005 10.5506C3.2134 10.5928 3.19995 10.6603 3.19995 10.7531C3.19995 10.8459 3.22661 10.9598 3.27997 11.0947C3.81311 12.2843 4.39289 13.4316 5.0193 14.5367C5.64572 15.6418 6.19006 16.532 6.65201 17.2065C7.11405 17.8815 7.585 18.5185 8.06487 19.1173C8.54475 19.7163 8.86239 20.1002 9.0178 20.2688C9.1734 20.4378 9.29562 20.5641 9.38446 20.6485L9.71775 20.9521C9.931 21.1546 10.2442 21.3971 10.6574 21.6797C11.0707 21.9624 11.5282 22.2408 12.0303 22.5152C12.5324 22.7891 13.1166 23.0127 13.7831 23.1856C14.4495 23.3586 15.0982 23.4281 15.7291 23.3946H17.262C17.5728 23.3691 17.8084 23.2763 17.9684 23.1161L18.0215 23.0527C18.0571 23.0023 18.0905 22.9241 18.1213 22.8189C18.1525 22.7134 18.168 22.5972 18.168 22.4709C18.1589 22.1082 18.188 21.7813 18.2545 21.4903C18.3209 21.1994 18.3966 20.98 18.4813 20.8323C18.5659 20.6847 18.6615 20.5602 18.7678 20.4592C18.8743 20.358 18.9502 20.2967 18.9948 20.2756C19.039 20.2544 19.0743 20.24 19.101 20.2313C19.3143 20.1639 19.5652 20.2292 19.8543 20.4276C20.1431 20.6259 20.4141 20.8707 20.6675 21.1616C20.9207 21.4528 21.225 21.7795 21.5804 22.1422C21.936 22.505 22.2469 22.7747 22.5134 22.9521L22.7799 23.104C22.9578 23.2053 23.1889 23.2981 23.4733 23.3824C23.7572 23.4667 24.0059 23.4878 24.2195 23.4457L27.6315 23.3952C27.969 23.3952 28.2316 23.3421 28.4179 23.2369C28.6045 23.1314 28.7154 23.0152 28.7512 22.8889C28.7868 22.7624 28.7887 22.6189 28.7579 22.4584C28.7263 22.2984 28.6952 22.1865 28.6642 22.1232Z" fill="#828282"/>
</svg>
