<svg xmlns="http://www.w3.org/2000/svg" width="32" height="32" viewBox="0 0 32 32" fill="none">
  <path d="M25.0779 6.40523L21.7519 6.3999C18.0153 6.3999 15.6005 8.87273 15.6005 12.7001V15.6049H12.2564C11.9674 15.6049 11.7334 15.8387 11.7334 16.1272V20.3359C11.7334 20.6243 11.9677 20.8579 12.2564 20.8579H15.6005V31.4779C15.6005 31.7663 15.8345 31.9999 16.1235 31.9999H20.4866C20.7756 31.9999 21.0096 31.7661 21.0096 31.4779V20.8579H24.9197C25.2086 20.8579 25.4426 20.6243 25.4426 20.3359L25.4442 16.1272C25.4442 15.9887 25.389 15.8561 25.2911 15.758C25.1932 15.66 25.0597 15.6049 24.921 15.6049H21.0096V13.1425C21.0096 11.9589 21.2922 11.3581 22.8368 11.3581L25.0774 11.3573C25.3661 11.3573 25.6001 11.1235 25.6001 10.8353V6.92723C25.6001 6.63933 25.3663 6.40576 25.0779 6.40523Z" fill="#828282"/>
  <rect width="32" height="32" rx="2" fill="white" fill-opacity="0.1"/>
</svg>
