<svg xmlns="http://www.w3.org/2000/svg" width="32" height="32" viewBox="0 0 32 32" fill="none">
  <rect width="32" height="32" rx="2" fill="white" fill-opacity="0.1"/>
  <path d="M26.6668 18.8254V26.6666H22.0944V19.3505C22.0944 17.5127 21.4331 16.2584 19.778 16.2584C18.5146 16.2584 17.7627 17.1037 17.4319 17.9214C17.3113 18.2137 17.2802 18.6205 17.2802 19.0297V26.6666H12.7063C12.7063 26.6666 12.7679 14.2756 12.7063 12.9918H17.2798V14.9302C17.2705 14.9447 17.2585 14.9603 17.2497 14.9743H17.2798V14.9302C17.8874 13.9997 18.9726 12.6706 21.4016 12.6706C24.4109 12.6705 26.6668 14.625 26.6668 18.8254ZM7.92172 6.3999C6.35697 6.3999 5.3335 7.42028 5.3335 8.76212C5.3335 10.0747 6.32736 11.1261 7.86101 11.1261H7.89156C9.48661 11.1261 10.4786 10.0749 10.4786 8.76212C10.4485 7.42028 9.48661 6.3999 7.92172 6.3999ZM5.60515 26.6666H10.1774V12.9918H5.60515V26.6666Z" fill="#828282"/>
</svg>
