<svg xmlns="http://www.w3.org/2000/svg" width="15" height="14" viewBox="0 0 15 14" fill="none">
  <path class="fill-theme-color" d="M14.3453 7.91152C14.5571 8.21306 14.7184 8.5403 14.8312 8.89889C14.9433 9.25622 15 9.6261 15 10.0091C15 10.5577 14.8897 11.073 14.6717 11.5557C14.4531 12.0372 14.1522 12.4616 13.7685 12.8302C13.3848 13.1951 12.9381 13.4816 12.4248 13.6897C11.9115 13.8978 11.3715 14 10.7971 14C9.97924 14 9.24543 13.8057 8.59448 13.4176C8.41383 13.4427 8.23194 13.4609 8.04817 13.4747C7.86379 13.4872 7.68127 13.4922 7.49875 13.4922C6.54319 13.4922 5.64618 13.3198 4.8071 12.9763C3.96989 12.6308 3.23671 12.1619 2.60507 11.5645C1.97529 10.9695 1.47882 10.268 1.12126 9.46498C0.76059 8.66192 0.580565 7.80369 0.580565 6.89155C0.580565 6.71476 0.589286 6.54675 0.607973 6.39128C0.624792 6.23581 0.64784 6.0772 0.671512 5.91859C0.223007 5.29232 0 4.61965 0 3.89808C0 3.36145 0.110257 2.85429 0.328904 2.37722C0.546927 1.90077 0.84593 1.48639 1.22965 1.13469C1.61337 0.782375 2.0625 0.505284 2.57267 0.302167C3.08409 0.0990506 3.62666 8.07113e-09 4.201 8.07113e-09C4.61462 8.07113e-09 5.0027 0.0488984 5.37147 0.148576C5.74024 0.249507 6.08534 0.389934 6.40365 0.573616C6.58368 0.547913 6.76806 0.529733 6.94996 0.515314C7.13434 0.50403 7.31873 0.497134 7.49875 0.497134C8.45743 0.497134 9.35756 0.665144 10.1991 0.999283C11.0388 1.33092 11.7739 1.79043 12.4055 2.37345C13.0372 2.95898 13.5349 3.63666 13.8962 4.40776C14.2562 5.1801 14.4363 6.00887 14.4363 6.89155C14.4369 7.21691 14.407 7.55732 14.3453 7.91152ZM10.7971 9.91886C11.0924 9.52767 11.2382 9.06815 11.2382 8.5403C11.2382 8.12466 11.1559 7.77548 10.994 7.49212C10.8252 7.21001 10.5872 6.97367 10.2801 6.78497C9.99792 6.60192 9.63102 6.43955 9.18189 6.29411C8.73027 6.18001 8.25125 6.06842 7.74481 5.95433L7.18978 5.82706C7.04091 5.79509 6.92255 5.76814 6.83347 5.74369C6.73443 5.71924 6.64286 5.69228 6.55565 5.66031C6.47342 5.63084 6.38621 5.59636 6.299 5.55875C6.12957 5.48728 5.98754 5.39011 5.87479 5.27602C5.78758 5.17759 5.74398 5.04532 5.74398 4.88107C5.74398 4.64096 5.88601 4.42656 6.16819 4.23661C6.48775 4.0592 6.87832 3.97394 7.3424 3.97958C7.87874 3.97958 8.25561 4.0592 8.46802 4.21906C8.72467 4.40838 8.92587 4.64159 9.06977 4.9168C9.19498 5.11866 9.32205 5.26912 9.45349 5.36817C9.5787 5.46471 9.75249 5.51675 9.97114 5.52364C10.2172 5.52364 10.4209 5.44152 10.5922 5.27602C10.7598 5.1218 10.8401 4.94815 10.8358 4.75255C10.8358 4.52624 10.7722 4.30369 10.6476 4.08929C10.5243 3.88805 10.3169 3.67365 10.0309 3.44609C9.88642 3.34829 9.72758 3.25864 9.55627 3.17652C9.38434 3.09377 9.19124 3.02105 8.98131 2.95961C8.76142 2.89943 8.53032 2.85304 8.28675 2.82169C8.04257 2.79097 7.77596 2.77655 7.48069 2.77655C6.73692 2.77655 6.10963 2.86808 5.59884 3.05114C5.05004 3.24172 4.63455 3.50376 4.35299 3.84354C4.07143 4.16702 3.93065 4.5557 3.93065 5.00958C3.93065 5.48728 4.06707 5.87596 4.33617 6.17562C4.60714 6.49973 4.97404 6.74485 5.43812 6.91098C5.87915 7.08839 6.4429 7.24387 7.13434 7.37802C7.39286 7.43946 7.61898 7.49149 7.81894 7.53099C8.01578 7.56985 8.19456 7.61436 8.35091 7.66264C8.64556 7.74351 8.88476 7.87892 9.06728 8.07138C9.26225 8.23813 9.36005 8.45253 9.36005 8.71709C9.36005 9.08257 9.18189 9.37847 8.82994 9.60416C8.4973 9.83548 8.04755 9.94958 7.48131 9.94143C7.02782 9.94143 6.69954 9.88877 6.49149 9.7822C6.23297 9.66371 6.04236 9.51325 5.91715 9.33396C5.75831 9.12959 5.63123 8.90265 5.52907 8.65753C5.43999 8.42495 5.31977 8.24942 5.16279 8.13093C5.0164 8.01119 4.8451 7.95164 4.6439 7.95164C4.38725 7.95164 4.17546 8.02373 4.00789 8.16541C3.84032 8.32653 3.75997 8.51522 3.7637 8.72712C3.7637 9.09636 3.8995 9.46561 4.1686 9.83548C4.43584 10.216 4.77907 10.5132 5.19705 10.7269C5.80939 11.0454 6.5787 11.2065 7.50312 11.2128C8.25748 11.2128 8.92961 11.0999 9.51453 10.8749C10.0889 10.6185 10.5174 10.3006 10.7971 9.91886Z" fill="#FEDA00"/>
</svg>
