<svg xmlns="http://www.w3.org/2000/svg" width="32" height="32" viewBox="0 0 32 32" fill="none">
  <rect width="32" height="32" rx="2" fill="white" fill-opacity="0.1"/>
  <g clip-path="url(#clip0)">
    <path d="M5.71031 15.6197L10.6259 17.4543L12.5286 23.5732C12.6503 23.9651 13.1295 24.11 13.4476 23.8499L16.1877 21.6162C16.4749 21.3821 16.884 21.3705 17.1842 21.5884L22.1262 25.1764C22.4665 25.4237 22.9486 25.2373 23.0339 24.8261L26.6542 7.41165C26.7474 6.96251 26.3061 6.58783 25.8784 6.75323L5.70455 14.5357C5.2067 14.7277 5.21103 15.4326 5.71031 15.6197ZM12.222 16.4777L21.8289 10.5607C22.0016 10.4547 22.1792 10.6882 22.0309 10.8257L14.1024 18.1957C13.8237 18.4551 13.644 18.8022 13.593 19.179L13.323 21.1805C13.2872 21.4478 12.9118 21.4743 12.8381 21.2157L11.7993 17.5659C11.6804 17.1496 11.8537 16.7049 12.222 16.4777Z" fill="#828282"/>
  </g>
  <defs>
    <clipPath id="clip0">
      <rect width="21.3333" height="21.3333" fill="white" transform="translate(5.3335 5.3335)"/>
    </clipPath>
  </defs>
</svg>
