<svg width="82" height="60" viewBox="0 0 82 60" fill="none" xmlns="http://www.w3.org/2000/svg">
<mask id="path-1-inside-1" fill="white">
<path fill-rule="evenodd" clip-rule="evenodd" d="M70.0533 9.92593H3.94667C2.85683 9.92593 1.97333 10.7882 1.97333 11.8519V56.1481C1.97333 57.2118 2.85683 58.0741 3.94667 58.0741H70.0533C71.1432 58.0741 72.0267 57.2118 72.0267 56.1481V11.8519C72.0267 10.7882 71.1432 9.92593 70.0533 9.92593ZM3.94667 8C1.76698 8 0 9.72453 0 11.8519V56.1481C0 58.2755 1.76698 60 3.94667 60H70.0533C72.233 60 74 58.2755 74 56.1481V11.8519C74 9.72453 72.233 8 70.0533 8H3.94667Z"/>
</mask>
<path fill-rule="evenodd" clip-rule="evenodd" d="M70.0533 9.92593H3.94667C2.85683 9.92593 1.97333 10.7882 1.97333 11.8519V56.1481C1.97333 57.2118 2.85683 58.0741 3.94667 58.0741H70.0533C71.1432 58.0741 72.0267 57.2118 72.0267 56.1481V11.8519C72.0267 10.7882 71.1432 9.92593 70.0533 9.92593ZM3.94667 8C1.76698 8 0 9.72453 0 11.8519V56.1481C0 58.2755 1.76698 60 3.94667 60H70.0533C72.233 60 74 58.2755 74 56.1481V11.8519C74 9.72453 72.233 8 70.0533 8H3.94667Z" fill="#ADADAD"/>
<path d="M3.94667 11.9259H70.0533V7.92593H3.94667V11.9259ZM3.97333 11.8519C3.97333 11.8655 3.97003 11.8824 3.96349 11.8975C3.9576 11.9111 3.9513 11.9183 3.94823 11.9213C3.94518 11.9243 3.94297 11.9254 3.9417 11.926C3.93922 11.927 3.93976 11.9259 3.94667 11.9259V7.92593C1.79838 7.92593 -0.0266666 9.63806 -0.0266666 11.8519H3.97333ZM3.97333 56.1481V11.8519H-0.0266666V56.1481H3.97333ZM3.94667 56.0741C3.93976 56.0741 3.93922 56.073 3.9417 56.074C3.94297 56.0746 3.94518 56.0757 3.94823 56.0787C3.9513 56.0817 3.9576 56.0889 3.96349 56.1025C3.97003 56.1176 3.97333 56.1345 3.97333 56.1481H-0.0266666C-0.0266666 58.3619 1.79838 60.0741 3.94667 60.0741V56.0741ZM70.0533 56.0741H3.94667V60.0741H70.0533V56.0741ZM70.0267 56.1481C70.0267 56.1345 70.03 56.1176 70.0365 56.1025C70.0424 56.0889 70.0487 56.0817 70.0518 56.0787C70.0548 56.0757 70.057 56.0746 70.0583 56.074C70.0608 56.073 70.0602 56.0741 70.0533 56.0741V60.0741C72.2016 60.0741 74.0267 58.3619 74.0267 56.1481H70.0267ZM70.0267 11.8519V56.1481H74.0267V11.8519H70.0267ZM70.0533 11.9259C70.0602 11.9259 70.0608 11.927 70.0583 11.926C70.057 11.9254 70.0548 11.9243 70.0518 11.9213C70.0487 11.9183 70.0424 11.9111 70.0365 11.8975C70.03 11.8824 70.0267 11.8655 70.0267 11.8519H74.0267C74.0267 9.63805 72.2016 7.92593 70.0533 7.92593V11.9259ZM2 11.8519C2 10.8747 2.82543 10 3.94667 10V6C0.708539 6 -2 8.5744 -2 11.8519H2ZM2 56.1481V11.8519H-2V56.1481H2ZM3.94667 58C2.82543 58 2 57.1253 2 56.1481H-2C-2 59.4256 0.708541 62 3.94667 62V58ZM70.0533 58H3.94667V62H70.0533V58ZM72 56.1481C72 57.1253 71.1746 58 70.0533 58V62C73.2915 62 76 59.4256 76 56.1481H72ZM72 11.8519V56.1481H76V11.8519H72ZM70.0533 10C71.1746 10 72 10.8747 72 11.8519H76C76 8.57439 73.2915 6 70.0533 6V10ZM3.94667 10H70.0533V6H3.94667V10Z" fill="#ADADAD" mask="url(#path-1-inside-1)"/>
<mask id="path-3-inside-2" fill="white">
<path fill-rule="evenodd" clip-rule="evenodd" d="M33.4464 43.6421L0.445312 10.1993L1.86666 8.86328L34.8677 42.3061C36.032 43.4859 37.9675 43.4859 39.1318 42.3061L72.1328 8.86328L73.5542 10.1993L40.5531 43.6421C38.6126 45.6085 35.3869 45.6085 33.4464 43.6421Z"/>
</mask>
<path fill-rule="evenodd" clip-rule="evenodd" d="M33.4464 43.6421L0.445312 10.1993L1.86666 8.86328L34.8677 42.3061C36.032 43.4859 37.9675 43.4859 39.1318 42.3061L72.1328 8.86328L73.5542 10.1993L40.5531 43.6421C38.6126 45.6085 35.3869 45.6085 33.4464 43.6421Z" fill="#ADADAD"/>
<path d="M0.445312 10.1993L-0.924467 8.74198L-2.41761 10.1455L-0.978271 11.6041L0.445312 10.1993ZM33.4464 43.6421L34.87 42.2373V42.2373L33.4464 43.6421ZM1.86666 8.86328L3.29024 7.4585L1.91919 6.06909L0.496878 7.40599L1.86666 8.86328ZM34.8677 42.3061L36.2913 40.9013L34.8677 42.3061ZM39.1318 42.3061L40.5553 43.7109L40.5553 43.7108L39.1318 42.3061ZM72.1328 8.86328L73.5026 7.40599L72.0803 6.06909L70.7092 7.4585L72.1328 8.86328ZM73.5542 10.1993L74.9777 11.6041L76.4171 10.1455L74.9239 8.74198L73.5542 10.1993ZM40.5531 43.6421L41.9767 45.0468L40.5531 43.6421ZM-0.978271 11.6041L32.0228 45.0468L34.87 42.2373L1.8689 8.79449L-0.978271 11.6041ZM0.496878 7.40599L-0.924467 8.74198L1.81509 11.6566L3.23644 10.3206L0.496878 7.40599ZM36.2913 40.9013L3.29024 7.4585L0.443074 10.2681L33.4441 43.7108L36.2913 40.9013ZM37.7082 40.9013C37.327 41.2875 36.6724 41.2875 36.2913 40.9013L33.4441 43.7108C35.3916 45.6843 38.6079 45.6843 40.5553 43.7109L37.7082 40.9013ZM70.7092 7.4585L37.7082 40.9013L40.5553 43.7108L73.5564 10.2681L70.7092 7.4585ZM74.9239 8.74198L73.5026 7.40599L70.763 10.3206L72.1844 11.6566L74.9239 8.74198ZM41.9767 45.0468L74.9777 11.6041L72.1306 8.79449L39.1295 42.2373L41.9767 45.0468ZM32.0228 45.0468C34.7464 47.8069 39.2531 47.8069 41.9767 45.0468L39.1295 42.2373C37.9722 43.4101 36.0273 43.4101 34.87 42.2373L32.0228 45.0468Z" fill="#ADADAD" mask="url(#path-3-inside-2)"/>
<mask id="path-5-inside-3" fill="white">
<path fill-rule="evenodd" clip-rule="evenodd" d="M49.266 33.3257L65.5605 49.4901L64.1539 50.8408L47.8593 34.6763L49.266 33.3257ZM9.21142 49.4901L25.5051 33.3257L26.9119 34.6763L10.6181 50.8408L9.21142 49.4901Z"/>
</mask>
<path fill-rule="evenodd" clip-rule="evenodd" d="M49.266 33.3257L65.5605 49.4901L64.1539 50.8408L47.8593 34.6763L49.266 33.3257ZM9.21142 49.4901L25.5051 33.3257L26.9119 34.6763L10.6181 50.8408L9.21142 49.4901Z" fill="#ADADAD"/>
<path d="M65.5605 49.4901L66.9458 50.9328L68.4239 49.5135L66.9691 48.0703L65.5605 49.4901ZM49.266 33.3257L50.6745 31.9058L49.2887 30.5311L47.8808 31.883L49.266 33.3257ZM64.1539 50.8408L62.7453 52.2607L64.1311 53.6354L65.5391 52.2835L64.1539 50.8408ZM47.8593 34.6763L46.4741 33.2337L44.9959 34.653L46.4508 36.0962L47.8593 34.6763ZM25.5051 33.3257L26.8903 31.883L25.4823 30.5311L24.0966 31.9058L25.5051 33.3257ZM9.21142 49.4901L7.80285 48.0703L6.34807 49.5135L7.82625 50.9328L9.21142 49.4901ZM26.9119 34.6763L28.3204 36.0962L29.7752 34.6529L28.297 33.2337L26.9119 34.6763ZM10.6181 50.8408L9.23297 52.2835L10.641 53.6354L12.0267 52.2606L10.6181 50.8408ZM66.9691 48.0703L50.6745 31.9058L47.8574 34.7455L64.152 50.91L66.9691 48.0703ZM65.5391 52.2835L66.9458 50.9328L64.1753 48.0475L62.7687 49.3982L65.5391 52.2835ZM46.4508 36.0962L62.7453 52.2607L65.5624 49.4209L49.2678 33.2565L46.4508 36.0962ZM47.8808 31.883L46.4741 33.2337L49.2445 36.119L50.6512 34.7683L47.8808 31.883ZM24.0966 31.9058L7.80285 48.0703L10.62 50.91L26.9137 34.7455L24.0966 31.9058ZM28.297 33.2337L26.8903 31.883L24.12 34.7683L25.5267 36.119L28.297 33.2337ZM12.0267 52.2606L28.3204 36.0962L25.5033 33.2565L9.20957 49.421L12.0267 52.2606ZM7.82625 50.9328L9.23297 52.2835L12.0033 49.3981L10.5966 48.0475L7.82625 50.9328Z" fill="#ADADAD" mask="url(#path-5-inside-3)"/>
<circle class="fill-theme-color" cx="72" cy="10" r="10" fill="#FEDA00"/>
<path d="M66.6152 9.97975L70.5079 13.8456L77.3845 6.15332" stroke="white" stroke-width="2"/>
</svg>
