<svg width="11" height="14" viewBox="0 0 11 14" fill="none" xmlns="http://www.w3.org/2000/svg">
  <path class="fill-theme-color" d="M5.49991 0C2.46733 0 0 2.34558 0 5.22886C0 6.85974 1.48067 9.30035 2.36332 10.6097C2.92857 11.4487 3.54006 12.2592 4.08496 12.892C4.96708 13.9166 5.24773 14 5.49991 14C5.74934 14 6.0462 13.9153 6.93005 12.8928C7.47357 12.2635 8.08471 11.4528 8.65117 10.6092C9.52847 9.30247 11 6.86594 11 5.22902C11 2.34558 8.53267 0 5.49991 0ZM5.50509 12.9326C4.53516 12.0646 1.03495 7.41197 1.03495 5.22886C1.03495 2.88589 3.03793 0.979706 5.49991 0.979706C7.96189 0.979706 9.96487 2.88589 9.96487 5.22886C9.96505 7.45458 6.47139 12.0821 5.50509 12.9326ZM5.46231 2.8694C4.1148 2.8694 3.01861 3.90723 3.01861 5.18265C3.01861 6.45822 4.1148 7.49589 5.46231 7.49589C6.80982 7.49589 7.90601 6.45822 7.90601 5.18265C7.90601 3.90723 6.80982 2.8694 5.46231 2.8694ZM5.46231 6.51635C4.68558 6.51635 4.05357 5.91808 4.05357 5.18265C4.05357 4.44721 4.68558 3.8491 5.46231 3.8491C6.23904 3.8491 6.87105 4.44738 6.87105 5.18265C6.87105 5.91791 6.23904 6.51635 5.46231 6.51635Z" fill="#FEDA00"/>
  <path class="fill-theme-color" fill-rule="evenodd" clip-rule="evenodd" d="M5.50509 12.9326C4.53516 12.0646 1.03495 7.41197 1.03495 5.22886C1.03495 2.88589 3.03793 0.979706 5.49991 0.979706C7.96189 0.979706 9.96487 2.88589 9.96487 5.22886C9.96505 7.45458 6.47139 12.0821 5.50509 12.9326ZM3.01861 5.18265C3.01861 3.90723 4.1148 2.8694 5.46231 2.8694C6.80982 2.8694 7.90601 3.90723 7.90601 5.18265C7.90601 6.45822 6.80982 7.49589 5.46231 7.49589C4.1148 7.49589 3.01861 6.45822 3.01861 5.18265Z" fill="#FEDA00"/>
</svg>
